<?xml version="1.0" encoding="UTF-8"?>
<svg id="Layer_2" data-name="Layer 2" xmlns="http://www.w3.org/2000/svg" viewBox="0 0 711.97 380.24">
  <defs>
    <style>
      .cls-1 {
        fill: #12263a;
      }

      .cls-1, .cls-2, .cls-3 {
        stroke-width: 0px;
      }

      .cls-2 {
        fill: #ffbba6;
      }

      .cls-3 {
        fill: #f50;
      }
    </style>
  </defs>
  <g id="Layer_1-2" data-name="Layer 1">
    <path class="cls-1" d="M383.54,6.42c-67-1.52-126.76,6.76-198.59,27.86C113.12,55.38,29.32,88.81,6.42,138.74c-22.27,50.01,16.1,116.24,73.85,161.12,57.65,45.35,134.77,68.87,213.5,77.36,78.82,8.02,158.98.73,225.35-29.48,65.74-30.29,117.32-83.3,128.14-140,10.81-56.7-19.4-117.36-71.69-153.13-51.92-35.96-125.28-46.95-192.02-48.2Z"/>
    <path class="cls-2" d="M73.38,1.38c.69-2.12,3.81-1.68,3.89.55l.79,23.41c.05,1.6,1.87,2.48,3.16,1.55l18.97-13.74c1.8-1.31,4.07.88,2.82,2.73l-13.12,19.4c-.89,1.32.05,3.11,1.65,3.11l23.42.03c2.23,0,2.77,3.11.68,3.87l-22.02,7.99c-1.5.54-1.78,2.54-.49,3.48l18.93,13.79c1.8,1.31.42,4.14-1.72,3.53l-22.51-6.48c-1.53-.44-2.94,1.01-2.45,2.53l7.21,22.29c.69,2.12-2.1,3.6-3.47,1.84l-14.4-18.48c-.98-1.26-2.97-.91-3.47.61l-7.27,22.27c-.69,2.12-3.81,1.68-3.89-.55l-.79-23.41c-.05-1.6-1.87-2.48-3.16-1.55l-18.97,13.74c-1.81,1.31-4.07-.88-2.82-2.73l13.12-19.4c.89-1.32-.05-3.11-1.65-3.11l-23.42-.03c-2.23,0-2.77-3.11-.68-3.87l22.02-7.99c1.5-.54,1.78-2.54.49-3.48l-18.93-13.79c-1.8-1.31-.42-4.14,1.72-3.53l22.51,6.48c1.53.44,2.94-1.01,2.45-2.53l-7.21-22.29c-.69-2.12,2.1-3.6,3.47-1.84l14.4,18.47c.98,1.26,2.97.91,3.47-.61l7.27-22.27Z"/>
    <path class="cls-3" d="M606.16,203.36c3.13-13.49,22.34-13.49,25.47,0,2.3,9.92,14.55,13.51,21.85,6.41,9.93-9.66,26.08.73,21.42,13.77-3.43,9.59,4.94,19.24,14.91,17.21,13.57-2.76,21.55,14.71,10.58,23.16-8.06,6.21-6.25,18.85,3.24,22.54,12.91,5.02,10.17,24.03-3.62,25.21-10.14.87-15.45,12.48-9.46,20.71,8.15,11.2-4.43,25.71-16.68,19.25-9-4.76-19.74,2.15-19.16,12.31.8,13.82-17.63,19.24-24.43,7.17-5-8.87-17.77-8.87-22.77,0-6.8,12.06-25.23,6.65-24.43-7.17.59-10.16-10.16-17.07-19.16-12.31-12.24,6.47-24.82-8.05-16.68-19.25,5.99-8.23.68-19.85-9.46-20.71-13.8-1.18-16.53-20.19-3.62-25.21,9.49-3.69,11.3-16.33,3.24-22.54-10.97-8.45-2.99-25.92,10.58-23.16,9.98,2.03,18.34-7.62,14.91-17.21-4.66-13.04,11.5-23.42,21.42-13.77,7.3,7.1,19.55,3.5,21.85-6.41Z"/>
    <path class="cls-1" d="M568.87,271.53l.26-1.32,4.16-.5h1.65l3.87.5-.26,1.32h-9.68ZM571.12,271.53l2.15-11.37c.33-1.7.64-3.4.93-5.12.29-1.74.56-3.46.83-5.16h5.29l-2.18,11.37c-.33,1.72-.64,3.44-.93,5.16-.29,1.72-.56,3.43-.83,5.12h-5.25ZM572.61,251.2l.26-1.32h9.72l-.26,1.32-4.06.5h-1.65l-4-.5ZM575.75,261.18v-1.49h11.7v1.49h-11.7ZM580.54,271.53l.3-1.32,4.13-.5h1.65l3.9.5-.26,1.32h-9.72ZM582.79,271.53l2.18-11.37c.33-1.7.64-3.4.93-5.12.29-1.74.56-3.46.83-5.16h5.25l-2.15,11.37c-.33,1.72-.65,3.44-.96,5.16-.29,1.72-.56,3.43-.83,5.12h-5.25ZM584.27,251.2l.26-1.32h9.72l-.26,1.32-4.03.5h-1.65l-4.03-.5ZM593.99,269.88c0-.46.06-1,.17-1.62.13-.64.24-1.17.33-1.59l1.82-8.53.63.73-2.88-.69.17-.96,6.91-1.82.53.4-2.41,11.3c-.07.31-.12.58-.17.83-.04.22-.07.42-.07.59,0,.2.04.34.13.43.11.09.24.13.4.13.22,0,.51-.14.86-.43.35-.29.76-.75,1.22-1.39l.83.53c-.37.7-.85,1.39-1.42,2.05-.57.64-1.23,1.17-1.98,1.59-.75.42-1.59.63-2.51.63-.77,0-1.39-.2-1.85-.59-.46-.4-.69-.93-.69-1.59ZM600.11,252.76c-.62,0-1.17-.2-1.65-.59-.46-.42-.69-.99-.69-1.72,0-.84.29-1.52.86-2.05.57-.53,1.24-.79,2.02-.79.7,0,1.27.22,1.69.66.44.42.66.96.66,1.62,0,.84-.29,1.53-.86,2.08-.57.53-1.24.79-2.02.79ZM609.35,272.06c-1.1,0-2.08-.24-2.94-.73-.84-.48-1.5-1.18-1.98-2.08-.48-.93-.73-2.02-.73-3.27,0-1.37.23-2.68.69-3.93.48-1.26,1.16-2.38,2.02-3.37.88-1.01,1.91-1.81,3.07-2.38,1.19-.59,2.49-.89,3.9-.89s2.47.31,3.24.93c.79.62,1.19,1.42,1.19,2.41,0,.77-.24,1.5-.73,2.18-.46.68-1.18,1.32-2.15,1.92-.97.57-2.17,1.1-3.6,1.59-1.41.46-3.06.88-4.96,1.26l-.03-.93c1.98-.53,3.51-1.13,4.59-1.82,1.1-.68,1.86-1.41,2.28-2.18.42-.79.63-1.59.63-2.38,0-.53-.11-.91-.33-1.16-.2-.24-.46-.36-.79-.36-.4,0-.85.2-1.35.59-.48.4-.95.96-1.39,1.69-.42.73-.77,1.58-1.06,2.54-.29.95-.43,1.98-.43,3.11,0,1.28.31,2.24.93,2.88.64.64,1.44.96,2.41.96.55,0,1.08-.09,1.59-.26.51-.2.98-.46,1.42-.79.46-.35.86-.74,1.19-1.16l.76.5c-.35.7-.77,1.38-1.26,2.02-.46.62-.99,1.16-1.59,1.62-.59.46-1.28.83-2.05,1.09-.75.29-1.6.43-2.54.43ZM624.94,264.52l-.5-1.69h.36c.53-1.41,1.11-2.68,1.75-3.8s1.33-2,2.08-2.64c.77-.66,1.59-.99,2.45-.99.53,0,1.01.15,1.45.46.46.29.78.74.96,1.35,0,.75-.21,1.4-.63,1.95-.42.53-.99.79-1.72.79-.57,0-1.04-.13-1.39-.4-.33-.26-.74-.66-1.22-1.19l-.5-.59,1.12-.23v.2c-.73.73-1.35,1.47-1.88,2.21-.51.75-.95,1.51-1.32,2.28-.35.75-.69,1.51-1.02,2.28ZM618.9,271.4l2.74-13.22,1.26.76-3.47-.76.17-.96,6.41-1.82.56.46-1.02,5.92.13.07-.53,2.74c-.22,1.12-.44,2.27-.66,3.44-.2,1.17-.4,2.34-.59,3.5l-4.49.26-.5-.4ZM640.82,269.88c0-.46.06-1,.17-1.62.13-.64.24-1.17.33-1.59l1.82-8.53.63.73-2.88-.69.17-.96,6.91-1.82.53.4-2.41,11.3c-.07.31-.12.58-.17.83-.04.22-.07.42-.07.59,0,.2.04.34.13.43.11.09.24.13.4.13.22,0,.51-.14.86-.43.35-.29.76-.75,1.22-1.39l.83.53c-.37.7-.85,1.39-1.42,2.05-.57.64-1.23,1.17-1.98,1.59-.75.42-1.59.63-2.51.63-.77,0-1.39-.2-1.85-.59-.46-.4-.69-.93-.69-1.59ZM646.93,252.76c-.62,0-1.17-.2-1.65-.59-.46-.42-.69-.99-.69-1.72,0-.84.29-1.52.86-2.05.57-.53,1.24-.79,2.02-.79.7,0,1.27.22,1.69.66.44.42.66.96.66,1.62,0,.84-.29,1.53-.86,2.08-.57.53-1.24.79-2.02.79ZM650.95,271.79l-.5-.4,2.78-13.22,1.26.76-3.47-.76.17-.96,6.77-1.82.56.46-.73,3.77-.1.36-.96,4.59c-.24,1.12-.47,2.27-.69,3.44-.2,1.17-.38,2.34-.56,3.5l-4.53.26ZM662.19,272.06c-.77,0-1.39-.2-1.85-.59-.44-.4-.66-.93-.66-1.59,0-.46.07-.98.2-1.55.13-.57.24-1.07.33-1.49l1.19-4.92c.11-.48.21-.94.3-1.35.09-.44.13-.78.13-1.02,0-.29-.08-.51-.23-.66-.15-.15-.36-.23-.63-.23-.29,0-.63.08-1.02.23-.4.15-.81.4-1.26.73-.44.31-.91.7-1.42,1.19l-.36-1.02h.23c.84-.93,1.65-1.71,2.45-2.35s1.59-1.13,2.38-1.49c.79-.35,1.59-.53,2.38-.53.71,0,1.3.23,1.78.69.48.44.73,1.13.73,2.08,0,.44-.04.9-.13,1.39-.07.48-.15.98-.26,1.49l-1.45,6.05c-.09.31-.15.58-.2.83-.04.22-.07.42-.07.59,0,.2.04.34.13.43.09.09.2.13.33.13.24,0,.55-.14.93-.43.38-.29.8-.75,1.29-1.39l.79.53c-.37.7-.86,1.39-1.45,2.05-.59.64-1.28,1.17-2.05,1.59-.75.42-1.59.63-2.51.63ZM589.11,317.56c-1.81,0-3.43-.33-4.86-.99-1.43-.66-2.56-1.64-3.37-2.94-.82-1.32-1.22-2.94-1.22-4.86,0-1.45.19-2.86.56-4.23.37-1.37.91-2.63,1.62-3.8.7-1.19,1.56-2.24,2.58-3.14,1.04-.9,2.2-1.6,3.5-2.08,1.3-.51,2.72-.76,4.26-.76.79,0,1.53.06,2.21.17.68.11,1.34.28,1.98.5.64.2,1.24.47,1.82.83l-.69,5.22h-1.72l-.89-5.39,1.32,1.49c-.55-.48-1.1-.84-1.65-1.06-.55-.22-1.15-.33-1.78-.33-.93,0-1.8.25-2.61.76-.79.48-1.52,1.17-2.18,2.05-.64.86-1.19,1.86-1.65,3.01-.46,1.12-.82,2.32-1.06,3.6-.24,1.28-.36,2.57-.36,3.87,0,1.39.19,2.58.56,3.57.37.99.91,1.76,1.62,2.31.7.53,1.56.79,2.58.79.7,0,1.37-.09,1.98-.26.62-.2,1.23-.47,1.85-.83l-1.85,1.39,2.64-5.78h1.72l-.86,5.45c-.79.42-1.69.76-2.68,1.02-.97.29-2.09.43-3.37.43ZM598.79,317.23l-.5-.4,2.97-14.08c.26-1.15.51-2.29.73-3.44.22-1.17.41-2.32.56-3.47l1.45.83-3.5-.76.13-.96,6.87-1.82.5.4-2.45,11.5v.33l-.99,4.63c-.2.86-.37,1.67-.53,2.45-.13.75-.26,1.5-.4,2.25-.11.75-.22,1.51-.33,2.28l-4.53.26ZM610.06,317.5c-.77,0-1.39-.2-1.85-.59-.44-.4-.66-.93-.66-1.59,0-.46.06-.98.17-1.55.13-.57.25-1.07.36-1.49l1.19-4.92c.11-.48.2-.94.26-1.35.09-.44.13-.78.13-1.02,0-.29-.08-.51-.23-.66-.13-.15-.33-.23-.59-.23-.29,0-.63.08-1.02.23s-.82.4-1.26.73c-.44.31-.91.7-1.42,1.19l-.36-1.02h.2c.84-.93,1.65-1.71,2.45-2.35s1.59-1.13,2.38-1.49c.79-.35,1.59-.53,2.38-.53.73,0,1.33.23,1.82.69.48.44.73,1.13.73,2.08,0,.44-.04.9-.13,1.39-.07.48-.17.98-.3,1.49l-1.45,6.05c-.07.31-.13.58-.2.83-.04.22-.07.42-.07.59,0,.2.04.34.13.43.09.09.21.13.36.13.24,0,.55-.14.93-.43.37-.29.79-.75,1.26-1.39l.83.53c-.37.7-.86,1.39-1.45,2.05-.59.64-1.28,1.17-2.05,1.59-.77.42-1.61.63-2.51.63ZM620.49,317.5c-.51,0-.97-.11-1.39-.33-.42-.22-.75-.53-.99-.93-.24-.42-.36-.93-.36-1.52,0-.48.04-.97.13-1.45.09-.51.19-1,.3-1.49l1.88-8.23.63.73-2.94-.66.2-.96,6.91-1.82.53.46-2.18,9.65c-.07.26-.13.54-.2.83-.04.26-.09.52-.13.76-.04.22-.07.43-.07.63,0,.37.09.65.26.83.2.18.44.26.73.26.31,0,.65-.07,1.02-.2.37-.15.77-.39,1.19-.69.44-.33.9-.74,1.39-1.22l.56,1.06h-.53c-.75.9-1.52,1.67-2.31,2.31-.77.62-1.54,1.1-2.31,1.45-.77.35-1.54.53-2.31.53ZM629.15,317.5c-.77,0-1.39-.24-1.85-.73-.46-.48-.69-1.15-.69-1.98,0-.22.02-.46.07-.73.04-.29.1-.59.17-.93l-.03-.17,1.19-5.42c.2-.93.37-1.81.53-2.64.15-.86.29-1.75.4-2.68l4.69-1.39.59.46-2.48,11.24c-.07.33-.12.61-.17.83s-.07.42-.07.59c0,.2.04.34.13.43.11.09.23.13.36.13.26,0,.56-.14.89-.43.35-.29.77-.75,1.26-1.39l.83.53c-.37.7-.85,1.39-1.42,2.05-.57.64-1.23,1.17-1.98,1.59-.73.42-1.53.63-2.41.63ZM642.18,309.96l-.5-1.69h.36c.53-1.41,1.11-2.68,1.75-3.8.64-1.12,1.33-2,2.08-2.64.77-.66,1.59-.99,2.45-.99.53,0,1.01.15,1.45.46.46.29.78.74.96,1.35,0,.75-.21,1.4-.63,1.95-.42.53-.99.79-1.72.79-.57,0-1.04-.13-1.39-.4-.33-.26-.74-.66-1.22-1.19l-.5-.59,1.12-.23v.2c-.73.73-1.35,1.47-1.88,2.21-.51.75-.95,1.51-1.32,2.28-.35.75-.69,1.51-1.02,2.28ZM636.13,316.84l2.74-13.22,1.26.76-3.47-.76.17-.96,6.41-1.82.56.46-1.02,5.92.13.07-.53,2.74c-.22,1.12-.44,2.27-.66,3.44-.2,1.17-.4,2.34-.59,3.5l-4.49.26-.5-.4ZM653.89,309.66l-.1-3.64c-.04-1.43-.06-2.69-.03-3.77.02-1.08.07-1.99.13-2.74.09-.75.18-1.32.26-1.72.24-1.08.65-1.85,1.22-2.31.57-.48,1.31-.73,2.21-.73.82,0,1.42.21,1.82.63.42.42.63,1,.63,1.75,0,.42-.09.96-.26,1.62-.18.64-.45,1.45-.83,2.45-.37.97-.87,2.16-1.49,3.57-.62,1.39-1.35,3.02-2.21,4.89h-1.35ZM651.11,315.05c0-.79.3-1.48.89-2.05.59-.57,1.28-.86,2.05-.86.7,0,1.28.24,1.72.73.46.48.69,1.05.69,1.69,0,.82-.3,1.5-.89,2.05-.59.55-1.28.83-2.05.83-.73,0-1.31-.23-1.75-.69-.44-.48-.66-1.05-.66-1.69Z"/>
  </g>
</svg>