<?xml version="1.0" encoding="UTF-8"?>
<svg id="Layer_2" data-name="Layer 2" xmlns="http://www.w3.org/2000/svg" viewBox="0 0 478.77 365.18">
  <defs>
    <style>
      .cls-1 {
        fill: #fe932f;
      }

      .cls-1, .cls-2, .cls-3 {
        stroke-width: 0px;
      }

      .cls-2 {
        fill: #f50;
      }

      .cls-3 {
        fill: #014921;
      }
    </style>
  </defs>
  <g id="Layer_1-2" data-name="Layer 1">
    <path class="cls-2" d="M425.94,84.87c45.29,51.22,70.81,146.87,37.96,204.54-32.53,57.66-123.12,77.68-210.84,75.64-87.72-1.7-172.56-25.1-192.34-74.96-20.1-49.86,24.88-126.52,67.3-176.04,42.42-49.52,82.29-71.91,134.93-79.71,52.31-7.8,117.38-.68,163,50.54Z"/>
    <path id="Star_6" data-name="Star 6" class="cls-3" d="M62.29,215.45c1.9-5.73,10.44-3.88,9.79,2.13l-3.37,31.19c-.37,3.4,2.68,6.17,6.03,5.48l30.73-6.34c5.92-1.22,8.58,7.1,3.05,9.54l-28.7,12.68c-3.13,1.38-4,5.41-1.73,7.96l20.86,23.44c4.02,4.51-1.86,10.98-6.74,7.42l-25.33-18.52c-2.76-2.02-6.68-.76-7.76,2.48l-9.87,29.78c-1.9,5.73-10.44,3.88-9.79-2.13l3.37-31.19c.37-3.4-2.68-6.17-6.03-5.48l-30.73,6.34c-5.92,1.22-8.58-7.1-3.05-9.54l28.7-12.68c3.13-1.38,4-5.41,1.73-7.96l-20.86-23.44c-4.01-4.51,1.86-10.98,6.74-7.42l25.33,18.52c2.76,2.02,6.68.76,7.76-2.48l9.87-29.78Z"/>
    <path class="cls-1" d="M111.54,0l1.91,49.29c.14,3.58,4.87,4.75,6.66,1.64l24.6-42.76-21.21,44.53c-1.54,3.23,2.11,6.47,5.13,4.55l41.65-26.43-39.48,29.57c-2.87,2.15-1.14,6.71,2.43,6.41l49.16-4.04-48.7,7.84c-3.54.57-4.12,5.41-.83,6.81l45.41,19.27-46.77-15.69c-3.4-1.14-6.17,2.87-3.9,5.64l31.25,38.16-34.12-35.63c-2.48-2.59-6.79-.32-6.07,3.19l9.94,48.32-13.65-47.4c-.99-3.44-5.87-3.44-6.86,0l-13.65,47.4,9.94-48.32c.72-3.51-3.6-5.77-6.07-3.19l-34.12,35.63,31.26-38.16c2.27-2.77-.5-6.78-3.9-5.64l-46.77,15.69,45.41-19.27c3.3-1.4,2.71-6.24-.83-6.81l-48.7-7.84,49.16,4.04c3.57.29,5.3-4.27,2.43-6.41l-39.48-29.57,41.65,26.43c3.02,1.92,6.67-1.32,5.13-4.55l-21.21-44.53,24.6,42.76c1.79,3.1,6.52,1.94,6.66-1.64l1.91-49.29Z"/>
  </g>
</svg>