<svg xmlns="http://www.w3.org/2000/svg" width="320" height="404" viewBox="0 0 370 444" fill="none">
  <path d="M263.28 94.62C265.64 93.27 265.88 92.66 265.38 90.59C264.97 88.88 264.5 87.15 264.36 85.4C264.16 82.89 265.58 81.58 268.11 81.61C269.24 81.62 270.49 80.43 270.42 79.32C270.33 77.97 269.19 78.21 268.4 78.2C261.26 78.09 254.12 78.03 246.99 77.96C244.7 77.94 242.41 77.96 240.12 77.96C240.12 77.71 240.11 77.45 240.1 77.2C244.56 76.95 249.02 76.62 253.48 76.48C259.14 76.3 264.8 76.2 270.46 76.21C273.05 76.21 273.46 76.73 273.55 79.36C273.6 80.8 274.52 80.78 275.5 80.73C279.03 80.56 282.57 80.29 286.1 80.19C296.24 79.9 306.39 79.73 316.53 79.36C318.15 79.3 319.96 78.83 321.31 77.96C326.96 74.29 332.98 74.26 339.2 75.73C341.6 76.3 342.35 77.7 341.49 79.56C340.95 77.24 340.38 76.78 337.82 76.46C331.62 75.7 325.82 76.46 320.85 80.7C320.28 81.19 319.36 81.47 318.59 81.5C305.15 82.05 291.71 82.54 278.27 83.05C276.19 83.13 274.12 83.24 271.74 83.36C272.16 84.15 272.33 84.57 272.59 84.93C275.07 88.39 276.19 92.3 276.47 96.51C276.62 98.78 276.89 99 279.16 99C291.67 98.99 304.17 98.95 316.68 98.97C321.19 98.97 321.08 99.02 321.92 94.68C322.61 91.14 323.97 87.79 327.28 85.91C328.35 85.3 330.06 85.22 331.24 85.6C332.62 86.04 333.22 87.55 333.09 89.11C332.94 90.86 332.78 92.61 332.49 94.33C332.41 94.78 331.86 95.16 331.53 95.57C331.36 95.5 331.2 95.44 331.03 95.37C331.11 94.73 331.19 94.08 331.26 93.44C331.42 91.92 331.73 90.39 331.67 88.88C331.58 86.84 329.76 86.06 328.14 87.32C327.41 87.89 326.61 88.6 326.3 89.42C325.38 91.87 324.36 94.37 323.98 96.93C323.54 99.87 325.08 101.85 327.92 102.88C329.47 103.44 331.09 103.8 332.66 104.28C333.86 104.65 334.23 105.31 333.59 106.55C332.89 107.91 332.25 109.32 331.82 110.78C331.46 112 331 113.43 331.32 114.56C332.7 119.39 332.32 124.29 332.19 129.17C332.08 133.46 331.64 137.74 331 142.01C330.65 135.36 330.38 128.71 329.91 122.07C329.73 119.51 329.11 116.97 328.66 114.43C328.43 113.11 327.42 113.08 326.35 113.08C320.57 113.12 314.79 113.16 309 113.15C298.91 113.15 288.82 113.11 278.73 113.08C276.52 113.08 276.21 113.37 276.47 115.52C277.56 124.56 277 133.54 275.53 142.49C275.49 142.72 275.44 142.95 275.4 143.19C274.95 146.23 275.03 146.28 278.11 146.69C279.31 146.85 280.48 147.21 281.62 147.87C281.13 147.91 280.64 148 280.15 148C267.52 148.02 254.9 148.04 242.28 148C241.42 148 240.57 147.42 239.7 147.19C238.87 146.97 238.01 146.71 237.16 146.71C218.22 146.68 199.28 146.7 180.34 146.69C172.14 146.69 163.94 146.66 155.75 146.61C154.46 146.61 153.18 146.45 151.87 146.06C152.88 145.95 153.88 145.8 154.89 145.74C177.1 144.31 199.32 143.78 221.57 144.37C227.82 144.53 234.07 144.77 240.31 145.11C241.98 145.2 242.55 144.57 242.67 143.07C242.87 140.6 243.12 138.14 243.56 135.63C243.62 136.03 243.73 136.43 243.74 136.83C243.78 139.01 243.78 141.2 243.81 143.38C243.85 146.71 243.88 146.72 247.26 146.37C250.07 146.08 252.89 145.61 255.7 145.6C261.24 145.57 266.78 145.76 272.31 145.93C274.1 145.99 274.58 145.66 274.57 143.92C274.5 132.71 274.44 121.5 274.36 110.29C274.36 109.78 274.3 109.27 274.23 108.28C273.46 108.86 272.94 109.14 272.56 109.55C268.23 114.25 266.66 120.06 266.05 126.21C265.76 129.13 265.71 132.08 265.28 135.01C265.28 130.89 265.1 126.77 265.32 122.66C265.63 116.8 268.28 111.77 271.71 107.19C273.82 104.37 274.57 101.29 274.29 97.89C273.94 93.68 273.25 89.56 270.29 86.23C270.17 86.1 270.09 85.91 269.95 85.83C269.13 85.35 268.31 84.9 267.48 84.44C267.41 85.31 267.21 86.19 267.31 87.03C267.45 88.19 267.81 89.33 268.09 90.48C268.64 92.74 268.29 94.74 266.23 96.1C264.92 96.97 263.55 97.77 262.15 98.5C261.1 99.05 260.67 98.5 260.56 97.43C260.37 95.73 260.33 93.97 259.79 92.38C259.44 91.35 258.33 90.59 257.56 89.7C256.74 90.46 255.5 91.07 255.2 92C254.41 94.39 253.86 96.89 253.51 99.38C253.05 102.67 252.13 105.41 248.95 107.25C246.2 108.85 245.23 111.89 245.4 114.93C245.54 117.47 246.24 120.01 246.96 122.48C247.68 124.96 248.76 127.34 249.64 129.78C249.85 130.35 249.86 130.99 249.71 131.67C247.92 125.77 243.31 120.85 243.8 114.2C244.08 110.37 245.02 106.93 248.76 104.84C251.01 103.58 250.75 101.06 251.16 98.87C251.71 95.94 252.32 93 253.27 90.19C253.95 88.18 255.62 86.95 257.96 87.17C260.19 87.39 261.35 88.92 262.1 90.81C262.57 91.99 262.86 93.23 263.29 94.61L263.28 94.62ZM326.87 112.27C328.05 112.56 328.79 112.13 329.03 110.89C329.14 110.32 329.34 109.75 329.55 109.2C330.55 106.52 330.57 106.47 327.86 105.62C325.5 104.88 323.46 103.66 322.41 101.44C321.7 99.94 320.88 99.65 319.4 99.89C308.76 101.6 298.06 102.14 287.32 100.96C284.39 100.64 281.47 100.18 278.54 99.93C277.9 99.88 276.71 100.35 276.6 100.78C275.81 104.07 274.75 107.35 275.87 110.81C276.25 112 276.73 112.65 278.09 112.45C280.48 112.09 282.88 111.81 285.27 111.51C295.02 110.3 304.81 110.31 314.59 110.95C318.7 111.22 322.79 111.81 326.88 112.26L326.87 112.27Z" fill="#12263A"/>
  <path d="M127.85 366.75C127.85 365.55 127.85 364.34 127.85 363.14C127.83 353.94 127.8 344.74 127.8 335.54C127.8 299.25 127.8 262.95 127.83 226.66C127.83 220.88 127.97 215.11 128.03 209.33C128.03 208.28 127.65 207.78 126.49 208.31C122.1 210.32 117.61 210.43 113.05 208.94C111.03 208.28 110.81 208.58 111.16 210.65C111.46 212.45 111.66 214.28 111.67 216.1C111.82 239.17 112.18 262.24 111.97 285.31C111.81 302.24 111.01 319.16 110.26 336.08C109.82 345.98 108.92 355.85 108.22 365.74C108.18 366.25 108.06 366.76 107.9 367.76C107.9 364.36 107.85 361.47 107.9 358.59C108.39 332.1 108.92 305.61 109.38 279.12C109.75 258.09 109.97 237.05 110.4 216.02C110.5 211.35 109.43 207.18 106.95 203.3C106.83 203.11 106.75 202.88 106.66 202.67C106.64 202.63 106.68 202.56 106.8 202.12C107.65 203.48 108.41 204.6 109.07 205.77C109.67 206.84 110.43 207.4 111.75 207.39C116.53 207.32 121.31 207.39 126.08 207.31C127.02 207.3 127.96 206.92 129.09 206.66C129.09 209.93 129.02 213.5 129.1 217.06C129.43 231.04 129.82 245.02 130.18 259C130.24 261.35 130.42 261.54 132.72 261.54C139.62 261.54 146.52 261.54 153.42 261.55C153.87 261.55 154.31 261.6 154.76 261.63C154.79 261.82 154.83 262.01 154.86 262.21C152.56 262.75 150.29 263.49 147.97 263.79C142.91 264.44 137.86 264.34 132.86 263.09C130.58 262.52 130.13 263 130.22 265.32C130.31 267.53 130.27 269.74 130.28 271.94C130.28 272.65 130.26 273.36 130.31 274.06C130.45 276.16 130.95 276.29 133.01 276C137.73 275.34 142.49 274.94 147.23 274.45C147.82 274.39 148.42 274.49 149 274.39C150.96 274.05 152.17 274.84 153.16 276.56C156.92 283.06 162.74 286.97 169.69 289.39C170.13 289.54 170.59 289.67 171.04 289.82C171.81 290.09 172.57 290.39 173.32 291.06C172.67 291.06 172.01 291.14 171.38 291.05C164.99 290.09 159.23 287.78 154.57 283.11C153.84 282.38 152.87 281.89 152.13 281.16C151.76 280.8 151.61 280.17 151.48 279.63C150.98 277.57 150.3 276.98 148.21 276.95C143.14 276.88 138.06 276.82 132.99 276.76C130.78 276.73 130.47 277.06 130.44 279.32C130.22 298.2 130.08 317.08 129.75 335.96C129.59 345.22 129.09 354.47 128.71 363.72C128.67 364.74 128.43 365.76 128.28 366.77C128.13 366.77 127.98 366.76 127.83 366.75H127.85Z" fill="#12263A"/>
  <path d="M346.89 147.5C348.31 147.5 349.27 147.53 350.23 147.5C355.83 147.31 361.43 147.11 367.03 146.89C369.41 146.8 370.34 147.75 369.18 149.83C367.51 152.84 365.39 155.62 363.31 158.38C360.69 161.85 357.45 164.94 356.8 169.53C356.37 172.57 356.07 175.62 355.72 178.67C355.37 181.72 355.05 184.77 354.7 187.81C354.44 190.1 354.12 190.32 351.81 190.35C345.44 190.43 339.07 190.58 332.7 190.64C316.43 190.78 300.17 190.89 283.9 191C272.94 191.08 261.97 191.21 251.01 191.19C220.44 191.13 189.88 191.02 159.31 190.9C151.7 190.87 144.09 190.74 136.49 190.64C127.13 190.52 117.78 190.44 108.42 190.27C89.0798 189.92 69.7398 189.53 50.4098 189.16C49.4198 189.14 48.4198 189.16 47.3998 188.99C47.6698 188.95 47.9398 188.87 48.2098 188.86C66.3798 188.78 84.5498 188.66 102.72 188.64C149.61 188.61 196.5 188.63 243.4 188.62C252.36 188.62 261.32 188.59 270.28 188.59C289.92 188.59 309.56 188.6 329.2 188.61C336.21 188.61 343.23 188.56 350.24 188.62C352.03 188.64 352.89 188.1 353.1 186.2C353.64 181.28 354.53 176.39 354.94 171.46C355.33 166.77 357.63 163.16 360.49 159.69C362.99 156.65 365.44 153.55 367.68 150.31C368.91 148.53 368.47 148.02 366.22 148.01C360.03 147.97 353.84 147.95 347.66 147.91C347.56 147.91 347.47 147.81 346.89 147.48V147.5Z" fill="#12263A"/>
  <path d="M327.69 203.13C328.64 204.53 329.65 205.9 330.53 207.35C331.15 208.37 331.76 208.65 332.98 208.23C338.93 206.21 344.88 206.15 350.76 208.58C351.86 209.03 352.5 208.89 352.69 207.51C352.97 205.49 353.44 203.49 354.21 201.49C354.18 202.01 354.15 202.53 354.12 203.06C353.94 206.46 353.57 209.86 353.62 213.26C353.93 233.32 354.46 253.37 354.69 273.43C354.9 291.25 354.95 309.07 354.84 326.88C354.77 338.44 354.27 350 353.95 361.56C353.94 362.03 353.9 362.49 353.68 362.96C353.56 360.82 353.37 358.67 353.34 356.53C353.03 336.35 352.62 316.18 352.47 296C352.29 270.69 352.31 245.38 352.27 220.08C352.27 217.13 352.42 214.18 352.55 211.24C352.61 209.89 352.09 209.32 350.71 209.33C345.11 209.38 339.5 209.37 333.9 209.38C332.46 209.38 332.09 210.03 332.75 211.28C334.1 213.87 334.39 216.64 334.4 219.52C334.49 243.65 334.88 267.78 334.65 291.91C334.46 312.73 333.6 333.54 332.98 354.36C332.81 360.14 332.4 365.91 332.09 371.68C332.06 372.26 331.96 372.84 331.53 373.45C331.47 372.77 331.36 372.08 331.36 371.4C331.49 353.94 331.62 336.47 331.77 319.01C331.88 306.45 331.99 293.88 332.13 281.32C332.35 261.28 332.42 241.23 332.96 221.19C333.11 215.42 331.34 210.6 328.61 205.85C328.15 205.05 327.74 204.23 327.31 203.42C327.44 203.33 327.58 203.24 327.71 203.15L327.69 203.13Z" fill="#12263A"/>
  <path d="M185.65 301.71C185.63 302.88 185.17 304.31 185.68 305.16C186.77 306.98 188.45 308.4 190.76 308.6C192.08 308.72 192.71 307.91 192.87 306.72C193.03 305.49 193.06 304.25 193.23 303.02C193.32 302.37 193.6 301.75 193.79 301.11C193.96 301.11 194.14 301.11 194.31 301.11C194.61 302.73 194.81 304.38 195.27 305.96C195.49 306.71 196.07 307.48 196.7 307.97C199.97 310.49 202.28 313.69 203.48 317.61C204.54 321.06 204.38 324.54 203.76 328.11C203.31 330.7 203.43 333.4 203.45 336.05C203.45 336.73 203.93 337.5 204.4 338.05C207.76 342.04 209.24 346.88 209.21 351.83C209.19 355.68 210.67 359.21 210.58 362.99C210.57 363.52 211.16 364.09 211.55 364.59C212.07 365.27 212.65 365.89 213.03 366.71C211.08 365.77 208.84 365.22 208.36 362.6C207.57 358.26 205.78 354.32 203.83 350.38C202.57 347.85 202 344.97 201.12 342.25C201.31 342.15 201.49 342.06 201.68 341.96C203.6 345.2 205.51 348.44 207.43 351.67C207.65 351.59 207.87 351.51 208.09 351.44C208.01 350.68 208.02 349.89 207.83 349.16C206.39 343.54 203.09 339.24 198.42 335.9C194.96 333.43 191.59 330.75 187.25 330.06C184.68 329.66 182.03 328.83 179.48 330.29C175.62 332.5 174.05 336.02 175.21 340.27C175.86 342.65 176.75 344.96 177.42 347.41C176.93 346.62 176.37 345.87 175.95 345.04C174.25 341.72 172.58 338.38 173.56 334.44C174.24 331.71 176.18 329.94 178.18 328.19C178.57 327.85 179.18 327.51 179.24 327.1C179.78 323.89 180.21 320.66 180.36 317.28C178 320.12 174.85 322.23 173.59 325.96C173.04 324.07 172.54 322.16 173.78 320.66C176.05 317.91 178.58 315.38 181.18 312.57C183.05 315.01 183.35 317.5 182.98 319.99C182.72 321.76 181.96 323.47 181.26 325.15C180.59 326.77 180.64 327.07 182.33 327.08C185.72 327.1 189.03 327.46 192.22 328.68C193.23 329.07 193.72 328.68 193.6 327.45C193.37 324.94 193.25 322.41 193.19 319.89C193.16 318.61 193.76 317.56 195.09 317.23C196.42 316.9 197.36 317.6 198.05 318.67C199.04 320.21 199.54 321.84 198.89 323.91C198.01 322.84 197.25 321.91 196.2 320.63C195.92 321.55 195.72 321.95 195.69 322.37C195.52 324.49 195.34 326.61 195.3 328.73C195.29 329.43 195.45 330.4 195.91 330.8C197.95 332.54 200.13 334.12 202.61 336.03C202.61 334.99 202.66 334.41 202.61 333.83C202.32 331.03 201.73 328.23 201.74 325.43C201.75 319.88 200.17 314.85 197.42 310.13C196.35 308.29 195.77 308.28 194.37 309.9C192.03 312.6 186.77 311.31 185.33 307.67C185.16 307.23 185.07 306.76 184.86 306.34C184.5 305.6 184.08 305.45 183.18 305.81C180 307.07 178.13 309.52 176.53 312.35C175.61 313.99 174.65 315.64 173.49 317.12C171.67 319.46 170.67 322.1 169.92 324.93C169.54 326.34 169.69 327.43 170.5 328.57C171.21 329.57 171.82 330.65 172.52 331.76C170.07 330.96 167.71 327.65 167.81 325.28C167.98 321.38 169.39 317.96 171.67 314.83C172.88 313.16 174.02 311.43 175.15 309.71C176.69 307.37 178.59 305.63 181.44 304.9C182.51 304.63 183.36 303.48 184.31 302.74C184.74 302.4 185.18 302.06 185.61 301.72L185.65 301.71Z" fill="#12263A"/>
  <path d="M270.94 204.88C267.72 211.39 269.63 218.2 269.81 224.87C270 232.18 270.63 239.47 271.06 246.77C271.5 254.19 272 261.6 272.38 269.03C272.93 279.66 273.42 290.29 273.9 300.93C274.54 314.89 275.16 328.86 275.75 342.83C276 348.84 276.15 354.85 276.34 360.87C276.41 363.19 276.73 363.52 279.04 363.52C290.64 363.54 302.25 363.54 313.85 363.57C315.85 363.57 317.86 363.62 319.86 363.72C321.46 363.8 322.02 363.11 322.06 361.53C322.28 353.22 322.58 344.91 322.86 336.59C322.89 335.77 322.97 334.96 323.03 334.15C323.18 334.15 323.33 334.15 323.47 334.15C323.47 335.5 323.47 336.86 323.47 338.21C323.47 346.47 323.45 354.73 323.53 362.99C323.55 364.67 323.04 365.22 321.33 365.23C307.71 365.3 294.08 365.45 280.46 365.58C279.1 365.59 277.74 365.6 276.4 365.76C274.9 365.93 274.27 365.46 274.2 363.87C273.77 352.55 273.28 341.24 272.79 329.93C271.86 308.48 270.86 287.03 270.01 265.58C269.35 249.14 268.86 232.69 268.32 216.24C268.25 214.18 268.06 212.07 268.42 210.06C268.74 208.22 269.72 206.5 270.41 204.73C270.58 204.79 270.76 204.85 270.93 204.91L270.94 204.88Z" fill="#12263A"/>
  <path d="M64.1798 111.81C67.0598 111.42 69.9398 111 72.8298 110.64C82.2198 109.47 91.5498 110.02 100.86 111.51C103.7 111.97 103.81 111.96 104.19 109.25C104.72 105.52 106.33 102.45 109.17 99.96C110.1 99.15 110.85 98.13 111.72 97.16C111.26 96.81 111.12 96.61 111 96.62C108.07 96.83 105.13 97 102.21 97.37C101.69 97.44 100.95 98.33 100.89 98.91C100.72 100.47 100.02 101.09 98.4898 101.04C87.8198 100.73 77.1498 100.45 66.4898 100.14C65.0198 100.1 63.5098 100.05 62.0998 99.68C60.6198 99.29 59.2598 98.46 57.8098 97.91C56.6698 97.49 55.4798 97.21 54.4098 96.9C55.8098 96.41 57.2498 96.35 58.7298 97.43C59.4298 97.94 60.4798 98.13 61.3798 98.15C66.3898 98.26 71.4098 98.23 76.4198 98.33C82.9698 98.46 89.5098 98.64 96.0498 98.87C97.5898 98.92 98.7798 98.77 99.4398 97.09C99.9698 95.75 101.3 95.63 102.6 95.67C104.96 95.75 107.32 95.81 109.67 95.83C112.59 95.86 112.56 95.78 112.15 92.96C111.95 91.6 111.87 90.09 112.25 88.79C113.51 84.44 118.31 83.3 121.41 86.63C122.49 87.79 123.12 89.39 123.92 90.81C124.3 91.49 124.61 92.21 124.95 92.91C125.12 92.86 125.29 92.82 125.47 92.77C125.43 92.12 125.41 91.47 125.35 90.82C125.14 88.55 125.35 86.43 127.39 84.95C128.93 83.83 130.54 84.06 131.14 85.83C132 88.36 132.78 91.02 132.96 93.67C133.27 98.25 130.97 101.72 128.73 103.71C129.53 101.8 130.64 99.74 131.27 97.53C132.25 94.11 131.68 90.74 130.07 87.58C129.83 87.1 129.14 86.4 128.89 86.48C128.37 86.65 127.71 87.24 127.63 87.74C127.45 88.87 127.53 90.06 127.61 91.21C127.67 92.14 128.18 93.16 127.94 93.97C127.64 94.98 126.91 96.35 126.09 96.58C125.29 96.8 123.83 96.02 123.23 95.24C122.36 94.11 122.05 92.57 121.41 91.24C120.98 90.35 120.51 89.44 119.87 88.69C118.97 87.64 117.75 87.11 116.37 87.66C114.95 88.23 114.67 89.54 114.68 90.89C114.68 91.65 114.87 92.41 115 93.16C115.54 96.29 114.55 98.73 112.11 100.84C110.4 102.31 108.96 104.15 107.66 106.01C106.98 106.97 106.69 108.3 106.53 109.51C105.86 114.6 105.29 119.7 104.7 124.79C104.44 127.06 104.74 127.51 106.45 127.68C108.45 127.87 109.83 126.93 109.95 125.08C110.06 123.29 109.97 121.49 109.97 119.69C110.26 119.69 110.55 119.68 110.84 119.67C110.84 121.9 111.11 124.17 110.72 126.33C110.54 127.31 109.17 128.6 108.15 128.79C106.65 129.08 104.96 128.63 103.42 128.22C103.1 128.14 102.94 126.85 102.98 126.13C103.16 122.48 103.43 118.83 103.66 115.18C103.8 112.94 103.46 112.63 101.21 112.63C89.7098 112.65 78.1998 112.65 66.6998 112.63C65.8598 112.63 65.0298 112.43 64.1898 112.32C64.1898 112.14 64.1898 111.95 64.1898 111.77L64.1798 111.81Z" fill="#12263A"/>
  <path d="M12.0398 384.84C10.9198 383.56 11.0298 381.78 12.4698 380.27C14.0398 378.61 15.6898 376.93 17.5798 375.69C21.6598 373.02 23.6998 369.55 23.7398 364.56C23.7998 357.25 24.4398 349.95 24.6098 342.64C24.9598 328.19 25.2898 313.74 25.3898 299.28C25.5898 270.85 25.6498 242.42 25.6898 213.98C25.6898 209.9 25.3198 205.8 23.7098 201.88C24.1898 202.71 24.7098 203.51 25.1298 204.36C25.6498 205.43 26.3798 205.89 27.6298 205.87C32.0498 205.8 36.4698 205.84 40.8998 205.87C41.5098 205.87 42.1098 205.97 42.7198 206.02C42.7498 206.18 42.7698 206.33 42.7998 206.49C42.2498 206.75 41.7198 207.06 41.1498 207.25C36.9398 208.65 32.7298 208.85 28.4798 207.37C26.3398 206.63 26.1798 206.88 26.3698 209.13C26.7698 213.95 27.2698 218.77 27.3798 223.6C27.7398 240.65 28.1998 257.7 28.1398 274.74C28.0698 295.26 27.6598 315.79 27.0698 336.3C26.7798 346.37 25.6298 356.42 25.1498 366.49C24.9298 370.97 22.5898 373.77 19.1998 376.11C18.3798 376.68 17.5098 377.21 16.7498 377.85C14.5398 379.72 11.4898 381.03 12.0498 384.86L12.0398 384.84Z" fill="#12263A"/>
  <path d="M224.19 49.61C228.13 52.59 232.55 53.7 237.36 52.82C239 52.52 240.6 51.79 242.09 51C242.56 50.75 242.98 49.52 242.77 49.02C240.84 44.47 237.73 40.94 233.18 38.84C229.85 37.3 226.77 37.46 224.24 40.6C224.09 40.55 223.94 40.51 223.79 40.46C223.7 39.28 223.62 38.11 223.53 36.93C223.37 34.85 223.56 32.66 222.96 30.72C222.22 28.33 219.37 27.55 217.24 28.65C216.09 29.24 215.81 30.03 216.06 31.25C217.74 39.55 215.95 46.94 210.03 53.13C208.14 55.11 206.08 56.94 204.1 58.83C203.96 58.69 203.81 58.56 203.67 58.42C205.01 56.93 206.28 55.38 207.69 53.96C212.93 48.7 215.3 42.45 214.48 35.02C214.01 30.82 212.37 27.21 209.42 24.18C208.23 22.96 206.98 21.77 205.92 20.44C203.98 18.01 204.06 15.8 205.96 13.37C206.47 12.72 207.03 12.1 207.42 11.38C208.36 9.66003 207.46 8.00003 205.51 8.12003C204.35 8.19003 203.22 8.87003 202.09 9.34003C199.83 10.27 197.67 11.72 195.33 12.08C191.92 12.6 189.95 10.82 189.05 7.48003C188.76 6.40003 188.52 5.28003 188.04 4.29003C186.63 1.35003 184.27 1.18003 182.59 3.94003C181.03 6.50002 179.66 9.17003 178.24 11.81C177 14.13 174.97 14.8 172.48 13.65C172.54 13.56 172.62 13.39 172.67 13.4C176.03 13.89 177.12 11.67 178.11 9.07003C178.94 6.88003 179.97 4.74003 181.13 2.70003C183.09 -0.729973 187.17 -0.869974 189.33 2.41003C190.12 3.61003 190.7 5.02003 191.11 6.41003C192 9.46003 194.14 10.57 197.05 9.19003C198.48 8.51003 199.78 7.56003 201.18 6.82003C202.16 6.30003 203.17 5.70003 204.23 5.53003C206.58 5.15002 208.78 5.63003 210.03 7.93003C211.26 10.21 210.47 12.23 208.93 14.11C206.59 16.96 206.65 17.42 209.05 20.24C210.84 22.34 212.58 24.48 214.31 26.64C214.93 27.42 215.56 27.69 216.41 27.07C218.83 25.3 221.26 25.4 223.61 27.13C226.09 28.95 226.63 31.52 226.09 34.39C225.89 35.48 225.5 36.53 225.16 37.78C225.61 37.78 226.01 37.91 226.23 37.76C228.81 36.05 231.55 36.32 234.22 37.27C239.51 39.15 243.21 42.81 245.4 47.94C246.52 50.56 245.66 52.5 243.08 53.71C236.86 56.62 231.06 55.76 225.62 51.77C224.95 51.28 224.45 50.55 223.87 49.93C223.98 49.83 224.09 49.73 224.21 49.63L224.19 49.61Z" fill="#12263A"/>
  <path d="M245.11 198.89C245.21 201.38 246.2 203.29 248.17 204.83C249.06 205.53 249.64 206.65 250.32 207.61C250.9 208.43 251.46 208.72 252.54 208.29C256.69 206.64 260.92 206.51 265.13 208.11C265.71 208.33 266.25 208.66 266.77 209.37C266.18 209.46 265.6 209.62 265.01 209.61C261.59 209.61 258.17 209.55 254.75 209.54C254.1 209.54 253.38 209.46 252.83 209.72C252.36 209.95 251.72 210.66 251.78 211.07C254.8 231.41 253.89 251.91 254.17 272.36C254.36 285.93 254.25 299.5 253.97 313.07C253.67 327.93 253.03 342.79 252.52 357.65C252.49 358.58 252.33 359.51 252.23 360.45C252.07 360.45 251.91 360.45 251.74 360.45C251.74 357.78 251.74 355.12 251.74 352.45C251.7 328.2 251.65 303.94 251.62 279.69C251.62 274.17 251.62 268.65 251.64 263.12C251.66 252.93 251.77 242.75 251.68 232.56C251.63 226.61 251.39 220.66 251.01 214.72C250.75 210.69 249.42 207.02 246.33 204.14C244.82 202.73 244.73 200.82 245.09 198.89H245.11Z" fill="#12263A"/>
  <path d="M44.9998 203.87C45.2998 211.47 45.6198 219.07 45.8798 226.67C46.1398 234.28 46.3598 241.88 46.5598 249.49C46.7598 257.08 47.0098 264.67 47.0298 272.26C47.0598 279.79 46.8098 287.32 46.7298 294.85C46.6498 302.46 46.6898 310.07 46.5598 317.68C46.4298 325.29 46.2098 332.9 45.9398 340.5C45.6698 348.1 45.2798 355.69 44.9498 363.28C44.7798 363.28 44.6098 363.28 44.4398 363.27V203.84C44.6298 203.84 44.8098 203.86 44.9998 203.87Z" fill="#12263A"/>
  <path d="M58.6298 359.51C58.5598 358.89 58.4498 358.27 58.4398 357.65C57.9198 335.3 57.3998 312.94 56.8798 290.59C56.8498 289.18 56.7498 287.76 56.7698 286.35C56.7998 283.87 57.5998 283.03 60.0898 283.04C69.9998 283.08 79.9098 283.16 89.8198 283.23C93.0598 283.25 96.3098 283.29 99.5498 283.31C102.21 283.33 102.94 283.92 102.86 286.49C102.51 297.81 102.11 309.13 101.69 320.45C101.64 321.78 101.3 323.1 100.79 324.4C100.79 322.64 100.79 320.87 100.79 319.11C100.72 308.84 100.66 298.58 100.58 288.31C100.56 285.64 100.52 285.58 97.9297 285.58C85.8398 285.58 73.7398 285.6 61.6498 285.63C59.6898 285.63 59.4398 285.96 59.4298 288.32C59.3998 308.68 59.3798 329.03 59.3598 349.39C59.3598 352.74 59.3598 356.1 59.3598 359.45C59.1198 359.47 58.8698 359.49 58.6298 359.51Z" fill="#12263A"/>
  <path d="M137.95 253.55C138.3 251.18 138.5 249.02 138.94 246.9C141.33 235.33 146.22 225.13 155.55 217.49C160.75 213.23 166.76 210.53 173.22 208.9C185.27 205.87 197.23 206.57 208.97 210.39C222.97 214.94 232.78 224.23 238.39 237.78C239.96 241.56 240.79 245.64 241.91 249.59C242.05 250.07 241.93 250.63 241.93 251.56C241.1 248.9 240.44 246.59 239.67 244.33C234.79 230.05 225.63 219.63 211.53 213.96C201.48 209.92 190.97 209.03 180.25 210.23C171.26 211.24 163.08 214.33 156 220.04C149.65 225.16 145.23 231.75 142.35 239.3C140.63 243.83 139.45 248.57 137.93 253.53L137.95 253.55Z" fill="#12263A"/>
  <path d="M21.0098 95.53C20.0398 95.14 19.0998 94.64 18.0998 94.42C17.6498 94.32 16.9098 94.69 16.6098 95.08C16.4098 95.35 16.5898 96.13 16.8598 96.49C17.3298 97.15 17.9298 97.77 18.5898 98.22C27.2798 104.17 29.4298 112.73 28.4098 122.58C28.2298 124.28 27.9898 125.98 27.9998 127.68C27.9998 129.95 29.0998 131.7 31.1298 132.86C31.0398 133 30.9498 133.14 30.8598 133.28C30.0498 132.86 29.1898 132.51 28.4498 131.99C26.9498 130.95 26.5698 131 26.0398 132.77C25.2898 135.25 24.6598 137.77 23.9498 140.26C23.5498 141.68 23.1398 143.09 22.6398 144.48C22.1698 145.79 22.7198 146.27 23.9198 146.26C24.7998 146.26 25.6798 146.09 26.5598 146.06C33.7498 145.82 40.9398 145.58 48.1298 145.36C50.4298 145.29 50.5598 145.12 50.6898 142.79C51.2298 132.72 51.7998 122.65 52.3698 112.58C52.3898 112.24 52.4598 111.9 52.8598 111.51C52.9298 111.97 53.0398 112.42 53.0498 112.88C53.1498 123.85 53.2198 134.83 53.3598 145.8C53.3798 147.47 52.8098 148.09 51.0998 148.08C38.7098 148.02 26.3198 148.03 13.9298 148.02C13.3198 148.02 12.7098 147.93 12.1098 147.88C12.1098 147.72 12.0898 147.55 12.0798 147.39C13.3298 147.19 14.5798 146.98 15.8298 146.81C16.5898 146.71 17.3598 146.71 18.1198 146.65C21.1298 146.42 21.1898 146.39 21.1098 143.42C21.0198 140.28 21.6498 137.31 23.2398 134.6C23.9798 133.34 24.9998 132.25 25.7898 131.02C26.1498 130.47 26.4998 129.76 26.4898 129.13C26.4598 126.01 26.1998 122.89 26.2198 119.78C26.2698 111.87 23.6398 105.26 17.3198 100.26C16.4598 99.58 15.7598 98.66 15.1398 97.74C14.2798 96.47 14.0798 95.12 15.2898 93.87C16.5398 92.58 17.9798 92.77 19.3398 93.51C20.0998 93.92 20.6698 94.67 21.3298 95.27C21.2198 95.35 21.1098 95.44 20.9898 95.52L21.0098 95.53Z" fill="#12263A"/>
  <path d="M289.38 208.23C293.51 208.23 297.67 207.97 301.77 208.33C304.28 208.55 306.82 209.5 309.16 210.54C312.5 212.02 314.51 214.86 315.77 218.25C317.97 224.15 317.81 230.3 317.72 236.43C317.64 242.27 317.39 248.1 317.21 253.94C317.14 256.09 316.8 256.55 314.64 256.69C309.06 257.05 303.48 257.53 297.89 257.56C294.17 257.59 290.47 256.73 287.25 254.71C282.78 251.9 280.81 247.49 280.05 242.46C279.09 236.13 279.24 229.76 279.73 223.4C279.87 221.52 279.98 219.64 280.27 217.74C280.36 219.31 280.45 220.88 280.54 222.45C280.88 228.57 281.18 234.69 281.61 240.8C281.71 242.24 282.25 243.67 282.63 245.08C283.03 246.56 283.68 247.11 285.29 246.18C287.58 244.85 290.31 245.96 291.07 248.33C291.25 248.89 291.18 249.53 291.24 250.45C290.04 249.72 289.22 248.96 288.26 248.72C287.5 248.53 286.58 248.97 285.74 249.12C286 249.81 286.08 250.7 286.56 251.15C289.3 253.72 292.74 255.04 296.38 255.05C301.78 255.06 307.19 254.53 312.59 254.21C313.78 254.14 314.41 253.44 314.49 252.28C314.63 250.28 314.81 248.28 314.84 246.28C314.94 239.15 315.13 232.02 314.97 224.9C314.89 221.56 314.15 218.21 312.07 215.39C309.38 211.73 305.55 210.03 301.2 209.48C297.82 209.05 294.39 208.95 290.99 208.69C290.44 208.65 289.9 208.59 289.35 208.54C289.35 208.43 289.36 208.33 289.37 208.22L289.38 208.23Z" fill="#12263A"/>
  <path d="M231.63 385.92C232.53 385.92 233.45 385.79 234.32 385.94C236.92 386.4 239.56 386.78 242.08 387.54C244.4 388.24 246.23 389.75 246.8 392.43C246.97 392.44 247.14 392.45 247.31 392.46C247.7 391.83 248.2 391.24 248.47 390.56C250.83 384.71 253.04 378.75 257.27 373.94C259.02 371.95 261.28 370.32 263.55 368.9C265.82 367.48 268.65 367.96 270.56 369.88C273.51 372.84 276.02 376.18 276.52 380.46C276.7 382.04 276.17 383.77 275.67 385.34C275.18 386.9 274.38 388.37 273.63 389.84C272.95 391.17 271.97 392.24 270.31 391.92C269.63 391.79 269.04 391.21 268.6 390.62C269.46 390.71 270.61 391.18 271.13 390.8C271.94 390.2 272.41 389.06 272.88 388.07C273.31 387.17 273.4 386.1 273.89 385.25C275.07 383.2 274.91 381.2 273.96 379.16C272.65 376.37 271.12 373.73 268.6 371.81C267.15 370.71 265.73 370.57 264.02 371.51C259.18 374.16 256.33 378.55 253.68 383.1C251.46 386.91 249.31 390.79 247.42 394.77C246.48 396.76 246.4 399.14 245.55 401.18C244.67 403.27 243.54 405.33 242.13 407.09C240.04 409.69 237.62 409.44 235.8 406.66C234.29 404.34 232.99 401.89 231.48 399.57C227.26 393.09 221.83 391.48 214.9 394.95C211.93 396.44 209.27 398.56 206.47 400.4C205.97 400.73 205.5 401.13 205.02 401.5C204.77 401.24 204.53 400.98 204.28 400.71C205.05 400.21 205.92 399.81 206.59 399.2C209.42 396.59 212.43 394.25 216.02 392.76C222.85 389.92 228.64 391.46 233 397.46C234.66 399.74 236.01 402.24 237.57 404.59C238.68 406.27 239.41 406.32 240.67 404.72C243.19 401.54 244.61 397.91 244.68 393.81C244.72 391.39 243.31 389.86 241.31 389.09C238.58 388.03 235.7 387.34 232.88 386.51C232.46 386.39 232.03 386.32 231.6 386.23C231.6 386.13 231.62 386.03 231.62 385.92H231.63Z" fill="#12263A"/>
  <path d="M229.51 365.01C228.18 351.07 227.41 337.09 227.61 323.1C227.81 309.21 228.53 295.33 229.04 280.84C221.23 288.07 212.77 292.39 202.34 291.57C204.74 290.96 207.18 290.45 209.55 289.71C216.98 287.37 223.11 282.97 228.39 277.34C229.57 276.08 230.76 275.44 232.55 275.58C237.37 275.95 242.2 276.16 247.02 276.45C247.34 276.47 247.66 276.57 248.02 277.02C247.44 277.16 246.87 277.4 246.28 277.43C242.24 277.65 238.19 277.87 234.15 278C230.73 278.11 230.03 278.77 230.04 282.21C230.13 301.97 230.24 321.72 230.29 341.48C230.31 348.73 230.17 355.99 230.1 363.24C230.1 363.84 230 364.44 229.95 365.04C229.81 365.04 229.66 365.03 229.52 365.02L229.51 365.01Z" fill="#12263A"/>
  <path d="M266.54 413.42C267.47 416.48 268.52 419.5 269.28 422.6C269.68 424.22 268.94 424.78 267.29 424.48C265.78 424.2 264.27 423.9 262.8 423.48C258.81 422.36 254.76 422.46 250.68 422.6C222.43 423.58 194.18 423.51 165.93 422.56C157.32 422.27 148.72 421.83 140.12 421.45C139.6 421.43 139.09 421.35 138.54 420.94C139.13 420.9 139.72 420.82 140.31 420.82C164.03 420.8 187.74 420.78 211.46 420.76C224.03 420.76 236.59 420.86 249.16 420.69C254.93 420.61 260.56 421.06 266.09 422.78C267.75 423.3 268.14 422.91 267.78 421.2C267.38 419.3 266.84 417.43 266.37 415.54C266.21 414.89 266.06 414.24 265.91 413.58C266.12 413.52 266.34 413.46 266.55 413.4L266.54 413.42Z" fill="#12263A"/>
  <path d="M166.3 347.56C164.57 349.89 162.71 352.15 161.13 354.58C158.98 357.91 157.74 361.41 158.41 365.62C158.77 367.88 157.8 370.34 157.47 372.72C157.37 373.42 157.4 374.15 157.37 374.86C158.09 374.8 158.87 374.89 159.53 374.66C161.12 374.09 162.61 373.12 164.24 372.76C166.91 372.17 169.09 373.77 171.36 374.88C178.78 378.5 186.56 380.68 194.76 378.6C198.03 377.77 200.97 375.59 204.03 373.96C206.95 372.41 209.79 370.58 213.32 371.19C214.59 371.41 215.8 371.93 217.05 372.22C218.77 372.62 220.49 373.12 222.23 373.23C225.63 373.43 227.55 371.39 226.62 368.15C225.59 364.56 224.23 361 222.51 357.69C220.82 354.43 218.49 351.49 216.4 348.34C216.66 348.5 216.96 348.61 217.17 348.82C221.77 353.5 225.51 358.78 227.6 365.04C228.21 366.88 228.4 368.98 228.28 370.93C228.13 373.39 226.26 375.13 223.79 375.06C221 374.98 218.13 374.69 215.46 373.92C212.69 373.13 210.24 373.26 207.81 374.65C205.05 376.23 202.36 377.93 199.57 379.48C194.81 382.12 189.64 382.17 184.41 381.69C178.24 381.12 172.66 378.83 167.32 375.83C165.82 374.99 164.38 374.94 162.79 375.78C161.45 376.49 159.99 377.07 158.51 377.42C155.64 378.09 153.7 375.99 154.84 373.31C156.22 370.09 156.71 366.87 156.57 363.35C156.37 358.16 159.48 354.27 162.7 350.6C163.72 349.43 164.95 348.45 166.08 347.38C166.14 347.45 166.21 347.52 166.27 347.59L166.3 347.56Z" fill="#12263A"/>
  <path d="M326.2 162.11C325.54 162.14 324.87 162.21 324.21 162.21C309.94 162.21 295.67 162.25 281.39 162.19C279.45 162.19 278.5 162.86 278.01 164.72C277.52 166.6 276.69 168.38 276.11 170.23C275.61 171.81 276.1 172.34 277.73 172.09C288.97 170.41 300.28 169.98 311.61 170.57C317.18 170.86 322.73 171.57 328.29 172.08C328.29 172.27 328.29 172.46 328.29 172.65C327.76 172.71 327.22 172.84 326.69 172.84C310.24 172.83 293.78 172.82 277.33 172.75C275.81 172.75 275.19 173.41 275 174.77C274.51 178.32 274.01 181.87 273.48 185.7C269.97 179.12 275.24 159.98 283.29 150.32C283.16 150.88 283.1 151.46 282.9 151.99C282.02 154.37 281.09 156.73 280.2 159.1C279.54 160.86 280 161.55 281.78 161.23C291.89 159.46 302.08 159.31 312.28 159.95C316.94 160.24 321.57 161 326.22 161.54C326.22 161.72 326.22 161.91 326.22 162.09L326.2 162.11Z" fill="#12263A"/>
  <path d="M133.13 78.5C134.06 78.39 134.99 78.17 135.92 78.18C140.18 78.24 142.34 75.37 144.15 72.19C144.67 71.28 144.47 69.96 144.56 68.82C144.58 68.54 144.3 68.15 144.42 67.98C146.18 65.24 145.76 61.23 149.28 59.51C150.33 59 151.38 58.39 152.5 58.11C154.71 57.55 155.9 56.15 156.42 54.03C157.28 50.6 158.14 47.17 159 43.75C159.09 43.38 159.21 43.01 159.47 42.67C159.47 47.46 159.03 52.18 157.57 56.76C156.92 58.8 155.33 59.92 153.4 60.53C150.28 61.52 148.43 63.51 147.95 66.79C147.38 70.67 145.82 74.01 142.5 76.33C142.33 76.45 142.24 76.69 141.87 77.23C142.85 77.27 143.56 77.41 144.25 77.32C149.34 76.68 154.42 76 159.5 75.34C162.58 74.94 163.17 75.33 164.05 78.35C165.85 84.49 173.12 86.81 178.14 82.83C179.29 81.92 180.28 80.73 181.54 80.04C185.13 78.08 188.4 79.32 191.4 81.51C192.44 82.27 193.31 83.26 194.21 84.19C198.07 88.2 203.1 88.18 206.98 84.11C207.74 83.31 208.44 82.45 209.27 81.72C208 85.56 205.13 87.57 201.39 88.63C198.65 89.41 196.33 88.79 194.16 86.97C192.19 85.32 190.22 83.59 188 82.33C185.19 80.75 183.49 81.17 181.23 83.56C179.01 85.91 176.34 87.23 173.17 87.51C168.3 87.94 163.47 84.62 161.89 79.6C161.38 77.99 160.56 77.66 159.05 77.76C152.41 78.21 145.76 78.61 139.11 78.96C137.12 79.07 135.13 78.98 133.13 78.98C133.13 78.82 133.13 78.66 133.13 78.5Z" fill="#12263A"/>
  <path d="M62.4298 221.03C62.6098 225.3 62.6998 229.57 63.0098 233.83C63.2598 237.29 63.5698 240.77 64.2298 244.17C65.6398 251.46 70.7898 255.94 78.1998 256.04C83.3598 256.11 88.5398 255.55 93.7098 255.27C94.9498 255.2 95.7498 254.59 95.7598 253.31C95.8198 243.6 97.2998 233.89 95.8498 224.16C94.9298 217.97 91.5498 214.01 85.5398 212.55C83.1498 211.97 80.6698 211.66 78.2098 211.46C75.9898 211.28 73.7498 211.42 71.5298 211.11C78.3698 210.23 85.2498 209.66 91.5298 213.35C94.6998 215.21 96.8498 218.2 97.4298 221.82C98.1998 226.63 98.7298 231.51 98.8298 236.37C98.9498 242.44 98.5298 248.51 98.3498 254.58C98.2698 257.27 98.1798 257.46 95.4598 257.69C90.8298 258.09 86.1898 258.51 81.5398 258.62C79.1498 258.68 76.7098 258.3 74.3598 257.78C67.7898 256.33 63.7198 252.14 62.7198 245.56C61.9698 240.64 61.8798 235.6 61.7198 230.61C61.6198 227.42 61.9198 224.21 62.0298 221.01C62.1598 221.01 62.2898 221.01 62.4198 221.01L62.4298 221.03Z" fill="#12263A"/>
  <path d="M276.84 403.58C278.55 403.79 279.54 404.97 279.83 406.51C280.55 410.32 281.16 414.17 281.63 418.02C282.01 421.11 282.11 421.43 285.2 420.96C290.5 420.15 295.76 419.14 301.04 418.23C302.17 418.04 302.57 417.36 302.66 416.27C302.94 412.72 301.77 409.92 298.64 408.04C298.09 407.71 297.6 407.25 297.21 406.62C299.58 406.25 301.63 406.85 303.26 408.53C304.93 410.26 305.5 412.36 304.8 414.72C304.68 415.11 304.47 415.48 304.36 415.87C304.07 416.84 304.42 417.44 305.47 417.28C306.69 417.09 307.92 416.86 309.08 416.45C310.17 416.06 309.72 415.29 309.29 414.59C307.65 411.98 306.32 409.26 305.91 406.13C305.6 403.73 305.91 401.58 307.43 399.63C308.71 397.99 309.89 396.27 311.37 394.24C311.6 395.03 311.83 395.38 311.75 395.62C311.26 397 310.88 398.46 310.14 399.69C308 403.24 308.33 406.89 309.4 410.62C309.68 411.58 309.9 412.56 310.19 413.52C310.95 415.97 311.16 416.14 313.72 415.51C318.52 414.32 323.26 412.87 328.09 411.83C332.86 410.81 337.71 410.14 342.54 409.35C344.21 409.08 345.9 408.9 347.64 409.02C342.69 410.17 337.7 411.18 332.79 412.5C327.05 414.04 321.43 416.06 315.65 417.47C307.99 419.35 300.26 420.96 292.52 422.43C289.13 423.07 285.61 423.06 282.15 423.36C280.62 423.5 280.11 422.82 280.04 421.31C279.86 416.95 279.58 412.6 279.26 408.25C279.08 405.81 278.38 404.65 276.86 403.56L276.84 403.58Z" fill="#12263A"/>
  <path d="M132.98 140.19C132.58 131.36 132.2 122.53 131.78 113.7C131.69 111.89 132.65 111.29 134.25 111.24C139.55 111.08 144.86 110.78 150.16 110.78C167.56 110.78 184.96 110.74 202.35 111.04C213.31 111.23 224.26 112.01 235.21 112.53C235.49 112.54 235.77 112.62 236.07 112.95C235.48 112.98 234.89 113.04 234.3 113.05C206.82 113.08 179.34 113.1 151.85 113.13C146.6 113.13 141.35 113.14 136.1 113.15C133.95 113.15 133.67 113.41 133.67 115.62C133.66 123.81 133.67 132 133.67 140.2C133.44 140.2 133.21 140.2 132.99 140.2L132.98 140.19Z" fill="#12263A"/>
  <path d="M6.66976 416.43C9.48976 417.16 12.3198 417.86 15.1298 418.64C26.4798 421.81 37.8298 424.98 49.4998 426.81C51.2998 427.09 53.1498 427.22 54.9598 427.16C56.0898 427.12 57.2098 426.62 58.3198 426.29C60.2298 425.72 62.0998 424.79 64.0398 424.6C68.4298 424.18 72.8598 423.89 77.2698 423.96C90.6698 424.18 103.99 425.42 117.26 427.25C120.86 427.75 124.44 428.45 128.02 429.2C126.59 429.2 125.15 429.28 123.72 429.19C111.25 428.41 98.7798 427.48 86.2998 426.84C80.4798 426.54 74.6298 426.75 68.7898 426.81C65.2398 426.85 61.8998 427.67 58.4898 428.88C55.8798 429.81 52.6598 429.5 49.7998 429.11C40.1298 427.8 30.8498 424.82 21.5798 421.89C16.5498 420.3 11.5498 418.61 6.53976 416.96C6.58976 416.78 6.62976 416.6 6.67976 416.42L6.66976 416.43Z" fill="#12263A"/>
  <path d="M261.41 436.52C255.93 437.3 250.46 438.19 244.97 438.84C234.14 440.13 223.32 441.51 212.46 442.43C204.37 443.11 196.2 443.58 188.1 443.27C181.79 443.03 175.45 441.81 169.27 440.39C161.36 438.57 153.59 436.11 145.77 433.9C144.76 433.61 143.79 433.19 142.8 432.84C142.83 432.68 142.86 432.53 142.9 432.37C144.7 432.75 146.52 433.08 148.31 433.52C160.86 436.56 173.42 439.67 186.32 440.7C192.63 441.2 199.05 440.88 205.38 440.44C222.85 439.24 240.29 437.78 257.75 436.42C258.98 436.32 260.2 436.18 261.43 436.06C261.43 436.21 261.43 436.37 261.43 436.52H261.41Z" fill="#12263A"/>
  <path d="M242.82 268.75C238.87 268.75 234.93 268.81 230.98 268.72C229.25 268.68 228.05 269.18 226.9 270.59C222.87 275.57 217.41 278.47 211.46 280.45C201.63 283.72 191.49 284.47 181.24 283.67C173.05 283.03 165.05 281.39 158.28 276.37C156.15 274.79 154.39 272.63 152.77 270.5C151.77 269.18 150.81 268.52 149.17 268.49C146.4 268.45 143.63 268.24 140.86 268.06C139.95 268 139.06 267.82 138.15 267.7C138.15 267.55 138.15 267.4 138.15 267.26C139.28 267.2 140.42 267.1 141.55 267.1C144.62 267.1 147.69 267.06 150.75 267.23C151.62 267.28 152.84 267.76 153.24 268.43C156.21 273.5 161.02 276.03 166.18 278.05C171.51 280.13 177.12 280.88 182.79 281.15C193.29 281.65 203.68 281.18 213.59 277.16C218.54 275.16 223.21 272.69 226.71 268.45C227.09 267.99 227.75 267.44 228.28 267.45C233.14 267.56 238 267.78 242.85 267.97L242.79 268.76L242.82 268.75Z" fill="#12263A"/>
  <path d="M228.56 252.02C227.37 246.68 224.83 241.99 221.63 237.66C214.54 228.07 204.67 223.72 193.06 222.89C184.91 222.31 177.04 223.56 169.76 227.48C161.01 232.19 155.89 239.83 152.77 249.01C152.3 250.38 151.92 251.78 151.21 253.16C151.21 252.4 151.07 251.62 151.23 250.89C153.26 241.56 157.47 233.49 165.15 227.54C169.27 224.34 174.04 222.48 179.1 221.34C186.84 219.6 194.55 219.72 202.21 221.8C214.72 225.2 223.01 233.14 227.28 245.33C228.03 247.46 228.56 249.67 229.2 251.85C228.98 251.91 228.77 251.96 228.55 252.02H228.56Z" fill="#12263A"/>
  <path d="M245.87 97.93H137.82C137.82 97.77 137.82 97.6 137.82 97.44C173.84 94.77 209.85 94.88 245.87 97.36V97.93Z" fill="#12263A"/>
  <path d="M139.39 173.52C173.79 170.85 208.18 171.05 242.57 173.63C208.18 174.21 173.78 174.48 139.39 173.52Z" fill="#12263A"/>
  <path d="M240.88 162.05H137C171.62 158.97 206.25 158.99 240.88 162.05Z" fill="#12263A"/>
  <path d="M310.88 283.62C306.35 283.62 301.82 283.62 297.29 283.62C293.57 283.62 289.86 283.63 286.14 283.6C283.37 283.57 283.24 283.66 283.24 286.44C283.21 305.67 283.19 324.89 283.17 344.12C283.17 348.37 283.17 352.61 283.17 356.86C282.95 356.86 282.72 356.88 282.5 356.89C281.99 347.72 281.22 338.55 281.02 329.37C280.74 315.93 280.86 302.48 280.82 289.03C280.82 287.56 280.91 286.08 280.95 284.61C281.03 281.89 281.6 281.27 284.36 281.37C290.02 281.57 295.67 281.84 301.32 282.12C304.15 282.26 306.97 282.48 309.79 282.67C310.17 282.7 310.55 282.82 310.93 282.9C310.91 283.14 310.89 283.37 310.87 283.61L310.88 283.62Z" fill="#12263A"/>
  <path d="M34.2998 81.15C33.3398 79.78 32.3498 78.43 31.4198 77.04C30.2798 75.35 30.7498 73.26 32.7498 72.73C36.8098 71.64 40.9798 71.22 45.1398 72.32C45.7898 72.49 46.5398 72.92 46.8898 73.46C48.2298 75.57 50.4598 75.67 52.5298 76.29C59.2598 78.31 66.1898 77.89 73.0598 78.05C83.2598 78.29 93.4598 78.47 103.67 78.62C104.51 78.63 105.36 78.23 106.19 78.01C108.04 77.52 109.86 76.91 111.74 76.56C114.91 75.98 118.11 75.54 121.3 75.08C122.34 74.93 123.4 74.91 124.51 75.18C120.59 76.1 116.69 77.2 112.72 77.88C110.43 78.27 108.18 78.35 106.37 80.08C105.98 80.46 105.17 80.53 104.56 80.53C92.1698 80.53 79.7798 80.53 67.3898 80.47C64.5598 80.46 61.7298 80.31 58.9098 80.04C57.2298 79.88 55.5798 79.37 53.9198 79.01C52.0798 78.62 50.2098 78.32 48.4198 77.77C47.6298 77.53 46.7398 76.9 46.3698 76.2C45.5598 74.69 44.3998 73.79 42.7798 73.7C40.1898 73.56 37.5898 73.46 35.0098 73.6C32.0398 73.77 31.5498 74.97 33.0998 77.47C33.7798 78.57 34.2398 79.8 34.7998 80.97C34.6398 81.03 34.4898 81.09 34.3298 81.14L34.2998 81.15Z" fill="#12263A"/>
  <path d="M221.55 52.34C223.29 54.25 225.09 56.2 226.85 58.17C228.7 60.24 229.16 62.77 229.09 65.43C229 69.01 229.9 72.32 231.57 75.44C232.5 77.17 233.52 78.86 234.53 80.55C235.64 82.41 235.23 83.63 233.18 84.38C229.99 85.54 226.14 83.88 224.02 80.42C223.37 79.37 222.77 78.28 222.08 77.26C221.68 76.66 221.15 76.16 220.67 75.61C220.52 75.67 220.36 75.74 220.21 75.8C220.25 76.27 220.12 76.84 220.34 77.19C222.2 80.16 223.99 83.21 226.09 86C227.57 87.98 229.99 88.26 232.36 88.26C237.37 88.26 242.38 88.26 247.83 88.26C246.84 88.68 246.17 89.13 245.46 89.24C241.15 89.87 236.84 90.59 232.51 90.96C227.57 91.38 224.08 88.83 222.11 84.51C220.86 81.77 220.37 78.69 219.4 75.81C219.02 74.68 218.45 73.5 217.64 72.66C216.07 71.03 214.27 69.62 212.57 68.11C212.68 67.96 212.79 67.81 212.9 67.66C214.99 69.1 217.24 70.34 219.11 72.02C221.54 74.2 223.59 76.8 225.94 79.09C227.21 80.33 228.71 81.36 230.2 82.34C230.53 82.55 231.49 82.34 231.72 82C231.95 81.67 231.79 80.84 231.5 80.43C228.16 75.63 226.34 70.44 226.82 64.49C227.04 61.73 226 59.31 223.82 57.43C222.2 56.03 221.31 54.28 221.52 52.34H221.55Z" fill="#12263A"/>
  <path d="M240 284.3C243.16 316.51 244.04 348.78 242.05 381.11C241.86 381.11 241.67 381.11 241.48 381.12C240.73 348.87 239.97 316.61 239.22 284.36C239.48 284.34 239.74 284.32 240.01 284.3H240Z" fill="#12263A"/>
  <path d="M139.31 195.31C172.28 192.53 205.26 192.43 238.23 195.29C205.26 195.84 172.28 195.72 139.31 195.31Z" fill="#12263A"/>
  <path d="M87.1998 120.74C86.4098 120.74 85.6098 120.74 84.8198 120.74C79.3398 120.74 73.8498 120.79 68.3698 120.74C66.7398 120.72 66.0098 121.21 66.0398 122.95C66.1198 127.96 66.0598 132.98 66.0998 137.99C66.1198 140.19 66.3798 140.44 68.5598 140.45C76.5798 140.51 84.5998 140.56 92.6298 140.58C95.4198 140.58 95.5898 140.37 95.5898 137.52C95.5898 135.51 95.5698 133.51 95.5898 131.5C95.5998 130.76 95.7398 130.02 96.2098 129.27C96.3298 129.87 96.4998 130.47 96.5498 131.08C96.7998 133.9 97.0498 136.72 97.2298 139.54C97.3598 141.55 96.7798 142.22 94.7198 142.35C91.1298 142.58 87.5398 142.77 83.9398 142.85C78.3398 142.99 72.7398 143.03 67.1298 143.11C64.2098 143.15 63.3998 142.35 63.4398 139.5C63.5298 133.6 63.6198 127.7 63.7098 121.8C63.7498 119.2 64.5498 118.39 67.1598 118.53C72.9298 118.84 78.6998 119.2 84.4698 119.59C85.4098 119.65 86.3398 119.99 87.2698 120.2C87.2498 120.38 87.2298 120.56 87.1998 120.73V120.74Z" fill="#12263A"/>
  <path d="M42.2998 185.4C42.5398 181.42 42.7098 177.43 43.0498 173.45C43.2398 171.22 43.7098 169.02 44.0398 166.81C44.4798 163.86 45.8098 161.31 47.7798 159.13C50.0998 156.55 52.5398 154.09 55.2798 151.74C54.5698 153.1 53.9198 154.5 53.1198 155.8C52.3298 157.11 51.3598 158.3 50.5198 159.58C50.2898 159.94 50.2498 160.43 50.1298 160.86C50.6098 160.98 51.0998 161.23 51.5698 161.2C58.6798 160.71 65.7798 159.96 72.8998 159.71C81.5698 159.41 90.1998 160.14 98.7898 162.02C97.9798 162.1 97.1798 162.24 96.3698 162.24C84.1598 162.26 71.9498 162.25 59.7398 162.25C56.6698 162.25 53.5998 162.28 50.5398 162.21C49.0798 162.18 48.0498 162.76 47.7298 164.11C46.9998 167.18 46.4598 170.3 45.7698 173.38C45.1898 176 44.5098 178.6 43.8998 181.21C43.5698 182.63 43.2798 184.06 42.9698 185.49C42.7498 185.46 42.5298 185.43 42.2998 185.4Z" fill="#12263A"/>
  <path d="M151.48 375.31V283.87C151.61 283.85 151.74 283.84 151.87 283.82C152.15 285.7 152.58 287.58 152.7 289.47C154.17 311.61 154.26 333.77 153.42 355.94C153.18 362.4 152.55 368.85 152.1 375.3C151.89 375.3 151.69 375.3 151.48 375.3V375.31Z" fill="#12263A"/>
  <path d="M121.41 145.42C125.66 146.23 130.5 146.05 135.08 147.35C135.06 147.53 135.04 147.72 135.02 147.9H95.0698C95.0298 147.74 94.9798 147.58 94.9398 147.42C95.6498 147.19 96.3498 146.83 97.0698 146.76C102.05 146.27 107.05 145.85 112.03 145.4C112.69 145.34 113.34 145.2 114.26 145.06C112.77 143.92 111.16 143.23 110.5 142.03C109.82 140.78 110.08 139.03 109.92 137.49L110.41 137.41C110.71 138.4 111.06 139.37 111.3 140.37C111.6 141.58 112.35 142.17 113.55 142.23C114.79 142.3 116.02 142.34 117.26 142.4C118.75 142.47 119.41 141.84 119.68 140.29C120.71 134.37 121.78 128.46 123.1 122.6C123.56 120.57 124.76 118.72 125.63 116.78C125.82 116.86 126.01 116.95 126.2 117.03C125.72 118.76 125.07 120.46 124.79 122.22C124.23 125.77 123.92 129.36 123.4 132.91C122.8 137.01 122.09 141.1 121.39 145.41L121.41 145.42Z" fill="#12263A"/>
  <path d="M289.29 118.64C294.63 118.22 299.97 117.81 305.31 117.39C306.66 117.28 308.01 117.13 309.36 117.07C311.29 116.98 312.19 117.69 312.26 119.57C312.48 125.99 312.65 132.42 312.77 138.84C312.81 140.82 311.68 141.98 309.7 141.93C300.86 141.69 292.03 141.37 283.19 141.06C282.1 141.02 281.08 140.56 281.13 139.32C281.33 135.05 281.66 130.78 281.94 126.51C282.15 126.51 282.37 126.51 282.58 126.52C282.65 129.31 282.78 132.1 282.78 134.9C282.77 139.86 282.76 139.27 287.22 139.27C294 139.27 300.78 139.24 307.56 139.21C309.62 139.21 309.96 138.91 309.98 136.89C310.03 131.82 310.06 126.75 310.06 121.68C310.06 119.66 309.73 119.36 307.65 119.35C301.52 119.34 295.4 119.35 289.27 119.35C289.27 119.11 289.27 118.88 289.27 118.64H289.29Z" fill="#12263A"/>
  <path d="M187.82 371.67C185.84 366.93 183.87 362.24 181.9 357.54C181.74 357.49 181.58 357.45 181.43 357.4C179.45 362.28 177.13 366.92 172.6 370.08C173.46 368.34 174.39 366.64 175.15 364.86C176.75 361.12 178.38 357.39 179.76 353.57C180.61 351.22 180.73 348.83 179.87 346.24C178.98 343.54 178.73 340.59 178.49 337.73C178.38 336.4 178.95 335.01 179.23 333.52C185.48 337.26 192.38 338.29 198.93 341.05C197.85 341.26 196.76 341.64 195.68 341.64C191.36 341.63 187.42 340.25 183.77 338C182.87 337.44 182.05 336.76 181.15 336.2C180.75 335.95 180.24 335.86 179.78 335.7C179.72 336.14 179.53 336.61 179.64 337C180.46 340 181.38 342.97 182.18 345.98C183.17 349.67 184.06 353.38 185.02 357.07C185.8 360.09 186.55 363.11 187.46 366.09C188.05 368 188.91 369.83 187.82 371.67Z" fill="#12263A"/>
  <path d="M281.22 374.48C282.61 375.21 284.01 375.9 285.37 376.68C287.74 378.03 290.22 378.25 292.88 377.78C295.07 377.39 297.31 377.2 299.54 377.16C301.45 377.12 302.73 376.48 303.67 374.75C304.9 372.49 306.94 371.19 309.52 371.01C314.15 370.69 317.29 374.73 315.94 379.2C315.62 380.27 315.18 381.3 314.73 382.33C314.16 383.63 314.42 384.66 315.68 385.31C320.55 387.82 322.03 392.46 323.22 397.28C323.39 397.96 323.45 398.68 323.48 399.38C323.59 402.9 321.33 404.46 318.18 402.92C316.04 401.87 314.57 400.07 313.59 397.84C314.58 398.71 315.52 399.66 316.58 400.44C317.37 401.02 318.28 401.53 319.22 401.81C320.82 402.29 322 401.25 321.67 399.63C320.96 396.14 319.88 392.74 317.55 389.97C316.63 388.88 315.27 388.15 314.07 387.33C311.44 385.53 311.14 384.71 312.17 381.74C312.5 380.8 312.9 379.88 313.19 378.92C313.79 376.99 313.27 375.16 311.9 374.13C310.56 373.12 308.93 373.18 307.17 374.48C306.48 374.99 305.83 375.68 305.41 376.42C304.07 378.78 302.08 379.51 299.48 379.34C297.32 379.2 295.1 379.1 292.98 379.45C288 380.26 284.38 377.97 281.22 374.48Z" fill="#12263A"/>
  <path d="M349.42 419.69C345.41 421.66 341.4 423.63 337.39 425.6C329.77 429.33 322.29 433.39 314.5 436.71C305.8 440.42 296.62 441.75 287.13 440.31C282.59 439.62 278.09 438.88 273.88 436.81C275.86 437.12 277.84 437.42 279.82 437.73C291.29 439.52 302.54 438.9 313.32 434.26C321.71 430.65 329.99 426.79 338.37 423.19C341.92 421.67 345.62 420.51 349.26 419.18C349.31 419.35 349.36 419.51 349.42 419.68V419.69Z" fill="#12263A"/>
  <path d="M157.35 37.71C155.39 36.86 155.25 34.81 154.61 33.15C154.01 31.61 153.06 30.82 151.4 31.01C149.93 31.18 149.39 32.04 149.74 33.49C150.12 35.08 150.78 36.68 150.74 38.26C150.64 42.34 146.6 44.51 142.97 42.61C139.88 41 140.01 41.09 137.98 44.01C136.87 45.62 135.25 46.88 133.83 48.27C133.39 48.71 132.86 49.06 132.32 49.49C133.27 50.87 134.46 50.5 135.59 50.35C138.08 50.02 140.58 49.34 143.05 49.46C144.4 49.53 145.99 50.66 146.93 51.77C148.66 53.81 147.94 56.42 145.6 57.98C142.96 59.73 142.47 61.18 143.45 64.21C143.66 64.87 143.79 65.56 143.96 66.24C143.73 66.28 143.5 66.33 143.26 66.37C142.9 64.28 142.34 62.2 142.29 60.1C142.27 59.22 143.17 58.1 143.96 57.46C146.1 55.69 146.58 54.85 145.82 53.27C145.02 51.6 142.69 50.69 140.62 51.28C138.92 51.76 137.25 52.37 135.53 52.74C133.11 53.27 130.95 52.74 129.39 50.65C128.29 49.17 128.44 47.98 130.11 47.18C132.99 45.81 135.03 43.71 136.7 41.02C138.64 37.89 139.97 37.72 143.09 39.76C144.42 40.63 145.73 41.47 147.28 40.34C148.61 39.37 148.96 37.47 148.24 35.48C148.16 35.26 148.06 35.04 147.98 34.82C147.43 33.3 147.23 31.75 148.54 30.55C149.93 29.28 151.67 29.33 153.38 29.81C155 30.27 155.3 31.58 155.61 33.06C155.94 34.62 156.7 36.08 157.32 37.7L157.35 37.71Z" fill="#12263A"/>
  <path d="M325.41 388.01C327.35 387.9 329.3 387.61 331.22 387.73C332.71 387.82 333.53 387.2 334.28 386.13C335.03 385.07 335.96 384.13 336.59 383.01C338.95 378.84 342.77 377.22 347.23 376.27C350.31 375.62 353.3 374.48 356.25 373.36C358.67 372.44 361.03 371.74 363.26 373.52C364.92 374.84 365.26 378.58 364.21 381.19C363.2 383.71 361.02 385.05 358.94 386.5C358.07 387.11 357.22 387.77 356.26 388.21C353.44 389.5 352.53 391.89 352.58 394.71C352.67 399.59 352.91 404.46 353.09 409.34C353.11 409.93 353.09 410.52 352.99 411.11C351.72 405.1 351.02 399.04 351.41 392.87C351.56 390.45 352.64 388.66 354.6 387.26C356.42 385.96 358.18 384.56 359.89 383.13C361.49 381.79 362.47 380.11 362.33 377.89C362.17 375.38 360.94 374.56 358.54 375.44C355.94 376.39 353.38 377.45 350.73 378.24C348.71 378.84 346.53 378.92 344.51 379.55C343.05 380.01 341.52 380.74 340.43 381.77C338.33 383.74 336.56 386.05 334.56 388.13C334.04 388.67 333.18 389.22 332.49 389.2C330.1 389.11 327.73 388.77 325.35 388.53C325.37 388.36 325.38 388.2 325.4 388.03L325.41 388.01Z" fill="#12263A"/>
  <path d="M86.6698 298.52C85.3998 296.64 84.2198 296.65 83.1098 298.73C82.6098 299.67 82.2498 300.9 82.3798 301.92C82.6698 304.22 81.9298 306.15 80.3098 307.48C76.5298 310.57 74.9398 314.7 73.6698 319.2C72.5798 323.03 71.2298 326.86 68.1598 329.71C67.1398 330.66 67.4998 331.78 67.9298 332.83C68.8498 335.06 70.0398 337.2 70.7698 339.49C71.9598 343.23 73.1198 347.02 73.8098 350.87C74.4098 354.22 73.2498 357.36 70.8998 359.99C71.3298 358.66 71.8698 357.35 72.1798 355.99C72.9898 352.46 72.2998 349.05 70.9598 345.79C69.0998 341.28 67.0898 336.82 65.0998 332.36C64.3498 330.68 64.6398 329.32 65.9798 328.06C68.8398 325.38 69.9498 321.7 71.2998 318.2C72.0798 316.17 72.5698 314.03 73.3698 312.01C73.7498 311.06 74.4498 310.19 75.1698 309.44C76.3498 308.21 77.6798 307.12 78.9198 305.95C80.0798 304.85 80.6798 303.55 80.6698 301.88C80.6698 299.65 81.5598 297.71 83.4898 296.48C84.0298 296.13 85.0798 296.01 85.5798 296.31C86.2298 296.7 86.5698 297.62 87.0498 298.3C86.9198 298.38 86.7898 298.46 86.6598 298.53L86.6698 298.52Z" fill="#12263A"/>
  <path d="M224.45 264.23C222.48 267.06 220.05 268.7 217.44 270.07C205.66 276.24 193.16 278.06 180.05 276.13C172.88 275.07 165.94 273.33 159.86 269.13C159.01 268.54 158.29 267.76 157.62 266.87C168.06 272.99 179.54 274.23 191.23 274.2C203.08 274.17 214.22 271.48 224.45 264.23Z" fill="#12263A"/>
  <path d="M141.07 293.63C143.64 317.65 143.65 341.66 141.12 365.68C140.94 365.68 140.76 365.68 140.59 365.68V293.63C140.75 293.63 140.91 293.63 141.07 293.63Z" fill="#12263A"/>
  <path d="M36.3498 136.7C36.8698 137.38 37.0698 137.74 37.3498 138C38.0698 138.65 38.7398 138.55 38.8498 137.55C39.6698 130.11 40.7898 122.62 38.5698 115.26C37.6298 112.14 37.2498 109.36 39.3798 106.59C40.3698 105.3 39.7498 104.1 38.5398 103.27C38.0298 102.91 37.3598 102.76 36.7398 102.57C33.8598 101.71 32.5698 99.87 32.9198 96.88C33.0598 95.72 33.5598 94.59 33.6198 93.43C33.6598 92.73 33.1798 92 32.9298 91.28C32.1598 91.55 31.1298 91.6 30.6898 92.13C29.8498 93.14 29.3598 94.43 28.8198 95.41C28.4798 93.95 29.4698 90.89 30.9698 90.11C31.7698 89.69 33.0998 89.4 33.7498 89.78C34.5598 90.26 35.2598 91.45 35.3998 92.42C35.5998 93.78 35.2198 95.23 35.1298 96.64C34.9798 99.01 35.5898 99.85 37.8598 100.41C41.9698 101.43 43.3598 105.2 41.1198 108.81C40.5598 109.71 40.1398 111.14 40.4498 112.06C43.3598 120.65 42.0698 129.19 40.3898 137.74C40.2098 138.67 40.4698 140.08 38.9598 140.2C37.7698 140.29 36.5098 138.7 36.3398 136.69L36.3498 136.7Z" fill="#12263A"/>
  <path d="M348.38 142.83C348.38 140.96 348.22 139.07 348.41 137.22C348.85 132.83 349.39 128.44 350.05 124.07C350.18 123.22 350.84 122.15 351.57 121.74C354.63 120.01 356.01 116.59 354.87 113.22C353.9 110.32 351.98 108.13 349.84 106.08C347.97 104.28 346.09 102.5 344.22 100.71C342.99 99.54 342.4 98.15 342.65 96.42C342.75 95.73 342.71 95.01 342.71 94.3C342.69 91.33 341.96 90.56 339.04 90.35C338.77 90.33 338.5 90.27 338.1 90.21C340.66 88.69 343.04 89.51 343.77 92.1C344.1 93.28 344.35 94.54 344.33 95.75C344.3 97.46 345.07 98.58 346.27 99.68C349.39 102.53 352.61 105.32 355.41 108.47C358.64 112.11 358.29 116.41 356.4 120.58C355.93 121.62 354.88 122.62 353.85 123.15C352.36 123.91 351.94 125.07 351.68 126.51C350.78 131.61 349.85 136.71 348.92 141.81C348.86 142.15 348.73 142.48 348.64 142.81C348.55 142.81 348.47 142.81 348.38 142.82V142.83Z" fill="#12263A"/>
  <path d="M15.5898 383.82C35.0998 380.88 54.5798 380.9 74.0498 383.82C54.5498 384.37 35.0498 384.42 15.5898 383.82Z" fill="#12263A"/>
  <path d="M181.79 401.79C172.81 400.44 163.94 401.69 155.09 402.17C150.02 402.45 144.97 402.96 139.97 401.58C138.49 401.17 138.07 401.72 138.7 403.17C140.05 406.31 141.5 409.4 144.47 411.49C144.35 411.65 144.22 411.81 144.1 411.97C143.32 411.51 142.45 411.16 141.79 410.57C138.64 407.75 136.81 404.04 135.11 400.26C134.56 399.04 135.21 398.42 136.42 398.49C137.59 398.56 138.77 398.73 139.91 399.01C144.27 400.11 148.68 399.98 153.11 399.75C161.37 399.31 169.62 399.15 177.8 400.71C179.15 400.97 180.47 401.42 181.8 401.79H181.79Z" fill="#12263A"/>
  <path d="M176.96 50.8C177.33 52.57 177.75 54.32 178.05 56.1C178.65 59.76 179.09 63.45 179.77 67.1C180.48 70.89 182.2 72.17 186.03 72.1C186.32 72.1 186.62 72.08 186.91 72.07C193.09 71.68 194.9 69.78 194.96 63.57C194.99 60.8 194.76 58 195.04 55.26C195.26 53.13 196.1 51.06 197 49.04C195.78 53.74 196.28 58.36 197.08 63C197.27 64.13 197.2 65.33 197.09 66.48C196.64 71.23 193.98 73.9 189.19 74.48C188.08 74.61 186.96 74.78 185.85 74.79C181.03 74.83 178.15 72.66 177.56 67.88C176.87 62.25 176.68 56.55 176.28 50.88L176.97 50.79L176.96 50.8Z" fill="#12263A"/>
  <path d="M292.46 356.68C292.84 352.65 293.25 348.61 293.6 344.58C293.94 340.71 294.22 336.83 294.57 332.96C294.69 331.67 293.97 331.08 292.95 330.53C291.31 329.63 289.64 328.72 288.16 327.58C285.81 325.75 285.13 323.04 286.4 320.3C288.06 316.73 289.87 313.23 291.76 309.77C292.9 307.67 294.3 306.79 296.58 306.32C293.96 308.07 292.72 310.51 291.8 313.24C291.03 315.52 290 317.71 289.05 319.93C287.79 322.89 288.19 324.48 290.89 326.23C292.37 327.19 293.95 327.98 295.52 328.79C296.74 329.42 297.47 330.33 297.29 331.75C296.99 334.2 296.72 336.66 296.29 339.09C295.25 344.99 294.12 350.87 293.03 356.76C292.83 356.73 292.64 356.71 292.44 356.68H292.46Z" fill="#12263A"/>
  <path d="M105.79 273.12H49.4598C53.0998 269.98 99.8498 269.86 105.79 273.12Z" fill="#12263A"/>
  <path d="M45.1998 402.14C43.5798 401.03 41.9098 399.99 40.3598 398.8C38.9098 397.68 37.7498 397.59 36.4098 399.03C34.3198 401.28 31.8198 401.92 28.6998 401.13C24.3198 400.03 19.9198 401.08 15.5398 401.66C11.3498 402.22 8.22977 404.29 5.75977 407.65C4.61977 409.2 3.11976 410.48 1.71976 411.83C1.29976 412.23 0.699766 412.44 0.00976562 412.83C2.24977 409.65 4.35976 406.73 6.38976 403.75C8.06976 401.29 10.6398 399.98 13.2898 399.47C17.4798 398.66 21.8098 398.51 26.0798 398.16C26.9998 398.08 28.0398 398.13 28.8698 398.49C31.5898 399.65 33.7498 398.79 35.8398 397.01C38.0898 395.1 38.1598 395.11 40.5298 397.11C42.2598 398.58 43.8898 400.16 45.5598 401.68C45.4398 401.83 45.3198 401.98 45.1998 402.12V402.14Z" fill="#12263A"/>
  <path d="M152.29 383.85C154.4 384.5 156.27 385.18 158.2 385.63C160.67 386.21 161.53 385.43 161.7 382.9C161.8 381.39 161.83 379.8 162.32 378.39C163.12 376.08 165.4 375.39 167.31 376.93C173.53 381.94 179.56 387.15 182.93 394.66C183.85 396.71 184.74 398.82 183.93 401.22C183.63 400.31 183.37 399.38 183.02 398.48C180.63 392.4 176 388.11 171.3 383.88C169.77 382.5 168.15 381.21 166.56 379.9C165.43 378.96 164.66 379.19 164.36 380.66C164.15 381.69 164.21 382.77 164.11 383.83C163.84 386.51 162.75 387.55 160.1 387.43C157.06 387.29 154.38 386.28 152.29 383.84V383.85Z" fill="#12263A"/>
  <path d="M48.6998 173.63C66.2198 170.86 83.7698 170.79 101.32 173.62C83.7898 174.34 66.2598 174.33 48.6998 173.63Z" fill="#12263A"/>
  <path d="M274.46 271.35C292.52 268.84 310.58 268.75 328.63 271.39C328.63 271.58 328.63 271.76 328.63 271.95H274.47C274.47 271.75 274.47 271.55 274.46 271.35Z" fill="#12263A"/>
  <path d="M46.2498 138.94V83.91C48.9498 89.45 49.9598 126.88 46.2498 138.94Z" fill="#12263A"/>
  <path d="M160.53 39.47C160.93 38.75 161.34 38.06 161.71 37.36C164.33 32.36 162.61 27.48 161.33 22.58C160.43 19.12 160.34 15.63 161.04 12.04C161.22 12.16 161.36 12.22 161.36 12.27C160.86 17.74 162.62 22.76 164.55 27.72C165.67 30.6 165.87 33.43 164.8 36.34C163.7 39.34 163.86 42.39 164.69 45.38C166.34 51.33 169.57 56.45 173.32 61.28C173.68 61.74 174.01 62.21 174.36 62.67C174.24 62.8 174.12 62.92 174 63.05C172.57 61.68 171.04 60.4 169.72 58.93C165.14 53.82 161.71 48.15 161.28 41.06C161.24 40.43 160.71 39.84 160.53 39.47Z" fill="#12263A"/>
  <path d="M204.34 42.44C204.57 43.96 203.78 44.61 202.78 44.8C199.23 45.47 195.8 45.05 192.96 42.66C192.19 42.02 191.79 40.77 191.53 39.73C190.91 37.27 189.76 36.11 187.21 36.21C185.53 36.28 183.81 36.6 182.19 37.08C180.21 37.67 179.42 39.44 179.1 41.28C178.44 45.09 173.75 46.92 170.46 45.69C168.91 45.12 168.5 44.37 168.91 42.67C169.62 44.27 170.83 44.88 172.44 44.58C174.48 44.2 176.12 43.28 176.62 41.06C177.13 38.78 177.69 36.51 179.93 35.28C183.03 33.58 186.38 32.92 189.82 33.88C192.23 34.56 193.72 36.31 193.9 38.88C194.02 40.57 194.91 41.59 196.33 42.26C197.07 42.61 197.85 42.91 198.63 43.17C200.57 43.81 202.5 44.18 204.34 42.42V42.44Z" fill="#12263A"/>
  <path d="M101.67 194.96C84.6798 195.61 67.7098 195.67 50.7398 195.43C67.7098 192.46 84.6898 192.09 101.67 194.96Z" fill="#12263A"/>
  <path d="M277.14 195.85C292.84 193.18 308.55 193.16 324.25 195.85V196.31H277.17C277.16 196.16 277.15 196 277.14 195.85Z" fill="#12263A"/>
  <path d="M88.4898 397.86C86.9198 397.41 85.3498 396.96 83.7798 396.5C83.3798 396.38 82.9998 396.22 82.6098 396.09C75.6098 393.79 72.0998 395.65 66.8998 401.54C65.7898 402.8 65.8298 404.06 67.0298 405.3C69.8898 408.27 72.6898 411.29 75.5598 414.25C76.0698 414.77 76.7898 415.09 77.4198 415.5C77.1798 415.77 76.9298 416.04 76.6898 416.3C73.7398 414.02 70.7498 411.78 67.8598 409.43C66.6398 408.43 65.4798 407.29 64.5298 406.03C62.7198 403.64 63.5098 399.89 65.9498 398.16C67.4898 397.07 68.8498 395.72 70.4498 394.74C73.3198 392.98 76.4098 392.21 79.7198 393.52C82.7498 394.72 85.7698 395.95 88.7898 397.17C88.6898 397.39 88.5898 397.61 88.4898 397.84V397.86Z" fill="#12263A"/>
  <path d="M25.1398 185.45C25.1398 183.7 25.1598 181.96 25.1398 180.21C25.1198 178.74 25.0898 177.26 24.9698 175.8C24.6698 172.26 23.3698 169.47 19.9498 167.69C13.4798 164.31 9.83977 158.55 7.54977 151.82C7.47977 151.61 7.49976 151.37 7.80976 150.92C8.20976 151.48 8.68977 151.99 9.00977 152.59C12.1598 158.56 16.8198 162.99 22.7398 166.16C24.8898 167.31 26.1098 169.2 26.6198 171.58C27.6398 176.31 26.7298 180.89 25.8398 185.48C25.6098 185.47 25.3798 185.45 25.1498 185.44L25.1398 185.45Z" fill="#12263A"/>
  <path d="M314.03 355.75C313.61 352.85 313.24 349.93 312.76 347.04C312.15 343.38 310.9 339.74 310.93 336.1C310.97 330.26 312.09 324.52 315.59 319.52C316.95 317.57 317.98 315.39 319.17 313.31C319.32 313.35 319.47 313.39 319.62 313.43C319.11 315.02 318.84 316.75 318.04 318.18C315.31 323.14 314.03 328.54 313.48 334.05C313.2 336.85 314.2 339.76 314.3 342.63C314.46 347 314.34 351.38 314.34 355.76C314.23 355.76 314.13 355.76 314.02 355.76L314.03 355.75Z" fill="#12263A"/>
  <path d="M323.49 265.36H278.91C278.91 265.19 278.91 265.03 278.91 264.86C293.77 261.97 308.63 262.14 323.49 264.75C323.49 264.95 323.49 265.16 323.49 265.36Z" fill="#12263A"/>
  <path d="M239.33 149.92C244.5 155.67 250.19 161.03 252.96 168.56C253.34 169.6 253.72 170.74 253.65 171.81C253.38 176.44 252.94 181.06 252.57 185.69C252.38 185.7 252.18 185.72 251.99 185.73C251.89 185.22 251.71 184.72 251.69 184.2C251.5 180.38 251.52 176.54 251.09 172.75C250.86 170.71 250.19 168.56 249.15 166.79C246.27 161.83 243.09 157.04 240.03 152.17C239.63 151.53 239.3 150.85 238.94 150.19C239.07 150.1 239.19 150 239.32 149.91L239.33 149.92Z" fill="#12263A"/>
  <path d="M106.79 184.97C106.46 183.04 106.08 181.11 105.8 179.18C105.29 175.71 105.08 172.19 104.28 168.79C103.75 166.52 102.66 164.28 101.39 162.31C98.7098 158.16 95.7498 154.19 92.8998 150.15L93.2598 149.82C95.8598 152.34 98.4898 154.82 101.04 157.38C105.11 161.47 107.5 166.25 107.29 172.21C107.17 175.73 107.48 179.27 107.55 182.8C107.56 183.51 107.38 184.23 107.28 184.94C107.11 184.94 106.95 184.95 106.78 184.96L106.79 184.97Z" fill="#12263A"/>
  <path d="M78.2298 389.45C78.2298 387.96 78.2698 386.47 78.2298 384.98C78.1198 381.32 78.5798 377.44 80.6898 374.7C83.9698 370.42 87.5998 366.09 93.2198 364.55C94.4398 364.22 95.7898 364.11 97.0398 364.27C97.8498 364.37 99.0098 365.02 99.2098 365.67C99.4798 366.55 98.9798 367.66 98.4698 368.56C98.2698 367.74 98.3198 366.44 97.8298 366.19C97.0598 365.8 95.7198 365.76 94.9998 366.19C92.3998 367.75 89.8098 369.39 87.4898 371.33C82.4198 375.59 79.8498 381.2 79.2298 387.76C79.1698 388.35 78.9598 388.92 78.8198 389.5C78.6298 389.48 78.4298 389.46 78.2398 389.45H78.2298Z" fill="#12263A"/>
  <path d="M99.7498 265.36H57.9198C62.3698 262.19 91.9898 261.87 99.7498 265.36Z" fill="#12263A"/>
  <path d="M223.1 382.38C222.41 382.59 221.73 382.87 221.02 383.01C217.78 383.65 214.53 384.18 211.3 384.87C203.85 386.47 202.39 389.17 201 396.46C200.55 398.8 200.41 401.21 200.1 403.82C199.75 403.52 199.55 403.44 199.54 403.33C199.03 398.5 198.74 393.68 200.54 389.03C202.16 384.84 205.76 383.15 209.79 382.59C214.14 381.99 218.56 381.93 222.95 381.64C223 381.89 223.05 382.14 223.1 382.38Z" fill="#12263A"/>
  <path d="M88.5998 308.38C91.4598 312.39 94.4798 316.19 96.9998 320.29C98.9698 323.5 98.1698 328.69 95.9098 331.04C93.1298 333.93 89.7198 333.44 86.3398 332.7C85.3398 332.48 84.4298 331.82 83.6498 331.03C85.2098 331.19 86.7698 331.5 88.3198 331.48C94.6398 331.38 96.3998 327.89 94.7198 321.79C94.2098 319.94 92.8698 318.26 91.6998 316.65C89.8898 314.17 88.5898 311.56 88.6098 308.38H88.5998Z" fill="#12263A"/>
  <path d="M332.98 185.92C332.09 173.79 329.25 162.17 325.76 150.58C331.69 155.2 336.87 180.44 332.98 185.92Z" fill="#12263A"/>
  <path d="M127.77 182.54C127.64 171.05 127.96 159.68 135.52 150.09C135.73 150.15 135.94 150.21 136.14 150.27C135.75 151.2 135.33 152.12 134.98 153.06C132.56 159.61 131.23 166.38 130.48 173.31C130.14 176.47 129.09 179.56 128.36 182.68C128.16 182.63 127.96 182.58 127.76 182.53L127.77 182.54Z" fill="#12263A"/>
  <path d="M122.58 385.96C120.6 389.07 118.72 392.24 116.63 395.26C114.04 399.01 112.88 403.14 112.39 407.62C112.08 410.44 111.24 413.21 110.64 416L110.17 415.96C110.11 415.6 109.98 415.23 109.99 414.87C110.14 410.58 109.83 406.21 110.58 402.02C111.56 396.62 115.58 392.8 119.11 388.85C120.1 387.74 121.23 386.75 122.3 385.7C122.39 385.78 122.49 385.87 122.58 385.95V385.96Z" fill="#12263A"/>
  <path d="M46.9298 374.58C57.5198 373.78 68.1198 374.02 78.7298 374.54C68.1398 377.43 57.5498 377.31 46.9298 374.58Z" fill="#12263A"/>
  <path d="M311.99 311.23C310.24 308.76 308.54 306.43 305.88 304.88C305.15 304.46 304.75 303.13 304.6 302.15C304.38 300.71 304.62 299.2 304.47 297.75C304.4 297.11 303.9 296.05 303.49 296C302.76 295.9 301.6 296.21 301.26 296.75C300.75 297.55 300.7 298.7 300.62 299.72C300.52 300.92 300.6 302.13 300.6 303.33C300.38 303.36 300.16 303.39 299.94 303.41C299.62 301.12 298.87 298.78 299.1 296.54C299.42 293.41 303.57 292.06 306.01 294.1C306.61 294.6 306.95 295.53 307.19 296.33C307.37 296.92 307.26 297.62 307.16 298.26C306.74 300.9 307.17 303.07 309.38 305.02C311.09 306.53 312.02 308.79 312.01 311.22L311.99 311.23Z" fill="#12263A"/>
  <path d="M192.83 373.95C192.43 370.57 192.29 367.69 191.7 364.91C190.95 361.41 189.68 358.01 188.92 354.51C188.55 352.8 188.65 350.93 188.87 349.17C189.11 347.29 189.75 345.46 190.22 343.61C190.41 343.62 190.6 343.63 190.79 343.64C190.86 344.39 191.15 345.22 190.95 345.89C189.72 349.98 191.08 353.63 192.58 357.32C194.34 361.65 194.3 366.19 193.77 370.74C193.66 371.68 193.25 372.58 192.84 373.95H192.83Z" fill="#12263A"/>
  <path d="M185.65 301.72C185.09 300.84 184.62 299.89 183.96 299.11C182.54 297.43 182.16 294.17 183.26 292.1C184.44 289.88 186.86 288.6 189.29 288.96C191.62 289.3 193.77 289.98 195.2 292.07C196.52 293.99 196.58 295.77 195.17 298.01C195.07 297.39 194.98 296.98 194.95 296.56C194.74 293.42 191.96 291.36 188.4 291.71C185.92 291.95 184.06 294.61 184.43 297.46C184.5 297.97 184.79 298.44 184.93 298.95C185.19 299.87 185.42 300.8 185.65 301.72Z" fill="#12263A"/>
  <path d="M91.9898 381.87C92.5798 383.71 93.0798 385.44 93.6998 387.12C94.7798 390.05 96.5798 392.42 98.9698 394.5C101.59 396.78 103.94 399.4 106.4 401.86C106.28 402.01 106.16 402.16 106.04 402.31C105.69 402.2 105.28 402.16 104.99 401.96C102.1 399.93 99.2598 397.83 96.3598 395.83C91.9498 392.79 90.9098 385.2 91.9898 381.87Z" fill="#12263A"/>
  <path d="M49.7098 414.11C48.3498 411.21 47.2098 408.24 47.4798 405.03C47.5498 404.19 48.4798 403.24 49.2698 402.69C53.4498 399.74 58.2598 398.88 63.1998 398.59C63.2798 398.75 63.3598 398.92 63.4298 399.08C62.9398 399.35 62.4798 399.66 61.9698 399.88C58.6198 401.33 55.2498 402.71 51.9298 404.21C50.2198 404.98 49.4098 406.27 49.6598 408.33C49.8998 410.23 49.7098 412.18 49.7098 414.12V414.11Z" fill="#12263A"/>
  <path d="M292.89 415.08C288.61 411.63 290.75 396.06 293.46 390.59C294.6 398.83 291.9 406.76 292.89 415.08Z" fill="#12263A"/>
  <path d="M122.88 413.87C119.73 411.29 118.84 404.76 121.6 401.12C124.06 397.87 127.96 396.53 131.21 394.32C131.37 394.48 131.52 394.63 131.68 394.79C130.95 395.69 130.27 396.65 129.47 397.48C128.45 398.53 127.39 399.58 126.22 400.45C122.22 403.43 121.7 407.48 122.5 411.98C122.59 412.49 122.7 412.99 122.88 413.88V413.87Z" fill="#12263A"/>
  <path d="M226.87 260.16C234.39 257.44 241.94 257.24 249.52 260.16C241.97 260.77 234.42 260.67 226.87 260.16Z" fill="#12263A"/>
  <path d="M145.81 393.96C145.41 393.39 145.12 392.63 144.57 392.29C143.08 391.35 141.47 390.62 139.93 389.75C137 388.11 136.84 385.38 139.69 383.7C141.66 382.54 143.8 381.69 145.88 380.72C146.12 380.61 146.43 380.67 146.9 380.96C145.19 382.41 143.49 383.88 141.77 385.32C140.44 386.43 140.53 386.75 142 387.7C143.76 388.84 145.47 390.09 147.04 391.48C147.47 391.86 147.62 392.97 147.4 393.56C147.21 394.08 146.32 394.34 145.74 394.72C145.76 394.47 145.78 394.21 145.8 393.96H145.81Z" fill="#12263A"/>
  <path d="M206.01 367.79C202.21 361.04 198.42 354.29 194.67 347.62C198.82 347.42 207.3 362.33 206.01 367.79Z" fill="#12263A"/>
  <path d="M66.4298 237.2C71.8698 234.45 71.3698 229.29 72.1898 224.68C72.4998 222.95 72.8498 221.22 73.3198 219.52C73.4998 218.86 74.0298 218.3 74.6398 217.79C74.2498 223.11 75.6198 228.56 72.8698 233.54C71.3698 236.25 69.3098 237.46 66.4398 237.2H66.4298Z" fill="#12263A"/>
  <path d="M289.11 229.37C287.45 225.45 289.96 219.47 293.51 218.22C295.6 217.48 297.75 217.98 298.81 219.43C300.09 221.19 300.05 224.28 298.69 225.97C298.32 224.68 298.08 223.36 297.57 222.15C296.77 220.24 295.39 219.96 293.78 221.26C291.29 223.27 290.16 226.11 289.11 229.37Z" fill="#12263A"/>
  <path d="M124.43 382.48C124.52 380.29 126.34 377.35 128.13 376.97C130.34 376.51 132.48 376.8 134.09 378.7C135.83 380.75 136.83 383.12 136.89 385.78C136.91 386.73 136.28 387.7 135.56 388.57C135.28 387.37 135.17 386.09 134.68 384.98C134.05 383.55 133.27 382.13 132.28 380.93C130.56 378.84 128.84 378.75 126.8 380.52C126.04 381.18 125.54 382.16 124.92 382.99C124.75 382.82 124.59 382.65 124.42 382.48H124.43Z" fill="#12263A"/>
  <path d="M96.1298 356.94C96.6698 350.4 95.8998 344.33 94.2098 338.27C98.9698 340.14 100.37 352.8 96.1298 356.94Z" fill="#12263A"/>
  <path d="M111.49 384.4C106.45 380.74 102.33 376.54 98.2698 371.91C102.28 371.82 110.63 379.53 111.49 384.4Z" fill="#12263A"/>
  <path d="M155.31 82.89C155.19 86.51 153.33 89.02 150.39 90.84C147.54 92.61 144.55 92.79 141.37 91.53C147.1 90.36 151.63 87.39 155.3 82.89H155.31Z" fill="#12263A"/>
  <path d="M92.8298 250.98C91.2398 249.65 89.8698 248.48 88.4598 247.35C88.0098 246.99 87.4698 246.63 86.9198 246.51C86.2198 246.36 85.2998 246.2 84.7798 246.53C84.3998 246.77 84.4098 247.78 84.3998 248.45C84.3998 249.01 84.6098 249.57 84.7298 250.18C83.1798 249.88 81.9898 248.1 82.1098 246.39C82.2198 244.84 83.5198 243.59 85.1498 243.48C88.8698 243.21 92.7098 246.81 92.8398 250.99L92.8298 250.98Z" fill="#12263A"/>
  <path d="M296.03 384.3C293.81 386.31 291.29 386.94 288.52 386.2C285.1 385.28 282.57 383.22 281.04 379.94C285.81 382.16 290.32 385.12 296.03 384.3Z" fill="#12263A"/>
  <path d="M86.1498 357.83C85.5498 352.52 84.9498 347.22 84.2998 341.51C87.8198 344.35 89.1498 353.46 86.6998 357.77C86.5198 357.79 86.3298 357.81 86.1498 357.83Z" fill="#12263A"/>
  <path d="M292.86 245.9C292.73 244.35 292.63 242.8 292.45 241.26C292.24 239.41 291.76 239.11 290.03 239.73C288.61 240.24 287.23 240.84 285.76 241.26C287.24 239.22 288.93 237.46 291.42 236.76C293.27 236.24 294.44 236.95 294.74 238.85C295.13 241.37 294.4 243.69 293.39 245.93C293.21 245.93 293.03 245.91 292.85 245.9H292.86Z" fill="#12263A"/>
  <path d="M91.9898 231.63C90.3298 233.54 88.6698 235.37 87.0998 237.27C85.6498 239.02 84.0498 240.39 81.5798 240.08C81.2598 240.04 80.9498 239.87 80.7298 239.79C82.9898 237.49 85.1498 235.16 87.4698 233C88.7698 231.79 90.3998 231.09 91.9898 231.63Z" fill="#12263A"/>
  <path d="M77.3198 324.22C80.4298 321.74 83.4698 319.32 86.8198 316.66C86.3798 319.51 85.4098 321.73 83.2698 323.26C81.4298 324.57 79.3898 324.94 77.3198 324.22Z" fill="#12263A"/>
  <path d="M302.63 246.28C299.52 244.26 299.4 237.49 301.36 233.86C302.5 235.41 303.38 244.04 302.63 246.28Z" fill="#12263A"/>
  <path d="M43.1598 195.43C41.3998 195.81 39.5798 195.8 38.2398 196.59C36.9198 197.37 36.0698 198.96 35.0198 200.19C33.9398 198.41 34.5498 195.8 36.3898 194.37C38.5898 192.66 40.9298 192.98 43.1598 195.43Z" fill="#12263A"/>
  <path d="M340.04 202.59C337.85 199.97 335.83 197.56 333.68 194.98C335.93 194.72 337.73 195.31 339.1 196.93C340.48 198.55 340.88 200.41 340.04 202.6V202.59Z" fill="#12263A"/>
  <path d="M305.8 232.99C307.28 230.7 310.3 229.09 308.16 225.82C310.51 225.94 311.6 227.28 311.34 229.45C311.03 232.02 308.78 233.57 305.8 232.98V232.99Z" fill="#12263A"/>
  <path d="M261.51 205.07C262.61 201.34 264.25 198.42 267.45 196.32C267.69 199.89 265.21 203.57 261.51 205.07Z" fill="#12263A"/>
  <path d="M81.7498 235.86C81.3498 232.8 80.9498 229.78 80.5498 226.74C82.3398 227.11 83.6698 228.75 83.8998 230.9C84.1698 233.36 83.4698 235.05 81.7498 235.86Z" fill="#12263A"/>
  <path d="M312.64 248.83C309.68 248.42 308.77 242.61 309.93 239.17C312.77 241.88 312.06 245.46 312.64 248.83Z" fill="#12263A"/>
  <path d="M316.94 304.35C318.81 307.99 317.36 312.19 314.1 313.44C313.86 313.53 313.48 313.58 313.31 313.45C313.16 313.33 313.1 312.91 313.19 312.69C314.11 310.49 315.06 308.3 316.03 306.12C316.26 305.6 316.55 305.11 316.94 304.35Z" fill="#12263A"/>
  <path d="M344.03 202.66C344.72 198.69 347.09 196.5 350.35 194.88C350.5 197.56 347.15 201.72 344.03 202.66Z" fill="#12263A"/>
  <path d="M73.5598 240.5C74.8398 241.71 75.0998 243.62 74.2898 245.5C73.4098 247.53 71.5798 248.85 69.7198 248.7C71.0098 245.95 72.2798 243.24 73.5598 240.5Z" fill="#12263A"/>
  <path d="M251.79 198.58C254.01 197.98 255.31 198.41 256.46 200.15C257.48 201.7 257.32 203.66 256.11 205.1C254.7 202.96 253.27 200.8 251.79 198.57V198.58Z" fill="#12263A"/>
  <path d="M308.32 377.45V386.33C306.74 385.15 305.49 383.76 305.47 381.8C305.45 379.91 306.36 378.35 308.32 377.45Z" fill="#12263A"/>
  <path d="M126.59 195.99C125.43 198.76 123.28 200.03 120.83 200.97C120.1 198.56 122.9 196.08 126.59 195.99Z" fill="#12263A"/>
  <path d="M112.76 197.69C114.47 197.2 115.83 197.55 116.53 198.95C117.1 200.08 117.14 201.42 115.83 202.54C114.8 200.92 113.84 199.41 112.76 197.69Z" fill="#12263A"/>
  <path d="M90.2598 223.35C88.8398 223.61 87.4297 223.89 86.0098 224.12C85.7698 224.16 85.2897 224.02 85.2598 223.89C85.1797 223.52 85.1398 222.94 85.3498 222.77C86.1298 222.15 87.0198 221.22 87.8498 221.25C88.7798 221.28 89.6898 222.21 90.6098 222.75C90.4998 222.95 90.3798 223.15 90.2698 223.35H90.2598Z" fill="#12263A"/>
  <path d="M31.6898 197.2C31.1998 197.93 30.8298 198.48 30.4598 199.04C30.0198 198.68 29.5298 198.35 29.1398 197.94C28.8698 197.65 28.6598 197.26 28.5298 196.88C28.3598 196.33 28.2898 195.74 28.1698 195.17C28.8898 195.23 29.7198 195.08 30.2898 195.4C30.8698 195.72 31.1798 196.51 31.6798 197.2H31.6898Z" fill="#12263A"/>
  <path d="M76.5198 250.38C76.0298 249.55 75.2298 248.74 75.1698 247.88C75.1298 247.28 76.0098 246.45 76.6698 246.01C77.3898 245.53 78.0998 245.81 77.9198 246.87C77.7398 247.95 77.4498 249.01 77.2098 250.08L76.5198 250.38Z" fill="#12263A"/>
</svg>