<svg width="36" height="36" viewBox="0 0 36 36" fill="none" xmlns="http://www.w3.org/2000/svg">
<path d="M8 0C2.486 0 0 2.486 0 8V28C0 33.514 2.486 36 8 36H28C33.514 36 36 33.514 36 28V8C36 2.486 33.514 0 28 0H8ZM8 4H28C31.308 4 32 4.692 32 8V28C32 31.308 31.308 32 28 32H8C4.692 32 4 31.308 4 28V8C4 4.692 4.692 4 8 4ZM28 6C27.4696 6 26.9609 6.21071 26.5858 6.58579C26.2107 6.96086 26 7.46957 26 8C26 8.53043 26.2107 9.03914 26.5858 9.41421C26.9609 9.78929 27.4696 10 28 10C28.5304 10 29.0391 9.78929 29.4142 9.41421C29.7893 9.03914 30 8.53043 30 8C30 7.46957 29.7893 6.96086 29.4142 6.58579C29.0391 6.21071 28.5304 6 28 6ZM18 8C12.486 8 8 12.486 8 18C8 23.514 12.486 28 18 28C23.514 28 28 23.514 28 18C28 12.486 23.514 8 18 8ZM18 12C21.308 12 24 14.692 24 18C24 21.308 21.308 24 18 24C14.692 24 12 21.308 12 18C12 14.692 14.692 12 18 12Z" fill="#FFEAD9"/>
</svg>
