<svg width="272" height="286" viewBox="0 0 272 286" fill="none" xmlns="http://www.w3.org/2000/svg">
<path d="M125.312 39.7715C119.746 44.8614 114.459 50.154 110.648 56.7452C108.059 57.3807 103.201 43.9903 90.3685 73.1765C75.5621 64.4321 67.3801 88.0463 68.0327 99.8753C53.4292 95.9524 53.4292 118.12 53.5059 127.533C53.5224 129.275 54.323 131.691 54.3285 131.916C54.345 132.919 53.2208 138.343 54.6027 143.964C50.3363 150.769 52.0417 164.598 54.8769 172.17C55.4966 178.903 56.1985 186.042 58.9898 192.294C51.6469 197.751 49.0475 190.464 46.6566 184.492C41.2056 170.86 37.8659 151.388 39.8072 136.847C40.0375 135.099 44.0353 113.753 44.4685 111.929C46.9582 101.453 54.9811 86.3752 61.4575 77.7021C73.3521 61.7749 103.985 36.9827 125.312 39.777V39.7715Z" fill="#EBECE4"/>
<path d="M217.671 192.288C221.822 182.892 220.687 178.087 221.784 172.438C223.1 165.644 229.226 155.158 222.058 143.416C223.314 136.995 223.528 126.684 223.155 120.142C222.645 111.228 221.203 99.2015 209.725 99.059C209.517 87.9697 200.863 66.5745 187.115 72.0863C185.382 67.6045 182.3 62.0543 179.032 58.5314C175.16 54.3619 173.959 53.2004 168.481 56.4768C164.691 50.0665 160.408 43.7438 154.365 39.2291C174.897 38.0073 202.793 60.8764 214.386 76.3324C217.627 80.6553 226.187 94.4184 228.09 99.059C230.717 105.475 237.237 136.108 237.682 143.142C237.885 146.342 237.737 152.774 237.407 156.012C236.876 161.25 229.379 193.247 224.663 194.212C222.334 193.572 220.005 192.933 217.677 192.294L217.671 192.288Z" fill="#EBECE4"/>
<path d="M158.203 13.7155C165.732 19.3398 171.067 27.2234 175.788 35.2026C182.613 31.1208 184.116 32.5679 188.933 37.7622C193.004 42.1511 196.851 49.0655 199.003 54.6488C216.13 47.7822 226.911 74.4296 227.17 88.2515C241.462 88.4289 243.266 103.411 243.901 114.517C244.366 122.666 244.099 135.512 242.535 143.512C251.464 158.146 243.84 171.21 242.193 179.667C240.827 186.705 242.248 192.697 237.069 204.397C223.331 235.474 182.962 249.61 151.2 249.767C147.518 258.906 163.942 282.502 148.468 283.881C131.614 285.383 131.402 260.974 129.346 249.767C101.793 249.214 71.2411 242.429 51.6748 221.625C48.0403 217.754 41.4817 209.106 39.3844 204.397C35.9138 196.602 35.0325 187.715 34.2605 179.326C30.7285 169.893 28.6038 152.665 33.9189 144.188C32.1973 137.185 33.5978 130.427 33.5773 129.178C33.5773 128.898 32.5731 125.895 32.5526 123.718C32.4569 111.998 32.4569 84.3745 50.65 89.2617C49.837 74.5251 60.0301 45.1066 78.4759 56.0003C94.4623 19.6401 100.515 36.3288 103.74 35.5302C108.488 27.3121 115.067 20.7186 122.008 14.3844C124.96 11.6814 135.112 2.41901 138.227 2.10503C144.505 1.46342 146.657 6.90346 147.101 7.22427C149.178 8.70543 154.302 10.7941 158.196 13.7086L158.203 13.7155Z" fill="#0B0D0B"/>
<path d="M144.205 38.2741C144.314 42.3763 143.98 67.3855 144.547 68.8052C145.161 70.3615 146.965 67.5766 147.621 66.9282L151.549 63.5153C153.325 63.5563 151.659 73.003 154.794 71.0167C144.998 84.8113 143.727 98.2101 146.091 114.68C149.028 111.834 152.355 109.445 155.477 106.838C159.911 104.128 152.594 114.366 156.161 118.093C143.331 134.577 145.134 151.082 146.091 170.623C148.147 168.726 150.442 167.081 152.752 165.504C153.346 169.402 149.923 179.401 152.752 179.831C149.602 184.145 146.61 191.797 145.92 197.059C145.469 200.527 144.772 216.86 146.945 215.993C144.649 217.393 145.763 215.365 145.066 215.311C143.617 215.188 136.512 231.89 135.679 242.429C135.351 246.545 136.458 251.63 134.996 253.855C134.073 249.255 134.265 244.92 132.605 240.381C126.784 224.457 107.457 220.737 89.2432 212.581C92.9802 212.751 94.9682 209.42 93.3422 206.096C102.579 207.789 115.252 209.093 123.73 213.256C128.745 215.727 134.791 223.816 133.971 216.498C133.308 210.615 121.51 204.042 116.898 201.318C115.696 197.448 118.333 197.312 118.606 196.711C118.804 196.267 118.312 193.858 118.948 193.298C119.46 192.848 121.824 194.923 122.705 193.127C124.475 194.145 127.16 195.332 128.683 196.54C134.203 200.916 134.777 207.591 134.661 193.639C134.538 179.23 132.762 171.436 122.371 161.061C122.125 159.579 126.456 159.156 128.348 155.6C130.651 155.88 131.778 160.201 133.643 158.672C133.875 158.481 134.593 158.105 134.668 157.818C134.982 156.563 133.541 138.611 132.96 135.99C131.887 131.11 129.025 125.895 126.128 121.834C127.235 121.438 125.117 120.257 125.103 119.957C125.083 119.54 128.389 115.042 129.202 112.626C130.685 113.854 133.178 117.158 133.985 113.479C134.149 112.715 134.121 99.507 133.985 97.7869C133.008 85.3779 126.88 74.5524 118.962 65.2081C117.028 61.2834 120.171 61.1195 121.011 59.9182C121.175 59.6793 120.663 57.9661 121.523 57.6999C121.913 57.577 126.36 62.9488 127.501 63.1604C129.612 65.4334 131.751 67.6653 133.821 69.9861C134.661 66.0408 134.272 62.0274 134.333 58.048C144 54.5464 131.956 40.6563 143.037 34.5132C144.342 34.6907 142.682 38.5267 144.232 38.2673L144.205 38.2741Z" fill="#B1E1CA"/>
<path d="M158.203 220.437C145.339 230.437 144.068 244.62 145.913 259.835C147.443 272.469 153.182 277.602 148.133 278.769C138.043 281.096 136.246 260.128 134.989 253.869C136.451 251.644 135.344 246.559 135.672 242.443C136.512 231.904 143.617 215.202 145.059 215.325C145.756 215.379 144.642 217.406 146.938 216.007C151.166 213.42 155.122 211.065 159.57 208.847C159.221 212.587 156.967 217.7 158.203 220.444V220.437Z" fill="url(#paint0_linear_603_6358)"/>
<path d="M113.134 144.706C114.753 147.88 108.106 144.781 107.668 149.826C92.857 139.123 77.1985 129.581 63.4529 117.417C58.3495 112.906 54.6945 106.612 48.2589 103.773C46.7081 103.077 47.3981 97.1726 46.8926 93.2001C49.0924 93.4253 69.7996 114.066 80.184 122.195C90.7118 130.434 101.977 137.41 113.134 144.706Z" fill="#EBECE4"/>
<path d="M108.693 95.5823C105.974 93.4459 103.597 99.4525 104.594 101.384C97.8308 95.3707 90.4866 89.9375 84.4473 83.1323C82.0083 80.3816 72.6009 65.0717 68.3994 68.6347C60.7956 57.9389 65.4685 65.9522 64.9835 70.853C64.6555 74.1498 58.2951 83.6101 58.4933 88.0809C56.0885 93.3708 55.4258 96.3673 56.1021 85.18C56.4779 78.9892 62.8041 56.1642 71.6376 58.0618C73.3114 58.4235 86.0869 74.4228 88.5395 76.9961C93.9571 82.6887 102.593 90.3198 108.687 95.5891L108.693 95.5823Z" fill="#EBECE4"/>
<path d="M209.073 127.99C206.456 130.564 203.894 132.987 201.223 135.492C183.139 133.137 193.51 139.096 198.319 137.881C198.784 137.765 200.342 135.267 200.54 136.174C187.511 148.324 174.094 160.037 160.594 171.647C160.881 171.169 161.209 170.821 161.619 170.453C160.792 167.456 161.797 163.566 159.569 161.074C170.336 153.614 179.559 145.799 189.103 136.857C193.578 132.666 200.833 124.414 203.614 122.189L209.079 127.99H209.073Z" fill="#EBECE4"/>
<path d="M210.781 61.8158C209.537 63.0785 209.415 61.8567 207.023 63.5222C206.354 63.9931 201.592 68.8598 202.241 69.324C201.319 69.9588 190.081 83.5623 187.56 86.2106C179.935 94.2171 163.43 109.411 158.538 115.035C163.206 110.089 167.873 105.143 172.536 100.196C170.425 98.565 172.092 95.6437 168.779 95.2478C181.37 83.3848 198.702 60.7646 200.704 59.4336C205.131 56.4781 207.611 58.3825 210.774 61.8226L210.781 61.8158Z" fill="#E8F1DF"/>
<path d="M144.205 38.2742C142.654 38.5335 144.314 34.6975 143.009 34.5201C131.928 40.67 143.973 54.5533 134.306 58.0549C134.422 50.6491 133.609 13.7906 133.964 11.4903C134.292 9.36074 138.746 4.32341 142.155 9.10136C144.567 12.4801 144.048 32.4246 144.205 38.2673V38.2742Z" fill="#EBECE4"/>
<path d="M229.903 187.687C220.407 198.24 206.073 205.844 193.373 211.905C192.649 210.035 185.687 212.895 181.424 212.587C193.947 202.199 209.394 196.568 222.395 187.005C224.205 189.114 229.568 186.036 229.903 187.687Z" fill="#1A5E46"/>
<path d="M177.318 49.1952C175.214 51.1064 172.495 52.4647 170.316 54.3144C165.212 59.7476 159.105 64.9351 154.78 71.0304C151.645 73.0167 153.318 63.5632 151.535 63.529L147.607 66.9419C156.249 58.362 168.984 45.1134 179.361 39.3116C183.399 43.994 181.021 45.8233 177.312 49.202L177.318 49.1952Z" fill="#D0ECD7"/>
<path d="M160.253 242.948C174.764 239.337 187.949 234.464 201.223 227.597C210.31 222.894 218.815 217.092 226.829 211.393C213.575 230.471 184.97 242.409 162.473 243.972C158.101 244.272 152.635 244.845 160.253 242.948Z" fill="#3E9772"/>
<path d="M235.02 124.236C232.13 126.291 211.751 142.754 211.122 144.195C209.599 147.669 215.365 148.433 221.875 145.048C228.946 141.369 235.962 131.813 236.898 131.403C237.035 131.342 236.953 132.345 237.752 132.086C238.401 136.086 238.244 140.106 237.411 144.024C226.541 156.331 207.146 173.313 189.779 165.852C182.627 171.709 195.388 170.753 195.074 173.866C194.835 176.227 186.801 178.514 181.247 176.425L155.983 192.459C154.063 191.414 167.221 175.081 168.102 173.866C168.457 173.381 169.264 172.289 168.785 171.647C187.491 155.723 214.169 132.775 229.049 114.339C230.087 114.257 234.425 122.83 235.027 124.23L235.02 124.236Z" fill="#3E9772"/>
<path d="M237.411 144.024C234.104 159.559 211.819 175.49 198.832 183.251C197.383 181.777 197.479 183.203 197.295 183.251C181.698 187.223 166.162 191.435 150.688 195.872C152.977 180.07 159.925 179.196 168.785 171.654C169.264 172.296 168.458 173.381 168.102 173.872C167.221 175.087 154.063 191.421 155.983 192.466L181.247 176.432C186.801 178.521 194.835 176.234 195.074 173.872C195.388 170.753 182.627 171.716 189.78 165.859C207.146 173.32 226.541 156.337 237.411 144.031V144.024Z" fill="#267457"/>
<path d="M198.832 183.251C183.18 192.595 166.155 199.448 150.517 208.833C149.192 208.403 150.449 197.516 150.688 195.871C166.155 191.435 181.698 187.223 197.295 183.251C197.479 183.203 197.384 181.777 198.832 183.251Z" fill="#1A5E46"/>
<path d="M235.02 124.236C235.983 126.489 237.377 129.758 237.753 132.079C236.953 132.338 237.035 131.335 236.899 131.396C235.963 131.806 228.947 141.362 221.876 145.041C215.365 148.426 209.599 147.662 211.122 144.188C211.751 142.754 232.13 126.284 235.02 124.229V124.236Z" fill="#5CB898"/>
<path d="M169.469 238.511C165.691 239.794 162.043 241.125 158.203 242.265C156.509 242.764 150.579 245.371 150.012 244.142C150.374 240.102 150.797 236.559 153.94 233.74C157.609 230.437 185.872 220.348 194.056 216.683C204.618 229.201 176.321 233.208 169.476 238.511H169.469Z" fill="#F5DEC9"/>
<path d="M201.565 225.208C190.722 231.105 181.055 234.58 169.469 238.511C176.314 233.201 204.618 229.201 194.05 216.683C194.33 216.56 195.143 216.464 195.416 216.342C199.72 223.406 205.752 218.737 210.951 215.318C211.109 218.499 220.55 211.004 223.071 207.987C225.797 204.724 227.826 200.759 228.537 196.561C234.439 191.496 237.65 184.445 236.045 192.977C233.353 207.318 213.636 218.642 201.558 225.215L201.565 225.208Z" fill="#F4CAB3"/>
<path d="M228.537 196.554C227.833 200.752 225.797 204.718 223.071 207.98C220.55 210.997 211.109 218.492 210.952 215.311C205.753 218.731 199.72 223.399 195.416 216.335C206.682 211.216 219.109 204.636 228.537 196.547V196.554Z" fill="#F5DEC9"/>
<path d="M108.693 95.5822C116.195 100.442 122.371 106.995 129.182 112.64C128.376 115.063 125.062 119.554 125.083 119.97C125.096 120.271 127.214 121.445 126.108 121.847C119.74 112.906 111.932 107.903 104.601 101.377C103.597 99.4524 105.981 93.439 108.7 95.5754L108.693 95.5822Z" fill="#D0ECD7"/>
<path d="M199.856 198.943C188.803 204.656 176.792 209.059 166.053 215.318C162.644 215.14 170.377 207.98 171.177 203.38C196.318 190.964 223.235 178.609 239.46 154.597C240.95 154.986 236.946 162.146 235.361 164.658C228.256 175.927 218.945 181.845 218.972 183.08C218.979 183.415 219.99 183.647 219.997 183.763C220.085 185.503 200.362 196.472 199.508 198.431C199.488 198.479 199.925 198.69 199.85 198.943H199.856Z" fill="#F5DEC9"/>
<path d="M199.856 198.943C199.932 198.69 199.494 198.479 199.515 198.431C200.369 196.472 220.092 185.503 220.003 183.763C220.003 183.647 218.986 183.415 218.979 183.08C218.951 181.845 228.256 175.927 235.368 164.658C236.953 162.146 240.957 154.986 239.467 154.597C239.788 154.126 240.362 151.983 241.175 152.037C242.747 162.521 241.312 166.453 234.685 174.207C225.325 185.176 212.482 192.411 199.856 198.936V198.943Z" fill="#F4CAB3"/>
<path d="M122.692 193.141C121.81 194.936 119.447 192.861 118.934 193.312C118.299 193.865 118.791 196.281 118.593 196.725C118.319 197.325 115.682 197.462 116.885 201.332C111.932 198.411 105.646 195.032 100.495 192.465L104.253 184.281C110.278 187.435 116.755 189.735 122.692 193.148V193.141Z" fill="#B1E1CA"/>
<path d="M127.474 63.181C126.333 62.9694 121.885 57.6044 121.496 57.7204C120.635 57.9866 121.147 59.6999 120.983 59.9388C120.143 61.1401 117.007 61.2971 118.934 65.2287C116.618 62.4984 107.183 53.0039 104.594 51.2429C105.844 49.6662 102.633 46.151 102.203 42.8883C101.472 42.0283 100.953 40.7724 100.153 39.9874C110.346 46.3626 119.323 54.4373 127.467 63.181H127.474Z" fill="#B1E1CA"/>
<path d="M133.622 158.692C131.757 160.228 130.63 155.9 128.328 155.621C126.442 159.177 122.111 159.6 122.35 161.081C118.367 157.109 112.287 153.157 107.668 149.826C108.106 144.782 114.753 147.88 113.134 144.706C117.322 147.45 124.4 151.532 127.645 153.914C130.671 156.139 132.393 158.788 133.622 158.692Z" fill="#D0ECD7"/>
<path d="M168.786 95.241C172.092 95.6369 170.425 98.5514 172.543 100.19C167.875 105.136 163.209 110.082 158.545 115.029C157.711 115.984 156.939 117.09 156.154 118.1C152.588 114.373 159.904 104.128 155.471 106.845C159.918 103.131 164.577 99.2135 168.786 95.2478V95.241Z" fill="#E8F1DF"/>
<path d="M160.595 171.654C159.249 173.866 154.555 177.353 152.745 179.838C149.916 179.408 153.339 169.408 152.745 165.511C154.979 163.982 157.363 162.61 159.577 161.074C161.804 163.573 160.8 167.463 161.626 170.453C161.216 170.815 160.888 171.169 160.601 171.647L160.595 171.654Z" fill="#D0ECD7"/>
<path d="M193.366 211.905C180.768 217.918 167.241 222.123 155.299 229.303C153.045 229.447 161.284 223.495 161.79 223.16C167.604 219.27 175.228 216.021 181.424 212.587C185.687 212.895 192.649 210.035 193.373 211.905H193.366Z" fill="#267457"/>
<path d="M93.3283 206.11C94.9543 209.434 92.9662 212.758 89.2292 212.594C81.6596 209.202 73.9465 205.987 67.0396 201.339C74.3632 203.939 85.7314 204.724 93.3283 206.117V206.11Z" fill="#B1E1CA"/>
<path d="M166.053 215.318C163.45 216.833 160.574 218.587 158.203 220.437C156.967 217.693 159.221 212.581 159.569 208.84C163.395 206.929 167.344 205.277 171.177 203.38C170.384 207.98 162.651 215.14 166.053 215.318Z" fill="#D0ECD7"/>
<path d="M236.728 101.725L232.97 111.616C230.429 109.049 228.584 107.589 225.462 110.251C225.592 110.046 224.909 109.745 225.121 109.397C225.496 108.769 226.432 107.923 227.17 106.496C229.418 102.128 232.28 98.9336 230.586 93.5345C233.783 94.6608 235.703 98.7289 236.735 101.718L236.728 101.725Z" fill="#F4CAB3"/>
<path d="M101.185 182.568L98.1107 191.094C94.8724 189.51 91.4497 188.234 88.2114 186.657L93.3353 178.473C95.9314 179.852 98.5821 181.196 101.185 182.568Z" fill="#D0ECD7"/>
<path d="M127.816 140.611C126.661 140.864 127.187 137.751 125.766 135.321C123.546 131.526 109.691 124.564 104.936 123.212C99.7983 119.445 93.8819 116.189 88.5463 112.64C88.6419 112.203 89.127 112.182 88.7171 111.616C87.2961 109.664 62.3395 94.6813 65.6734 80.402C65.8647 79.5761 68.9868 75.6719 66.6982 76.136C67.1628 75.4398 69.2396 71.5833 69.9433 71.6993C76.29 80.5795 83.4498 88.8317 91.4498 96.258C106.644 110.353 124.222 117.964 127.809 140.604L127.816 140.611Z" fill="#3E9772"/>
<path d="M88.553 112.64C93.8886 116.189 99.805 119.445 104.942 123.212C110.203 127.076 125.677 139.649 128.157 145.041C128.164 145.184 128.731 145.171 128.499 147.942C103.392 132.222 77.8202 116.428 57.4819 94.3877C58.3632 92.5448 59.1011 90.6473 59.8731 88.7566C66.3974 100.203 78.1345 105.698 88.553 112.633V112.64Z" fill="#1A5E46"/>
<path d="M88.553 112.64C78.1345 105.705 66.3974 100.21 59.873 88.7635C61.5263 84.7159 64.2727 79.7946 66.7048 76.1428C68.9935 75.6719 65.8714 79.583 65.6801 80.4089C62.3462 94.6881 87.3096 109.67 88.7237 111.623C89.1337 112.189 88.6486 112.21 88.553 112.646V112.64Z" fill="#267457"/>
<path d="M127.815 140.611C128.061 142.181 128.068 143.498 128.157 145.048C125.677 139.656 110.203 127.076 104.942 123.219C109.697 124.571 123.552 131.533 125.773 135.328C127.187 137.751 126.668 140.87 127.822 140.618L127.815 140.611Z" fill="#267457"/>
<path d="M201.223 227.597C187.949 234.464 174.763 239.337 160.253 242.948L158.203 242.265C162.043 241.132 165.691 239.794 169.469 238.511C181.056 234.58 190.723 231.105 201.565 225.208L201.223 227.597Z" fill="#181D19"/>
<path d="M98.4525 48.5126C98.1656 49.1542 96.6694 49.0996 96.7446 50.0484C96.9359 52.5466 119.898 64.2116 126.108 89.446C112.943 76.9346 97.4551 67.1262 86.1621 52.608C87.9384 48.5877 90.3637 44.8677 92.9939 41.3525L98.4594 48.5126H98.4525Z" fill="#3E9772"/>
<path d="M126.108 89.446C126.128 89.5348 126.429 89.2481 126.791 91.1524C121.127 90.7224 116.461 87.2687 112.109 83.9923C106.76 79.9652 86.6129 61.8636 85.1372 55.6796C85.4993 54.6626 85.7111 53.6319 86.162 52.608C97.4549 67.1262 112.949 76.9346 126.108 89.446Z" fill="#2E8665"/>
<path d="M112.109 83.9855C111.03 85.3575 109.137 87.5212 107.327 87.057C103.487 83.5555 84.5838 65.7269 83.4292 62.669C82.5069 60.2391 84.3447 57.8979 85.1372 55.6727C86.6128 61.8568 106.76 79.9584 112.109 83.9855Z" fill="#267457"/>
<path d="M126.79 91.1524C127.166 93.125 128.444 104.299 127.303 104.456C120.744 98.5241 113.872 93.0158 107.327 87.057C109.137 87.5212 111.029 85.3574 112.109 83.9855C116.461 87.2686 121.127 90.7156 126.79 91.1456V91.1524Z" fill="#1A5E46"/>
<path d="M100.16 39.9806C100.96 40.7656 101.479 42.0215 102.21 42.8815C102.64 46.1442 105.851 49.6594 104.601 51.2361C102.756 49.9802 100.57 49.1679 98.4523 48.5059L92.9868 41.3458C95.6785 37.7486 95.2618 35.1685 100.153 39.9806H100.16Z" fill="#B1E1CA"/>
<path d="M46.2165 108.885C43.7843 115.138 40.8057 121.219 38.3667 127.478C37.1028 118.728 36.9525 109.472 40.0747 101.043C42.6229 103.568 44.611 108.271 46.2233 108.885H46.2165Z" fill="#F4CAB3"/>
<path d="M46.8997 93.2001C47.4052 97.1726 46.7084 103.077 48.266 103.773C47.9859 105.65 46.8723 107.206 46.2165 108.892C44.6042 108.278 42.623 103.568 40.0679 101.05C41.0926 98.292 43.2447 92.8315 46.8997 93.2069V93.2001Z" fill="#F4CAB3"/>
<path d="M190.299 49.5365C191.269 51.3999 193.51 55.0994 193.715 57.0379C187.88 61.5292 181.506 65.3447 175.788 69.9998C168.478 75.9518 156.522 90.2856 157.178 82.4498C157.417 79.5557 166.606 66.3276 161.277 69.9998C167.248 62.6281 179.505 52.608 180.058 51.4067C180.55 50.3283 180.461 50.0894 179.716 49.1884C183.262 49.086 186.753 49.7276 190.299 49.5297V49.5365Z" fill="#3E9772"/>
<path d="M167.419 88.4223C167.645 86.7568 166.135 89.0912 163.149 90.8112C159.173 93.1047 154.658 94.7155 150.347 96.2718C150.374 95.9919 149.821 94.8998 150.688 90.6406C152.321 82.6341 156.208 76.259 161.271 69.9999C166.6 66.3277 157.418 79.5558 157.172 82.4498C156.516 90.2857 168.465 75.9518 175.781 69.9999C181.493 65.3448 187.874 61.5292 193.708 57.038C193.756 57.4953 193.537 57.9116 194.05 58.2325C186.439 69.4129 176.977 78.9141 167.419 88.4223Z" fill="#267457"/>
<path d="M167.419 88.4222C161.735 94.0739 156.154 99.7869 150.176 105.138C148.7 104.933 150.258 97.2683 150.347 96.2717C154.657 94.7155 159.173 93.1046 163.149 90.8112C166.135 89.0912 167.645 86.7568 167.419 88.4222Z" fill="#1A5E46"/>
<path d="M190.299 49.5365C186.753 49.7345 183.262 49.0929 179.716 49.1952C178.876 49.2157 178.104 49.6526 177.325 49.1952C181.035 45.8165 183.412 43.9805 179.375 39.3049C179.812 39.0592 181.602 37.5643 181.937 37.5985C185.4 41.0727 188.044 45.2022 190.299 49.5365Z" fill="#5CB898"/>
<path d="M229.903 187.688C229.562 186.036 224.205 189.114 222.395 187.005C229.022 182.131 235.246 176.651 239.638 169.606C238.32 176.657 234.617 182.452 229.91 187.688H229.903Z" fill="#2E8665"/>
<path d="M108.693 203.38C94.5581 201.496 70.0866 201.933 58.8483 193.148C57.7347 188.036 56.6826 183.565 58.8483 178.48C72.1156 186.978 91.1695 193.387 108.693 203.38Z" fill="#3E9772"/>
<path d="M53.7243 174.726C51.1213 181.34 53.1914 188.725 58.8481 193.148C70.0864 201.933 94.5648 201.503 108.693 203.38C113.851 206.322 119.357 209.216 123.716 213.27C115.238 209.1 102.565 207.796 93.3282 206.11C85.7244 204.717 74.3631 203.933 67.0394 201.332C61.1504 199.243 50.8071 191.94 46.2093 187.176C45.9838 186.247 51.5654 173.661 52.8703 173.702C53.205 173.852 53.6696 174.691 53.7243 174.726Z" fill="#1A5E46"/>
<path d="M58.8482 178.473C56.6826 183.558 57.7347 188.029 58.8482 193.141C53.1915 188.718 51.1215 181.333 53.7244 174.719C55.5417 175.825 57.0856 177.347 58.8482 178.473Z" fill="#267457"/>
<path d="M223.413 112.64C222.593 113.814 222.012 115.281 220.68 116.052C220.762 115.834 221.288 114.728 221.192 114.687C217.92 115.37 217.401 110.216 213.855 110.251C216.021 107.418 217.811 104.23 220.004 101.384C221.773 104.947 222.716 108.756 223.42 112.64H223.413Z" fill="#F6ECDE"/>
<path d="M230.586 93.5414C232.28 98.9404 229.425 102.135 227.17 106.503C225.367 104.367 224.492 97.0224 222.046 98.3193C224.636 95.1659 226.125 91.9715 230.579 93.5414H230.586Z" fill="#F5DEC9"/>
<path d="M216.588 120.489C216.472 121.472 214.115 123.001 212.489 124.584L206.511 120.148C205.718 120.004 205.548 120.544 204.974 120.83C207.501 117.561 210.289 114.544 212.823 111.281C214.238 113.049 214.552 120.571 214.873 121.001C215.624 121.533 216.041 120.796 216.581 120.489H216.588Z" fill="#F6ECDE"/>
<path d="M37.335 171.313L42.1172 162.105C42.1787 162.221 43.7159 163.409 43.4836 164.323L41.7756 171.149C40.7099 187.687 42.206 172.794 45.0207 166.2L50.3154 171.832C44.5357 182.671 46.312 190.343 40.4161 180.015C38.8994 177.36 37.9908 174.289 37.3418 171.32L37.335 171.313Z" fill="#F4CAB3"/>
<path d="M42.1172 162.105L37.335 171.313C36.0028 165.224 35.8798 158.917 35.9686 152.72C38.0455 155.266 40.6621 159.197 42.1172 162.098V162.105Z" fill="#F6ECDE"/>
<path d="M232.971 111.616L236.728 101.725C238.709 107.493 239.037 114.605 238.778 120.66C236.592 118.114 235.355 114.032 232.971 111.623V111.616Z" fill="#F5DEC9"/>
<path d="M101.185 223.843C99.0811 229.324 92.0785 236.921 97.257 236.805C99.2929 236.757 104.075 227.768 105.278 225.549C110.483 227.802 116.359 229.29 120.984 232.709C118.183 235.658 113.927 237.576 110.743 240.381C113.831 241.098 118.033 241.555 120.301 242.941C116.277 242.149 112.321 241.235 108.352 240.211C97.5849 237.433 91.5046 235.447 81.3799 230.662C83.5114 226.409 86.7702 222.928 89.9128 219.406C93.5542 221.017 97.4824 222.253 101.178 223.843H101.185Z" fill="#F5DEC9"/>
<path d="M70.7971 210.198C68.1782 213.498 65.5617 216.794 62.9474 220.089C61.3077 219.024 59.4836 218.082 57.8235 217.017C56.7031 216.028 55.4597 214.997 54.4076 213.946C53.2462 212.785 52.1053 211.775 50.9917 210.533L53.3828 200.301C58.739 204.049 65.0037 207.168 70.7971 210.192V210.198Z" fill="#F5DEC9"/>
<path d="M89.9195 219.413C86.7769 222.935 83.5113 226.416 81.3866 230.669C78.8725 229.481 76.3174 228.232 73.8784 226.914C75.5249 222.683 79.2892 219.481 81.7282 215.659C84.4472 216.915 87.1868 218.205 89.9195 219.413Z" fill="#F4CAB3"/>
<path d="M53.3831 200.308L50.9919 210.54C44.693 203.502 41.5299 198.479 40.0679 188.882C44.3309 192.902 48.5666 196.936 53.3831 200.308Z" fill="#F4CAB3"/>
<path d="M123.033 243.631C122.896 243.61 121.715 243.228 120.3 242.948C118.032 241.562 113.831 241.105 110.743 240.388C113.933 237.576 118.183 235.665 120.984 232.716C122.794 234.061 124.276 235.351 125.424 237.324C130.569 246.156 126.326 244.163 123.033 243.637V243.631Z" fill="#F4CAB3"/>
<path d="M81.7213 215.659C79.2823 219.481 75.518 222.683 73.8716 226.914C71.6034 225.693 69.5675 224.143 67.3813 222.819C80.0885 210.99 74.1858 213.727 72.5052 211.734C72.4847 211.714 72.9083 211.475 72.8468 211.222C75.7981 212.717 78.7153 214.273 81.7213 215.659Z" fill="#F5DEC9"/>
<path d="M72.847 211.222C72.9085 211.475 72.4849 211.714 72.5054 211.734C74.1929 213.727 80.0956 210.99 67.3816 222.819C65.8513 221.891 64.4576 221.072 62.9409 220.089C65.5598 216.79 68.1763 213.493 70.7907 210.198C71.467 210.553 72.157 210.874 72.8402 211.222H72.847Z" fill="#F4CAB3"/>
<path d="M105.284 225.549C104.082 227.768 99.2927 236.764 97.2637 236.805C92.0783 236.921 99.0809 229.324 101.192 223.843C102.545 224.423 103.918 224.955 105.291 225.549H105.284Z" fill="#F4CAB3"/>
<path d="M227.17 106.503C226.433 107.93 225.497 108.776 225.121 109.404C224.909 109.752 225.592 110.053 225.463 110.257C224.212 112.278 223.502 112.517 223.413 112.646C222.716 108.763 221.767 104.954 219.997 101.391C220.735 100.428 221.281 99.2544 222.047 98.3193C224.492 97.0224 225.36 104.374 227.17 106.503Z" fill="#F4CAB3"/>
<path d="M88.8948 176.091L82.063 183.933C78.3875 182.179 75.1697 181.183 70.7974 178.814C73.291 176.753 80.683 173.852 80.0135 171.313C82.9375 172.958 85.9298 174.5 88.888 176.091H88.8948Z" fill="#F5DEC9"/>
<path d="M55.091 155.962C52.0167 156.644 48.9447 157.327 45.8749 158.01C41.4342 151.764 37.2327 144.447 37.5128 136.522C42.1926 145.116 47.3847 150.174 55.0978 155.969L55.091 155.962Z" fill="#EBECE4"/>
<path d="M76.2626 169.265C73.851 171.756 68.9799 173.77 68.0713 177.108C64.9218 175.272 62.1003 173.524 59.1968 171.306C62.4419 170.514 67.2241 167.948 69.4376 165.504C71.6238 166.828 74.0354 167.975 76.2694 169.258L76.2626 169.265Z" fill="#F5DEC9"/>
<path d="M66.0152 163.129C62.7086 164.767 55.4601 167.436 56.7991 169.272C54.1415 167.067 52.2833 165.388 49.9673 162.787C53.4925 160.808 59.8392 159.409 57.817 158.01C60.3721 159.825 63.344 161.436 66.0084 163.129H66.0152Z" fill="#F5DEC9"/>
<path d="M93.3286 178.473L88.2048 186.657C86.1962 185.681 84.092 184.896 82.0562 183.927L88.888 176.084C90.3636 176.876 91.8461 177.688 93.3286 178.473Z" fill="#F5DEC9"/>
<path d="M69.4309 165.511C67.2173 167.955 62.4283 170.521 59.19 171.313C58.1652 170.528 57.5913 169.92 56.7988 169.265C55.4598 167.429 62.7084 164.76 66.015 163.122C67.6751 164.173 69.2532 165.402 69.4309 165.511Z" fill="#F5DEC9"/>
<path d="M80.0133 171.313C80.676 173.852 73.2908 176.76 70.7972 178.814C69.8202 178.289 68.9799 177.64 68.0645 177.108C68.9731 173.763 73.851 171.75 76.2558 169.265C77.4855 169.968 78.7767 170.616 80.0133 171.313Z" fill="#F5DEC9"/>
<path d="M55.0911 155.962C55.9792 156.631 56.9289 157.375 57.8238 158.01C59.846 159.409 53.4993 160.808 49.9741 162.788C48.4779 161.108 47.2619 159.955 45.875 158.01C48.9493 157.327 52.0213 156.644 55.0911 155.962Z" fill="#F4CAB3"/>
<path d="M220.68 116.052C220.236 117.206 217.613 119.902 216.581 120.489C216.042 120.796 215.632 121.533 214.873 121.001C214.559 120.564 214.238 113.049 212.824 111.281C213.452 110.476 213.801 110.312 213.849 110.257C217.394 110.223 217.913 115.37 221.186 114.694C221.281 114.735 220.755 115.841 220.673 116.059L220.68 116.052Z" fill="#F5DEC9"/>
<path d="M68.4063 68.6347C67.2312 69.6312 59.7435 85.3507 58.507 88.0809C58.3089 83.6101 64.6693 74.1498 64.9972 70.853C65.4822 65.9522 60.8025 57.9457 68.4131 68.6347H68.4063Z" fill="#F5DEC9"/>
<path d="M212.489 124.578C211.341 125.69 210.221 126.864 209.073 127.99L203.607 122.189C204.113 121.786 204.27 121.172 204.974 120.824C205.548 120.544 205.718 119.998 206.511 120.141L212.489 124.578Z" fill="#F5DEC9"/>
<path d="M104.259 184.275L100.502 192.459C99.689 192.056 98.8965 191.476 98.1108 191.093L101.185 182.568C102.217 183.114 103.235 183.735 104.259 184.275Z" fill="#F5DEC9"/>
<path d="M126.107 176.091C122.275 173.722 118.183 171.893 113.988 170.289C110.586 168.992 103.638 166.685 100.502 166.535C95.4804 164.262 90.1379 162.753 85.1371 160.392C85.0619 159.9 85.2464 159.17 85.1371 158.856C84.8843 158.139 79.8219 155.191 79.1592 145.382C75.798 144.031 70.7766 150.44 56.9695 138.556C47.3845 130.311 45.0276 123.95 48.2658 111.438L47.5827 111.609C47.8833 111.083 48.9353 107.868 49.4614 107.855C62.2095 123.52 78.4761 135.833 94.8724 147.423C107.381 156.269 121.004 160.317 126.114 176.077L126.107 176.091Z" fill="#3E9772"/>
<path d="M85.1369 160.399C90.1378 162.753 95.4803 164.262 100.502 166.542C104.02 168.132 126.087 177.756 126.79 179.674C126.852 179.838 126.852 181.299 126.79 181.551C126.49 182.793 122.671 184.909 122.008 186.329C106.363 178.643 91.7501 172.166 76.5972 163.136C75.0122 159.702 78.9883 160.774 80.3547 158.016C81.9601 158.788 83.5246 159.648 85.1369 160.405V160.399Z" fill="#1A5E46"/>
<path d="M80.3547 158.01C78.9883 160.767 75.019 159.689 76.5972 163.129C62.3392 154.631 47.3161 145.252 39.7259 129.867C39.562 128.366 41.7755 123.615 42.4587 121.854C47.7328 139.669 66.3905 147.873 80.3547 158.01Z" fill="#267457"/>
<path d="M85.1368 160.399C83.5245 159.641 81.96 158.781 80.3545 158.01C66.3835 147.867 47.7258 139.662 42.4585 121.854C44.0845 117.663 45.4098 115.418 47.5823 111.623L48.2655 111.452C45.0341 123.963 47.3911 130.325 56.9692 138.57C70.7763 150.454 75.7977 144.044 79.1589 145.396C79.8216 155.204 84.884 158.16 85.1368 158.87C85.2461 159.184 85.0616 159.914 85.1368 160.405V160.399Z" fill="#267457"/>
<path d="M126.107 176.091C126.756 178.091 127.125 179.463 127.473 181.551H126.79C126.852 181.299 126.852 179.838 126.79 179.674C126.087 177.756 104.02 168.132 100.501 166.542C103.637 166.692 110.585 168.992 113.987 170.296C118.182 171.893 122.281 173.722 126.107 176.098V176.091Z" fill="#267457"/>
<path d="M127.474 181.544C127.897 184.097 127.856 186.705 128.499 189.216L127.986 189.728C127.631 189.762 122.862 186.739 122.008 186.316C122.671 184.903 126.49 182.787 126.791 181.538H127.474V181.544Z" fill="#073A29"/>
<path d="M212.83 68.6346C213.568 68.8052 214.483 69.1533 215.221 68.6346C217.203 72.1566 217.66 72.8255 218.979 76.8185C209.886 90.6882 210.801 77.0165 208.738 71.8699C208.157 70.4229 207.419 70.7505 207.372 70.6755C207.283 70.5389 207.747 68.6687 205.664 68.2865C206.087 66.1023 210.664 68.1227 212.83 68.6278V68.6346Z" fill="#5CB898"/>
<path d="M215.221 68.6346C214.483 69.1534 213.568 68.8052 212.83 68.6346C212.16 66.2798 208.396 65.5085 207.023 63.5154C209.414 61.8499 209.53 63.0717 210.78 61.809C212.714 63.9044 213.848 66.1842 215.221 68.6346Z" fill="#91D6B7"/>
<path d="M212.83 68.6346C210.658 68.1295 206.08 66.1091 205.664 68.2933C204.133 68.0135 203.402 68.5186 202.248 69.3172C201.599 68.853 206.354 63.9864 207.03 63.5154C208.403 65.5016 212.161 66.2798 212.837 68.6346H212.83Z" fill="#91D6B7"/>
<path d="M201.223 135.499C200.998 135.71 200.786 135.949 200.54 136.181C200.342 135.273 198.784 137.772 198.319 137.888C193.51 139.103 183.139 133.144 201.223 135.499Z" fill="#F5DEC9"/>
<path d="M129.523 32.8205C123.265 30.1858 120.82 32.3973 119.453 38.6223C116.898 37.4278 112.3 36.0012 111.433 34.5269C116.119 27.2917 122.493 21.3193 129.018 15.7632C129.585 21.4421 129.516 27.1211 129.53 32.8205H129.523Z" fill="#5CB898"/>
<path d="M129.523 32.8205C129.537 37.4756 129.789 43.1887 129.523 47.6595C129.509 47.9188 128.84 48.1304 128.84 48.1714C125.97 46.9974 126.462 47.7891 126.449 50.5604C121.584 45.448 115.074 42.0966 109.376 37.9397C110.175 36.2129 110.524 35.9194 111.426 34.5269C112.293 36.0013 116.898 37.4278 119.446 38.6223C120.812 32.3973 123.258 30.1858 129.516 32.8205H129.523Z" fill="#3E9772"/>
<path d="M126.449 50.5603C126.442 52.5466 127.474 54.1711 126.107 54.6557C119.952 49.8914 114.199 44.5469 108.01 39.8167C108.413 39.3867 109.164 38.397 109.376 37.9397C115.074 42.0965 121.585 45.4479 126.449 50.5603Z" fill="#267457"/>
<path d="M128.84 48.1715C128.656 50.8198 128.977 53.5364 128.84 56.1848L128.328 56.6967C127.426 56.0278 126.353 54.8401 126.107 54.649C127.474 54.1644 126.442 52.5399 126.449 50.5536C126.463 47.7824 125.971 46.9906 128.84 48.1647V48.1715Z" fill="#1A5E46"/>
<path d="M168.103 33.5031C167.419 36.3471 166.736 39.1889 166.053 42.0283C164.611 43.3184 163.006 44.4583 161.612 45.7824C158.852 37.4688 158.839 28.7115 148.297 36.9159C148.249 29.0801 148.092 21.2101 148.468 13.3811C156.823 18.1044 163.792 24.8482 168.103 33.5099V33.5031Z" fill="#5CB898"/>
<path d="M161.619 45.7824C161.394 45.994 161.175 46.2398 160.936 46.465C155.969 48.5127 152.676 53.0859 148.304 56.0141C147.949 50.9904 148.338 42.6495 148.304 36.9091C158.845 28.7047 158.859 37.462 161.619 45.7756V45.7824Z" fill="#3E9772"/>
<path d="M160.936 46.465C156.796 50.417 152.963 54.7854 148.816 58.7443C147.976 58.1641 148.379 57.072 148.304 56.014C152.676 53.079 155.969 48.5127 160.936 46.465Z" fill="#267457"/>
<path d="M166.053 42.0283C166.736 39.1843 167.419 36.3425 168.102 33.5031C168.915 35.1412 169.94 36.6838 170.493 38.4516C170.432 38.868 166.743 41.414 166.053 42.0351V42.0283Z" fill="#3E9772"/>
<path d="M218.972 76.8253C219.477 78.3543 220.413 79.9583 220.68 81.6033C219.416 81.8422 218.623 86.0741 217.264 88.2583C214.251 93.0909 187.122 117.54 180.734 123.226C179.744 121.247 166.715 132.325 168.102 134.14C166.251 135.703 158.012 146.017 157.178 139.601C156.187 131.977 170.637 112.735 170.835 110.776C170.862 110.544 170.07 110.735 170.152 110.264C177.243 102.858 184.615 95.7119 191.658 88.2651C197.001 82.6203 202.541 76.5182 207.365 70.6959C207.412 70.771 208.15 70.4434 208.731 71.8904C210.794 77.0369 209.879 90.7087 218.972 76.839V76.8253Z" fill="#3E9772"/>
<path d="M220.68 81.5964C221.93 89.3913 219.758 91.1387 215.898 97.4592C203.484 117.806 176.062 143.157 156.488 156.986C155.245 156.972 151.194 151.273 151.023 150.843C149.991 148.269 150.579 142.795 151.023 139.928C153.025 141.921 154.289 139.225 157.172 139.587C158.005 146.003 166.244 135.69 168.096 134.127C172.393 130.502 176.533 126.946 180.728 123.212C187.122 117.527 214.251 93.0772 217.257 88.2446C218.617 86.0672 219.409 81.8353 220.673 81.5896L220.68 81.5964Z" fill="url(#paint1_linear_603_6358)"/>
<path d="M157.178 139.587C154.302 139.225 153.038 141.921 151.03 139.928C153.312 125.124 160.758 120.059 170.152 110.25C170.07 110.721 170.856 110.524 170.835 110.762C170.637 112.721 156.188 131.963 157.178 139.587Z" fill="#267457"/>
<path d="M151.03 150.843C151.2 151.273 155.245 156.965 156.495 156.986C155.457 157.716 150.866 161.764 150.346 160.91C150.647 157.204 149.643 151.116 151.03 150.849V150.843Z" fill="#073A29"/>
<path d="M180.734 123.212C176.533 126.946 172.393 130.509 168.102 134.127C166.715 132.304 179.744 121.233 180.734 123.212Z" fill="#267457"/>
<path d="M59.1898 218.731C67.7364 225.822 83.1216 233.733 93.6767 237.153C94.0252 238.477 93.8749 239.003 92.652 239.542C80.4435 236.252 66.8893 229.331 58.165 220.096L59.1898 218.731Z" fill="#267457"/>
<path d="M108.351 240.218C112.321 241.242 116.276 242.156 120.3 242.948C121.714 243.228 122.889 243.61 123.033 243.631C114.315 243.583 101.11 241.815 92.645 239.535C93.8679 238.996 94.0182 238.47 93.6698 237.146C97.4 238.354 104.73 240.375 108.351 240.218Z" fill="#267457"/>
<path d="M54.4076 213.953C55.4597 215.004 56.7031 216.034 57.8235 217.024C58.288 217.434 58.7184 218.335 59.1898 218.731L58.1651 220.096C56.9285 218.785 51.5177 214.069 54.4076 213.953Z" fill="#1A5E46"/>
<path d="M62.9476 220.096C64.4642 221.079 65.8511 221.898 67.3883 222.826C69.5676 224.15 71.6103 225.7 73.8785 226.921C76.3243 228.239 78.8794 229.488 81.3866 230.675C91.5114 235.467 97.5917 237.453 108.359 240.225C104.738 240.382 97.4072 238.361 93.677 237.153C83.1219 233.733 67.7367 225.822 59.1901 218.731C58.7187 218.335 58.2883 217.434 57.8237 217.024C59.4839 218.082 61.3011 219.031 62.9476 220.096Z" fill="#0B2415"/>
<defs>
<linearGradient id="paint0_linear_603_6358" x1="148.748" y1="214.826" x2="142.631" y2="273.18" gradientUnits="userSpaceOnUse">
<stop stop-color="#9ED7BB"/>
<stop offset="1" stop-color="#73BF99"/>
</linearGradient>
<linearGradient id="paint1_linear_603_6358" x1="194.822" y1="101.077" x2="160.699" y2="154.188" gradientUnits="userSpaceOnUse">
<stop stop-color="#2A795C"/>
<stop offset="1" stop-color="#1A5E45"/>
</linearGradient>
</defs>
</svg>
