<svg width="145" height="45" viewBox="0 0 145 45" fill="none" xmlns="http://www.w3.org/2000/svg">
<path d="M23.0588 7.93278V12.0985C23.0588 12.9728 22.3146 13.7185 21.3907 13.7185H15.4752V37.0028C15.4752 37.9285 14.731 38.6742 13.8071 38.6742H9.1876C8.31504 38.6742 7.57079 37.9285 7.57079 37.0028V13.7185H1.6553C0.731407 13.7185 0 12.9728 0 12.0985V7.93278C0 7.00707 0.744239 6.26135 1.6553 6.26135H21.3779C22.3018 6.26135 23.046 7.00707 23.046 7.93278H23.0588Z" fill="#014921"/>
<path d="M39.5094 14.7856C40.2537 14.6442 40.9851 15.197 40.9851 15.9942V21.317C40.9851 22.0627 40.3435 22.6156 39.6506 22.5642C34.197 22.1913 33.5554 25.7142 33.5554 29.417V37.0027C33.5554 37.9285 32.8112 38.6742 31.9386 38.6742H27.6913C26.8187 38.6742 26.0745 37.9285 26.0745 37.0027V16.8685C26.0745 15.9427 26.8187 15.197 27.6913 15.197H31.9386C32.8112 15.197 33.5554 15.9427 33.5554 16.8685V18.7713C34.9413 16.5985 37.1997 15.2099 39.5094 14.7856Z" fill="#014921"/>
<path d="M67.0338 27.5528C67.0338 28.4785 66.2896 29.2242 65.417 29.2242H50.0316C50.8143 31.95 53.0856 33.21 55.9471 33.21C57.7949 33.21 59.232 32.5157 60.1046 31.77C60.5152 31.3971 61.0798 31.3585 61.5418 31.6285L64.8267 33.57C65.4683 33.9814 65.6095 34.8685 65.1475 35.4728C63.1201 37.7357 59.8865 39.2271 55.9599 39.2271C48.017 39.2271 42.7944 34.2257 42.7944 26.9614C42.7944 19.6971 48.1453 14.6571 54.8435 14.6571C61.5418 14.6571 67.175 18.8228 67.0338 27.5657V27.5528ZM60.1944 24.6857C59.5913 21.9085 57.7051 20.6614 55.113 20.6614C52.7135 20.6614 50.7758 22.1014 50.0829 24.6857H60.1944Z" fill="#014921"/>
<path d="M80.0194 15.197H82.9708C83.8947 15.197 84.6389 15.9428 84.6389 16.8685V19.7356C84.6389 20.6613 83.8947 21.407 82.9708 21.407H80.0194V37.0028C80.0194 37.9285 79.2752 38.6742 78.3513 38.6742H74.1424C73.2699 38.6742 72.5256 37.9285 72.5256 37.0028V21.407H71.2809C70.357 21.407 69.6128 20.6613 69.6128 19.7356V16.8685C69.6128 15.9428 70.357 15.197 71.2809 15.197H72.5256C72.5256 10.8513 73.9628 5.06561 81.3924 5.06561C82.265 5.06561 82.9579 5.15562 83.561 5.24562C84.1641 5.33562 84.6261 5.8499 84.6261 6.49276V10.1442C84.6261 10.8385 84.023 11.3913 83.3814 11.3528H83.2402C80.7508 11.3528 80.0066 12.7413 80.0066 15.197H80.0194Z" fill="#014921"/>
<path d="M97.304 15.197H100.255C101.179 15.197 101.923 15.9428 101.923 16.8685V19.7356C101.923 20.6613 101.179 21.407 100.255 21.407H97.304V37.0028C97.304 37.9285 96.5597 38.6742 95.6358 38.6742H91.427C90.5544 38.6742 89.8101 37.9285 89.8101 37.0028V21.407H88.5655C87.6416 21.407 86.9102 20.6613 86.9102 19.7356V16.8685C86.9102 15.9428 87.6544 15.197 88.5655 15.197H89.8101C89.8101 10.8513 91.2473 5.06561 98.677 5.06561C99.5495 5.06561 100.242 5.15562 100.846 5.24562C101.449 5.33562 101.911 5.8499 101.911 6.49276V10.1442C101.911 10.8385 101.308 11.3913 100.666 11.3528H100.525C98.0354 11.3528 97.2911 12.7413 97.2911 15.197H97.304Z" fill="#014921"/>
<path d="M128.929 45L126.588 42.3701C125.19 40.8014 112.92 26.6678 112.92 16.2252C112.92 7.27443 120.116 0 128.96 0C137.805 0 145 7.27443 145 16.2252C145 27.0984 132.715 40.8629 131.317 42.4009L128.945 45H128.929ZM128.96 6.15174C123.587 6.15174 119.204 10.6733 119.204 16.2252C119.204 21.7772 125.001 30.4665 128.976 35.5109C132.935 30.5588 138.7 22.1001 138.7 16.2252C138.7 10.6733 134.333 6.15174 128.945 6.15174H128.96Z" fill="#014921"/>
<path d="M128.96 23.1429C125.077 23.1429 121.903 19.9627 121.903 16.0714C121.903 12.1802 125.077 9 128.96 9C132.844 9 136.018 12.1802 136.018 16.0714C136.018 19.9627 132.844 23.1429 128.96 23.1429ZM128.96 13.2271C127.403 13.2271 126.121 14.4912 126.121 16.0714C126.121 17.6516 127.383 18.9158 128.96 18.9158C130.537 18.9158 131.799 17.6516 131.799 16.0714C131.799 14.4912 130.537 13.2271 128.96 13.2271Z" fill="#014921"/>
</svg>
