<svg xmlns="http://www.w3.org/2000/svg" width="100" height="100" viewBox="0 0 100 100" fill="none">
  <path d="M51.93 86.3699L50.44 84.6599C49.42 83.4899 40.5 72.9999 40.5 65.2799C40.5 58.7499 45.64 53.4299 51.95 53.4299C58.26 53.4299 63.4 58.7399 63.4 65.2799C63.4 73.4499 53.85 84.2199 53.44 84.6799L51.93 86.3699ZM51.95 57.4299C47.84 57.4299 44.5 60.9499 44.5 65.2799C44.5 69.6099 49.03 76.4399 51.97 80.2099C54.9 76.5199 59.4 69.8799 59.4 65.2799C59.4 60.9499 56.06 57.4299 51.95 57.4299Z" fill="#FFEAD9"/>
  <path d="M51.9499 67.56C53.2091 67.56 54.2299 66.5392 54.2299 65.28C54.2299 64.0208 53.2091 63 51.9499 63C50.6907 63 49.6699 64.0208 49.6699 65.28C49.6699 66.5392 50.6907 67.56 51.9499 67.56Z" fill="#FFEAD9"/>
  <path d="M51.9499 69.56C49.5899 69.56 47.6699 67.64 47.6699 65.28C47.6699 62.92 49.5899 61 51.9499 61C54.3099 61 56.2299 62.92 56.2299 65.28C56.2299 67.64 54.3099 69.56 51.9499 69.56ZM51.9499 65C51.7999 65 51.6699 65.12 51.6699 65.28C51.6699 65.44 51.7899 65.56 51.9499 65.56C52.1099 65.56 52.2299 65.44 52.2299 65.28C52.2299 65.12 52.0999 65 51.9499 65Z" fill="#FFEAD9"/>
  <path d="M27.1299 21.9001V25.1401C27.1299 25.8201 26.5499 26.4001 25.8299 26.4001H21.2199V65.8001C21.2199 66.5201 20.6499 67.1001 19.9199 67.1001H16.3199C15.6399 67.1001 15.0599 66.5201 15.0599 65.8001V26.4001H10.4499C9.72991 26.4001 9.15991 25.8201 9.15991 25.1401V21.9001C9.15991 21.1801 9.73991 20.6001 10.4499 20.6001H25.8199C26.5399 20.6001 27.1199 21.1801 27.1199 21.9001H27.1299Z" fill="#FFEAD9"/>
  <path d="M39.95 26.37C40.53 26.26 41.1 26.69 41.1 27.31V31.45C41.1 32.03 40.6 32.46 40.06 32.42C35.81 32.13 35.31 34.87 35.31 37.75V51.07C35.31 51.79 34.73 52.37 34.05 52.37H30.74C30.06 52.37 29.48 51.79 29.48 51.07V28C29.48 27.28 30.06 26.7 30.74 26.7H34.05C34.73 26.7 35.31 27.28 35.31 28V29.48C36.39 27.79 38.15 26.71 39.95 26.38V26.37Z" fill="#FFEAD9"/>
  <path d="M61.4 37.1601C61.4 37.8801 60.82 38.4601 60.14 38.4601H48.15C48.76 40.5801 50.53 41.5601 52.76 41.5601C54.2 41.5601 55.32 41.0201 56 40.4401C56.32 40.1501 56.76 40.1201 57.12 40.3301L59.68 41.8401C60.18 42.1601 60.29 42.8501 59.93 43.3201C58.35 45.0801 55.83 46.2401 52.77 46.2401C46.58 46.2401 42.51 42.3501 42.51 36.7001C42.51 31.0501 46.68 27.1301 51.9 27.1301C57.12 27.1301 61.51 30.3701 61.4 37.1701V37.1601ZM56.07 34.9301C55.6 32.7701 54.13 31.8001 52.11 31.8001C50.24 31.8001 48.73 32.9201 48.19 34.9301H56.07Z" fill="#FFEAD9"/>
  <path d="M72.4899 31.3202H74.7899C75.5099 31.3202 76.0899 31.9002 76.0899 32.6202V34.8502C76.0899 35.5702 75.5099 36.1502 74.7899 36.1502H72.4899L72.4499 55.6902C72.4499 56.4102 71.8699 56.9902 71.1499 56.9902H67.8699C67.1899 56.9902 66.6099 56.4102 66.6099 55.6902L66.6499 36.1502H65.6799C64.9599 36.1502 64.3799 35.5702 64.3799 34.8502V32.6202C64.3799 31.9002 64.9599 31.3202 65.6799 31.3202H66.6499C66.6499 27.9402 67.7699 23.4402 73.5599 23.4402C74.2399 23.4402 74.7799 23.5102 75.2499 23.5802C75.7199 23.6502 76.0799 24.0502 76.0799 24.5502V27.3902C76.0799 27.9302 75.6099 28.3602 75.1099 28.3302H74.9999C73.0599 28.3302 72.4799 29.4102 72.4799 31.3202H72.4899Z" fill="#FFEAD9"/>
  <path d="M88.6498 28.4901H90.9498C91.6698 28.4901 92.2498 29.0701 92.2498 29.7901V32.0201C92.2498 32.7401 91.6698 33.3201 90.9498 33.3201H88.6498L88.6898 64.8001C88.6898 65.5201 88.1098 66.1001 87.3898 66.1001H84.1098C83.4298 66.1001 82.8498 65.5201 82.8498 64.8001L82.8098 33.3201H81.8398C81.1198 33.3201 80.5498 32.7401 80.5498 32.0201V29.7901C80.5498 29.0701 81.1298 28.4901 81.8398 28.4901H82.8098C82.8098 25.1101 83.9298 20.6101 89.7198 20.6101C90.3998 20.6101 90.9398 20.6801 91.4098 20.7501C91.8798 20.8201 92.2398 21.2201 92.2398 21.7201V24.5601C92.2398 25.1001 91.7698 25.5301 91.2698 25.5001H91.1598C89.2198 25.5001 88.6398 26.5801 88.6398 28.4901H88.6498Z" fill="#FFEAD9"/>
</svg>
