<svg xmlns="http://www.w3.org/2000/svg" width="100" height="100" viewBox="0 0 100 100" fill="none">
  <path d="M51.93 86.37L50.44 84.66C49.42 83.49 40.5 73 40.5 65.28C40.5 58.75 45.64 53.43 51.95 53.43C58.26 53.43 63.4 58.74 63.4 65.28C63.4 73.45 53.85 84.22 53.44 84.68L51.93 86.37ZM51.95 57.43C47.84 57.43 44.5 60.95 44.5 65.28C44.5 69.61 49.03 76.44 51.97 80.21C54.9 76.52 59.4 69.88 59.4 65.28C59.4 60.95 56.06 57.43 51.95 57.43Z" fill="#014921"/>
  <path d="M51.9499 67.56C53.2091 67.56 54.2299 66.5392 54.2299 65.28C54.2299 64.0208 53.2091 63 51.9499 63C50.6907 63 49.6699 64.0208 49.6699 65.28C49.6699 66.5392 50.6907 67.56 51.9499 67.56Z" fill="#014921"/>
  <path d="M51.9499 69.56C49.5899 69.56 47.6699 67.64 47.6699 65.28C47.6699 62.92 49.5899 61 51.9499 61C54.3099 61 56.2299 62.92 56.2299 65.28C56.2299 67.64 54.3099 69.56 51.9499 69.56ZM51.9499 65C51.7999 65 51.6699 65.12 51.6699 65.28C51.6699 65.44 51.7899 65.56 51.9499 65.56C52.1099 65.56 52.2299 65.44 52.2299 65.28C52.2299 65.12 52.0999 65 51.9499 65Z" fill="#014921"/>
  <path d="M27.1299 21.9V25.14C27.1299 25.82 26.5499 26.4 25.8299 26.4H21.2199V65.8C21.2199 66.52 20.6499 67.1 19.9199 67.1H16.3199C15.6399 67.1 15.0599 66.52 15.0599 65.8V26.4H10.4499C9.72991 26.4 9.15991 25.82 9.15991 25.14V21.9C9.15991 21.18 9.73991 20.6 10.4499 20.6H25.8199C26.5399 20.6 27.1199 21.18 27.1199 21.9H27.1299Z" fill="#014921"/>
  <path d="M39.95 26.37C40.53 26.26 41.1 26.69 41.1 27.31V31.45C41.1 32.03 40.6 32.46 40.06 32.42C35.81 32.13 35.31 34.87 35.31 37.75V51.07C35.31 51.79 34.73 52.37 34.05 52.37H30.74C30.06 52.37 29.48 51.79 29.48 51.07V28C29.48 27.28 30.06 26.7 30.74 26.7H34.05C34.73 26.7 35.31 27.28 35.31 28V29.48C36.39 27.79 38.15 26.71 39.95 26.38V26.37Z" fill="#014921"/>
  <path d="M61.4 37.16C61.4 37.88 60.82 38.46 60.14 38.46H48.15C48.76 40.58 50.53 41.56 52.76 41.56C54.2 41.56 55.32 41.02 56 40.44C56.32 40.15 56.76 40.12 57.12 40.33L59.68 41.84C60.18 42.16 60.29 42.85 59.93 43.32C58.35 45.08 55.83 46.24 52.77 46.24C46.58 46.24 42.51 42.35 42.51 36.7C42.51 31.05 46.68 27.13 51.9 27.13C57.12 27.13 61.51 30.37 61.4 37.17V37.16ZM56.07 34.93C55.6 32.77 54.13 31.8 52.11 31.8C50.24 31.8 48.73 32.92 48.19 34.93H56.07Z" fill="#014921"/>
  <path d="M72.4899 31.32H74.7899C75.5099 31.32 76.0899 31.9 76.0899 32.62V34.85C76.0899 35.57 75.5099 36.15 74.7899 36.15H72.4899L72.5 51C72.5 51.72 71.92 52.3 71.2 52.3H67.92C67.24 52.3 66.66 51.72 66.66 51L66.6499 36.15H65.6799C64.9599 36.15 64.3799 35.57 64.3799 34.85V32.62C64.3799 31.9 64.9599 31.32 65.6799 31.32H66.6499C66.6499 27.94 67.7699 23.44 73.5599 23.44C74.2399 23.44 74.7799 23.51 75.2499 23.58C75.7199 23.65 76.0799 24.05 76.0799 24.55V27.39C76.0799 27.93 75.6099 28.36 75.1099 28.33H74.9999C73.0599 28.33 72.4799 29.41 72.4799 31.32H72.4899Z" fill="#014921"/>
  <path d="M88.6498 28.49H90.9498C91.6698 28.49 92.2498 29.07 92.2498 29.79V32.02C92.2498 32.74 91.6698 33.32 90.9498 33.32H88.6498L88.6898 64.8C88.6898 65.52 88.1098 66.1 87.3898 66.1H84.1098C83.4298 66.1 82.8498 65.52 82.8498 64.8L82.8098 33.32H81.8398C81.1198 33.32 80.5498 32.74 80.5498 32.02V29.79C80.5498 29.07 81.1298 28.49 81.8398 28.49H82.8098C82.8098 25.11 83.9298 20.61 89.7198 20.61C90.3998 20.61 90.9398 20.68 91.4098 20.75C91.8798 20.82 92.2398 21.22 92.2398 21.72V24.56C92.2398 25.1 91.7698 25.53 91.2698 25.5H91.1598C89.2198 25.5 88.6398 26.58 88.6398 28.49H88.6498Z" fill="#014921"/>
</svg>