<svg width="242" height="255" viewBox="0 0 242 255" fill="none" xmlns="http://www.w3.org/2000/svg">
<g clip-path="url(#clip0_603_6322)">
<path d="M125.711 6.82445C136.656 6.8175 175.2 6.67846 178.502 20.1857C179.961 26.1503 176.624 32.4972 177.63 33.1994C182.983 33.2341 189.747 32.247 194.179 29.2091C172.248 6.31002 218.98 8.32603 231.293 8.90302C234.253 13.9847 238.573 18.3713 241.226 23.6546C245.239 31.6561 251.884 54.6733 243.494 60.9646C235.544 66.9223 227.81 56.439 221.367 64.9549C217.472 70.0992 219.301 79.8317 223.636 78.3162C225.248 77.7531 240.102 61.1315 245.763 89.5989L245.414 236.406C243.662 244.727 238.301 248.787 229.904 249.767C157.887 249.651 85.8708 249.535 13.8543 249.419C8.46564 248.377 0.857279 245.026 0.0894629 238.832C-0.489889 234.188 1.8694 205.763 3.57256 201.348C9.49172 186.04 23.1868 201.487 25.6996 202.217C34.5993 204.796 36.5049 193.541 35.9814 187.118C34.725 171.782 18.4333 187.215 15.5924 187.987C9.66623 189.6 3.89364 184.393 2.87454 178.79C2.19747 175.084 4.45205 148.07 4.27057 137.142C3.90062 115.077 -5.28526 78.6151 13.5053 81.7851C18.1262 82.5637 22.8517 90.9406 29.3642 80.5686C30.5578 78.6638 32.7775 72.289 32.8473 70.1548C33.1614 61.0272 23.0681 70.1548 18.0354 71.0238C9.68019 72.4767 -0.420089 66.3036 4.27057 57.315C-4.5314 52.3097 5.15007 12.5388 6.36461 10.1126C7.31391 8.22175 12.1651 8.07576 14.2033 7.85331C21.6651 7.05386 40.3719 7.47096 47.6592 8.89607C62.7921 11.8436 70.6937 23.3974 59.679 36.4875C62.9806 37.7528 71.8803 36.0426 74.4909 34.2282C81.6036 29.2786 65.5423 27.0332 71.1823 16.0077C75.6984 7.17899 115.974 6.8175 125.718 6.81055L125.711 6.82445Z" fill="#0F0C0B"/>
<path d="M160.466 238.184C155.291 226.406 149.515 214.482 153.147 201.325C163.86 194.228 161.737 164.919 148.614 163.073C152.986 150.369 156.555 140.2 166.919 131.083C169.796 128.548 174.817 126.563 170.928 126.214C174.65 126.228 177.29 124.703 176.158 129.864C175.879 131.125 166.22 140.792 172.673 150.724C180.041 162.07 201.621 155.864 200.218 138.905C199.889 134.921 195.636 128.053 196.907 127.259C210.714 124.229 224.884 125.204 238.922 125.344C237.993 139.991 240.137 229.533 238.922 234.875C238.524 236.631 236.219 237.912 234.564 238.177C230.904 238.769 170.578 238.226 160.473 238.177L160.466 238.184Z" fill="#C1D5C0"/>
<path d="M43.6686 238.184C45.7498 225.097 42.216 216.969 56.7423 211.062C60.6323 209.481 65.7724 208.896 69.816 207.587C78.2664 211.606 82.4148 216.746 92.3038 211.062C106.244 203.059 95.8516 189.533 120.023 180.987C102.319 171.438 80.7666 161.402 60.4018 160.991L59.005 152.995C68.084 153.733 85.6762 148.879 81.3183 136.481C80.152 133.152 74.9491 130.331 75.7382 126.744C77.3515 119.403 112.724 122.279 119.143 121.701C120.064 131.006 118.5 162.286 119.317 166.73C119.673 168.645 121.81 171.076 123.675 171.773C132.719 175.165 139.396 164.842 147.385 165.511C158.098 166.417 157.044 193.517 149.48 197.85C140.359 203.073 135.177 185.466 124.38 188.461C121.636 189.22 119.387 192.556 118.975 195.245C117.955 201.959 120.421 237.32 118.451 238.191C93.526 238.149 68.5938 238.247 43.6616 238.191L43.6686 238.184Z" fill="#C1D5C0"/>
<path d="M156.632 32.6813C155.626 35.1748 155.472 42.3557 156.632 42.4184C157.093 46.1029 160.543 51.6053 163.434 53.8898C173.099 61.5513 193.89 55.9096 198.472 64.6716C187.465 64.8039 173.232 67.3044 164.132 73.7122C152.749 81.722 139.933 105.173 137.81 119.089C132.81 118.184 124.73 120.092 123.514 118.219C123.913 109.526 133.306 75.7738 118.807 69.5402C107.473 64.6647 103.694 81.9518 94.7482 77.1877C88.2811 73.7401 88.763 41.5965 102.766 46.9387C105.231 47.879 112.201 56.2509 121.245 51.1108C128.899 46.7576 125.624 32.5908 126.476 31.9848C136.532 32.2147 146.645 31.3998 156.632 32.6813Z" fill="url(#paint0_linear_603_6322)"/>
<path d="M79.2299 118.915L79.0553 118.219C73.14 116.763 65.1575 114.186 59.1793 113.698C42.8652 112.375 23.9879 118.567 16.8156 108.307C13.6519 103.787 11.3054 89.5924 16.8156 86.2283C18.6942 86.9387 20.95 89.8014 26.2297 87.2731C28.6042 88.5128 34.9246 89.1188 38.2559 89.3626C48.7036 90.1148 61.931 89.5367 72.0784 86.9318C75.0186 86.1726 88.9164 80.6354 89.8592 80.6702C90.5366 80.6981 90.5366 81.3667 91.7798 81.715C92.7715 81.9936 94.0495 83.0035 94.7409 83.108C104.386 84.5358 108.108 72.9321 117.054 74.4156C127.621 76.1708 118.982 111.066 118.626 118.748C117.522 120.378 89.4891 118.309 79.2299 118.922V118.915Z" fill="#ACCDA2"/>
<path d="M44.0178 33.0295C46.8392 40.4681 74.4462 41.102 78.8809 34.0743C87.6037 32.73 92.4295 37.1598 92.4784 45.8939C87.2266 50.7764 85.4457 63.4805 86.1999 70.2366C65.6676 72.6186 52.4123 59.615 35.9934 62.9373C35.6162 54.5514 29.9803 47.7327 21.1737 51.8072C17.0114 53.7365 10.1114 63.1184 4.96431 54.0708C1.5632 48.0879 3.39296 39.1657 4.26593 32.6882L44.0108 33.0365L44.0178 33.0295Z" fill="#EFB19A"/>
<path d="M198.471 64.6716L199.17 65.0199C199.889 65.8835 200.601 77.2644 205.797 81.3598C201.181 88.4084 194.784 91.5775 188.017 96.1396C187.423 97.5534 191.788 97.4908 191.152 99.0927C179.559 92.6779 167.135 103.32 168.839 111.086C168.951 111.581 174.196 117.118 167.966 119.256C164.565 120.427 130.596 119.089 123.34 119.605C122.788 118.957 123.5 118.518 123.514 118.212C124.729 120.085 132.803 118.17 137.81 119.082C139.933 105.166 152.748 81.715 164.132 73.7053C173.232 67.2974 187.472 64.797 198.471 64.6647V64.6716Z" fill="#C1D5C0"/>
<path d="M60.4018 160.991C80.7665 161.395 102.319 171.438 120.023 180.987C95.8516 189.533 106.243 203.059 92.3038 211.062C82.4147 216.739 78.2594 211.606 69.8159 207.587C57.727 201.834 49.4581 201.102 35.9934 201.325C40.7633 193.984 38.8008 174.022 29.3657 170.728C36.8663 163.206 50.1705 160.789 60.3948 160.991H60.4018Z" fill="#EDEDEB"/>
<path d="M35.9932 201.325C49.451 201.102 57.7268 201.834 69.8158 207.587C65.7721 208.896 60.6321 209.481 56.7421 211.062C42.2088 216.969 45.7496 225.097 43.6684 238.184C30.0709 238.149 16.4734 238.351 2.87598 238.01C3.89561 230.683 0.780832 194.479 13.8615 197.501C16.6899 198.156 29.0233 212.072 36.0002 201.325H35.9932Z" fill="#ECC6B8"/>
<path d="M191.145 99.0926C191.781 97.4907 187.416 97.5534 188.01 96.1395C194.777 91.5843 201.174 88.4083 205.791 81.3597C208.808 83.7417 217.307 85.9914 219.388 82.0562C226.204 82.7109 234.508 69.3242 238.566 79.103C240.207 83.0592 238.999 113.489 238.74 120.656C231.33 119.256 199.931 120.085 197.948 119.612C191.935 118.177 198.255 112.396 198.471 111.093C199.233 106.448 195.056 101.259 191.152 99.0996L191.145 99.0926Z" fill="#ACD3C0"/>
<path d="M6.70982 128.304C7.55486 130.094 7.59676 132.26 9.32176 133.521C14.3012 133.186 44.6877 129.272 46.4547 128.652C46.9924 130.115 42.1107 133.959 41.573 137.17C40.1134 145.904 51.4201 152.375 59.0046 152.995L60.4013 160.991C50.177 160.789 36.8729 163.199 29.3723 170.728C20.1397 167.496 9.63603 186.483 4.96387 172.295C6.48634 157.752 6.76569 143.084 6.01144 128.485C6.1581 128.158 6.63998 128.374 6.70982 128.311V128.304Z" fill="#ECC6B8"/>
<path d="M16.8225 86.2283C11.3123 89.5924 13.6588 103.787 16.8225 108.307C23.9949 118.56 42.8651 112.375 59.1863 113.698C65.1644 114.186 73.1399 116.763 79.0622 118.219L79.2368 118.915C75.9125 119.11 71.8409 118.748 69.8226 122.217C65.2971 129.996 74.9208 134.976 76.101 138.905C79.6698 150.829 55.9528 154.151 47.8585 144.818C38.3326 133.827 54.989 131.786 52.0418 122.565C49.3391 114.088 13.7287 121.513 6.54233 123.435L6.01855 122.913C5.70428 114.68 1.8143 92.671 6.36774 86.4025C9.99932 81.4085 15.5375 85.7408 16.8295 86.2283H16.8225Z" fill="#E8BD9B"/>
<path d="M92.4783 45.894C92.4294 37.1529 87.6036 32.7231 78.8809 34.0744C79.1602 33.6286 79.5443 32.5072 79.5792 31.9849C91.2003 30.8496 87.2405 17.8738 79.9284 13.2072C89.4194 10.1078 107.933 9.30679 118.458 9.03516L118.982 9.90578C119.163 18.431 122.977 39.5837 118.633 46.4164C112.347 56.3067 103.01 36.1012 92.4853 45.894H92.4783Z" fill="#CD8B7F"/>
<path d="M86.1999 70.2367C86.6818 74.5828 88.6792 78.6365 91.78 81.708C90.5369 81.3668 90.5369 80.6912 89.8594 80.6633C88.9166 80.6215 75.0188 86.1657 72.0787 86.9248C61.9312 89.5367 48.7109 90.1148 38.2561 89.3556C34.9178 89.1188 28.6045 88.5059 26.23 87.2661C33.123 83.9577 36.3006 69.7631 35.9933 62.9234C52.4123 59.6011 65.6675 72.6048 86.1999 70.2227V70.2367Z" fill="#C1D5C0"/>
<path d="M153.147 201.325C149.515 214.482 155.298 226.399 160.466 238.184C155.975 238.163 130.435 238.595 128.913 238.184C128.026 237.947 127.181 236.77 126.992 235.92C126.42 233.274 127.167 205.386 127.341 199.41C137.3 191.268 140.792 209.502 153.14 201.325H153.147Z" fill="#95C5AB"/>
<path d="M170.927 126.214C174.817 126.563 169.796 128.548 166.919 131.083C156.555 140.2 152.986 150.369 148.614 163.073C140.569 161.945 130.456 171.557 129.437 168.812V131.605C140.618 128.325 159.383 126.166 170.927 126.214Z" fill="#ACD3C0"/>
<path d="M186.089 106.74C187.633 106.566 189.965 106.998 191.32 107.785C197.222 111.219 190.175 114.625 192.542 120.823C185.105 131.668 200.679 134.154 194.288 146.204C189.483 155.272 173.477 155.453 174.412 140.987C174.908 133.347 181.808 133.047 180.342 123.602C180.118 122.154 174.51 115.105 181.215 109.171C182.06 108.426 185.049 106.852 186.096 106.74H186.089Z" fill="#ACD3C0"/>
<path d="M46.4548 128.652C44.6879 129.272 14.3014 133.179 9.3219 133.521C7.58992 132.26 7.555 130.094 6.70996 128.304C8.42798 126.751 40.0646 122.955 45.931 124.132C49.2763 124.8 49.1156 127.726 46.4548 128.652Z" fill="#4F1C1E"/>
<path d="M211.021 62.9303C210.874 67.6874 213.298 81.4712 219.388 82.0562C217.307 85.9984 208.807 83.7417 205.79 81.3597C200.601 77.2643 199.889 65.8835 199.163 65.0198L211.014 62.9303H211.021Z" fill="#EDEDEB"/>
<path d="M79.9284 13.2072C87.2404 17.8737 91.2002 30.8495 79.5792 31.9848C79.9353 26.7959 69.6552 23.8775 73.9991 16.5086C75.6473 13.7086 79.4185 13.3743 79.9284 13.2072Z" fill="#EDEDEB"/>
<path d="M163.601 12.1624C159.286 18.403 156.345 23.6407 155.235 31.2883H126.469C125.249 24.0447 124.029 16.8011 122.809 9.55747C123.5 7.63513 155.898 9.79428 163.601 12.1624Z" fill="#ACD3C0"/>
<path d="M161.164 32.6813C159.851 31.9082 158.364 32.1589 156.981 31.9848C156.89 31.9708 155.619 31.3858 155.235 31.2883C156.345 23.6407 159.285 18.403 163.601 12.1624C174.357 15.4777 167.45 16.8777 163.951 21.7253C161.856 24.6297 159.928 29.1152 161.164 32.6813Z" fill="#EDEDEB"/>
<path d="M238.566 32.6812C226.931 32.9807 214.954 33.2941 203.353 32.333C202.508 32.2633 198.255 31.9847 198.123 31.4623C203.605 19.58 188.387 18.0268 193.765 14.2518C197.557 11.5842 223.46 9.58524 228.279 10.428C233.419 11.3265 237.455 27.8823 238.566 32.6812Z" fill="#EDEDEB"/>
<path d="M202.306 33.0294C214.507 33.5866 226.686 34.6801 238.915 34.4224C239.976 39.5417 242.232 45.9495 239.264 50.9365C235.06 57.999 227.692 49.432 225.492 48.6728C216.762 45.664 211.287 54.412 211.022 62.9302L199.17 65.0197L198.472 64.6715C193.89 55.9095 173.1 61.5511 163.434 53.8896C160.55 51.6051 157.093 46.1028 156.632 42.4183C156.22 39.089 157.183 33.6006 161.513 33.3777C163.245 33.2871 179.12 39.1447 195.511 31.9847C196.719 31.8941 198.8 32.8692 202.313 33.0294H202.306Z" fill="#EFB19A"/>
<path d="M238.566 32.6811C238.698 33.2592 238.796 33.8443 238.915 34.4224C226.686 34.6871 214.506 33.5866 202.306 33.0294L203.353 32.3329C214.953 33.2941 226.931 32.9806 238.566 32.6811Z" fill="#993C23"/>
<path d="M43.6686 31.9847C30.5344 31.8686 17.4025 31.7526 4.27295 31.6365C4.64309 29.0525 8.10706 11.1733 9.32922 10.428C14.7836 8.97234 51.9235 9.20915 53.432 13.0329C55.3316 17.8458 45.638 20.8059 44.367 31.8106C44.3321 32.1031 43.6686 31.9499 43.6686 31.9847Z" fill="#EDEDEB"/>
<path d="M43.6686 31.9847C43.6476 32.5907 43.8641 32.6185 44.0177 33.0295L4.2729 32.6812C4.32179 32.3399 4.22401 31.9778 4.2729 31.6365C17.4071 31.7526 30.539 31.8686 43.6686 31.9847Z" fill="#993C23"/>
<path d="M161.164 32.6814C161.178 32.7162 161.646 32.563 161.513 33.3779C157.183 33.6007 156.219 39.0892 156.631 42.4184C155.472 42.3558 155.626 35.1818 156.631 32.6814C156.743 32.4028 156.946 32.2635 156.98 31.9849C158.363 32.159 159.851 31.9013 161.164 32.6814Z" fill="#C1665D"/>
</g>
<defs>
<linearGradient id="paint0_linear_603_6322" x1="137.468" y1="33.2525" x2="154.317" y2="111.446" gradientUnits="userSpaceOnUse">
<stop stop-color="#86B69E"/>
<stop offset="1" stop-color="#A6CFBC"/>
</linearGradient>
<clipPath id="clip0_603_6322">
<rect width="242" height="254" fill="white" transform="translate(0 0.5)"/>
</clipPath>
</defs>
</svg>
