<svg width="496" height="522" viewBox="0 0 496 522" fill="none" xmlns="http://www.w3.org/2000/svg">
<path d="M417.11 222.74C418.59 236.1 418.81 249.46 418.61 262.89C420.23 262.56 421.19 260.4 422.1 259.15C428.06 250.99 429.89 240.54 430.33 230.72C435.33 240.85 435.08 248.29 433.57 259.15C433.4 259.3 432.71 260.54 432.57 260.65C432.21 260.8 431.37 260.25 431.57 261.65C430.78 262.22 430.62 262.12 430.57 262.15C428.33 263.68 419.71 266.97 418.6 268.63C417.47 270.37 418.63 272.88 418.6 274.62C417.99 308.61 418.13 342.63 417.1 376.62C417.69 378.12 420.38 377.59 421.09 377.87C422.66 380.93 422.01 381.65 422.09 381.86C420.4 382.48 421.74 383.1 421.59 383.36C421.55 383.43 420.79 383.08 420.09 384.11C424.83 386.93 417.37 384.92 414.35 385.36C411.7 387 414.61 390.83 411.61 390.35C411.65 377.28 409.4 353.45 409.12 335.23C408.64 304.46 410.8 273.72 410.62 242.95C407.51 217.25 410.3 169.18 408.62 148.18C406.4 120.39 391.42 126.16 365.47 119.5C349.66 115.44 309.19 99.61 291.15 92.57C283.93 89.75 272.28 83.56 266.96 81.6C285.32 84.9 302.47 94.24 320.08 100.55C328.51 103.57 345.35 109.62 353 111.52C387.99 120.23 418.04 110.43 420.59 137.71C421.29 145.27 412.01 204.44 414.6 224C415.22 223.88 416.6 223.11 417.09 222.75L417.11 222.74Z" fill="#9FDDD4"/>
<path d="M246.53 79.58C246.49 79.9 246.54 80.25 246.53 80.58C235.75 85.8 224.65 90.41 213.61 95.04C186.91 106.25 159.99 116.96 132.81 126.96C132.29 127.06 131.19 127.29 130.81 127.46C128.47 128.52 127.95 128.38 127.82 128.46C124.47 127.34 121.67 129.41 121.34 129.46C109.44 131.19 101.69 127.15 98.3997 143.18C96.8097 150.94 95.2097 202.27 94.9097 215.01C94.2097 244.38 95.1497 273.7 94.9097 303.05C94.8697 308.05 94.4597 313.06 94.4097 318.01C94.3697 322.03 93.9697 325.96 93.9097 329.98C93.5997 352.31 85.6297 424.27 120.84 416.77C120.12 419.63 128.9 419.17 133.56 420.26C136.41 420.93 138.25 423.31 143.29 423.25C140.96 423.59 138.65 423.63 136.31 423.75C132.47 423.95 128.67 424.47 124.84 424.75C122.52 424.92 120.18 425.08 117.86 425.25C118.25 423.32 114.84 424.7 112.12 424.25C83.1997 419.45 89.0697 366.11 85.9297 344.94C87.263 284.833 88.593 224.73 89.9197 164.63L91.4197 151.91C96.8197 111.88 92.5097 128.81 135.06 120.49C138.48 119.82 148.47 117.23 149.77 115.5C152.74 115.09 155.46 114.04 158.25 113.01C160.41 112.21 162.89 111.42 164.73 110.02H165.23C169.28 110.06 182.08 103.49 185.68 100.54C197 97.77 239.29 79 243.79 78.09C247.14 77.42 245.33 78.02 246.53 79.59V79.58Z" fill="#F6F9F9"/>
<path d="M266.98 81.58C272.3 83.54 283.95 89.73 291.17 92.55C309.21 99.6 349.68 115.42 365.49 119.48C391.43 126.14 406.42 120.37 408.64 148.16C410.32 169.16 407.52 217.23 410.64 242.93C410.82 273.7 408.66 304.43 409.14 335.21C409.42 353.42 411.67 377.26 411.63 390.33C411.58 407.79 408.03 410.54 399.16 424.75C394.83 423.89 390.61 423.07 386.19 422.75L385.69 416.76C414.94 414.72 405.29 392.07 404.15 376.11C399.37 309.32 407.24 262.78 402.65 198.54C399.19 179.38 412.32 137.95 389.18 129.96C384.33 128.29 382.63 128.79 378.71 127.96C373.51 126.87 368.17 126.44 363 124.97C352.77 122.06 337.07 113.73 325.84 110.51C301.64 100.14 276.48 92.07 252.52 81.08C252.63 80.11 252.44 79.07 252.52 78.09C257.58 78.67 261.87 79.7 266.98 81.58Z" fill="#F6F9F9"/>
<path d="M385.69 416.76L386.19 422.75C375.47 421.98 318.31 423.6 306.38 424.75C264.92 422.37 223.23 423.03 181.68 423.25C168.91 423.32 156.05 421.77 143.27 423.25C138.24 423.3 136.4 420.93 133.54 420.26C128.88 419.17 120.1 419.63 120.82 416.77H385.68L385.69 416.76Z" fill="#F6F9F9"/>
<path d="M385.69 416.76H120.83C85.61 424.26 93.59 352.3 93.9 329.97C94.95 330.43 98.77 335.79 99.14 335.96C100.5 336.57 99.11 332.99 100.89 333.47C100.46 351.33 99.24 369.17 102.39 386.84C106.45 409.62 110.94 411.47 127.83 412.28C134.9 417.61 144.57 415.32 154.02 415.77C155.66 414.84 149.18 414.54 155.02 413.77C157.44 413.45 187.98 413.5 192.43 413.77C205.77 414.59 192.76 415.03 187.94 414.77V415.77C194.4 415.2 204.59 417.18 205.4 414.27C256.28 413.43 307.14 413.85 358.03 413.27L357.28 414.02C362.58 417.11 369.03 415.29 374.99 415.77L373.99 413.77C380.12 413.21 378.46 412.34 378.73 412.27C382.99 411.18 398.95 410.84 399.68 396.31C399.8 393.95 396.52 361.42 396.19 349.17C395.33 317.77 396.57 286.25 398.19 254.9C396.74 232.79 397.8 167.54 395.7 152.9C395.51 151.57 395.57 148.86 394.2 148.41C393.73 145.87 391.95 142.39 389.71 140.93C388.15 137.2 392.5 142.91 392.7 140.68C386.4 134.19 392.55 135.63 389.21 129.96C412.34 137.96 399.22 179.38 402.68 198.54C407.26 262.78 399.39 309.32 404.18 376.11C405.32 392.07 414.98 414.73 385.72 416.76H385.69Z" fill="#1D1D23"/>
<path d="M106.37 151.91C104.7 161.6 103.18 200.56 102.88 213.01C102.09 245.22 104.15 277.62 103.38 309.77C103.23 316.17 101.98 329.68 101.38 323.49C101.71 311.39 103.83 307.82 96.3896 309.77C96.0696 315.11 96.4596 319.57 94.3896 318C94.4396 313.04 94.8496 308.03 94.8896 303.04L96.8896 303.79L97.3896 197.55C98.6796 194.27 98.2596 173.69 98.8896 172.61C99.8796 170.9 101.8 174.71 104.88 163.63C104.96 159.38 104.77 151.9 106.38 151.91H106.37Z" fill="#1B4349"/>
<path d="M121.329 129.46C118.509 135.06 122.649 135.1 122.829 135.45C122.899 135.59 123.149 137.56 123.829 138.44C111.839 137.63 108.339 140.5 106.369 151.91C104.759 151.91 104.959 159.38 104.869 163.63C101.789 174.71 99.8694 170.9 98.8794 172.61C98.2594 173.69 98.6794 194.27 97.3794 197.55L96.8794 303.79L94.8794 303.04C95.1194 273.69 94.1794 244.37 94.8794 215C95.1794 202.26 96.7794 150.94 98.3694 143.17C101.659 127.15 109.419 131.19 121.309 129.45L121.329 129.46Z" fill="#1B4349"/>
<path d="M101.38 323.49C101.29 326.83 100.96 330.11 100.88 333.47C99.0996 332.99 100.49 336.58 99.1296 335.96C98.7696 335.8 94.9396 330.44 93.8896 329.97C93.9496 325.95 94.3496 322.02 94.3896 318C96.4496 319.57 96.0596 315.11 96.3896 309.77C103.83 307.82 101.71 311.38 101.38 323.49Z" fill="#14262D"/>
<path d="M389.179 129.96C392.519 135.63 386.37 134.2 392.67 140.68C392.47 142.91 388.119 137.2 389.679 140.93C386.219 138.66 380.789 139.14 377.709 137.94C377.009 137.67 377.239 137.46 377.209 137.44L378.709 127.96C382.629 128.78 384.339 128.28 389.179 129.96Z" fill="#14262D"/>
<path d="M185.67 100.53C182.07 103.47 169.27 110.04 165.22 110.01C152.48 102.97 131.27 104.34 118.58 111.51C135.8 106.71 147.41 103.24 164.72 110.01C162.87 111.41 160.39 112.21 158.24 113L143.03 115V116C143.32 116.17 148.92 115.62 149.76 115.5C148.45 117.23 138.46 119.82 135.05 120.49C92.4996 128.81 96.7996 111.88 91.4096 151.91C90.1296 152.31 90.2996 150.74 90.4096 148.67C91.5096 127.39 91.3696 122.25 108.62 108.02C131.19 89.4 159.56 90.71 185.68 100.54L185.67 100.53Z" fill="#9FDDD4"/>
<path d="M165.219 110.01H164.719C147.409 103.24 135.799 106.7 118.579 111.51C131.259 104.34 152.479 102.97 165.219 110.01Z" fill="#326D6B"/>
<path d="M158.239 113C155.449 114.03 152.729 115.08 149.759 115.49C148.909 115.61 143.319 116.16 143.029 115.99V114.99L158.239 112.99V113Z" fill="#337F79"/>
<path d="M142.529 109.01C153.409 108.3 141.079 110.07 137.539 111.01C134.889 111.71 109.769 121.02 108.859 117.24L109.609 115.99C120.709 114.68 131.319 109.74 142.529 109.01Z" fill="#435C5A"/>
<path d="M155.25 130.46L348.78 130.96C353.08 130.25 356.37 133.12 360.25 134.45C360.17 134.7 361.48 135.38 360 137.44C355.34 136.9 354.57 138.41 354.26 138.44C352.25 138.63 323.24 137.83 313.86 137.94C294.39 138.18 274.97 138.36 255.5 138.44C220.67 138.58 185.82 138.74 151 137.94L150.25 144.92C150.25 144.92 150.32 145 149.25 144.92L150.25 131.2L155.24 130.45L155.25 130.46Z" fill="#14262D"/>
<path d="M123.82 138.44C128.83 144.99 129.63 142.64 137.29 144.43C131.7 146.91 116.93 141.89 113.35 148.67C107.28 160.17 107.78 264.17 108.36 285.09C109.11 298.77 107.32 312.37 106.86 325.99C106.15 347.18 103.45 361.01 107.36 383.85C107.54 384.91 107.53 385.89 107.86 387.34C105.12 386.07 104.67 388.67 102.37 386.84C99.22 369.17 100.44 351.33 100.87 333.47C100.95 330.12 101.28 326.83 101.37 323.49C101.97 329.69 103.21 316.17 103.37 309.77C104.14 277.61 102.08 245.21 102.87 213.01C103.17 200.56 104.69 161.6 106.36 151.91C108.32 140.5 111.82 137.63 123.82 138.44Z" fill="#F6F9F9"/>
<path d="M138.79 152.91L118.84 152.66C116.99 165.65 116.18 178.73 115.35 191.81C115.02 191.81 114.49 191.67 114.35 192.06C113.78 193.7 113.96 219.81 111.86 222.98C111.02 224.24 109.71 223.41 109.37 223.98C107.79 226.6 111.04 277.27 108.37 285.08C107.79 264.16 107.29 160.16 113.36 148.66C116.94 141.88 131.72 146.9 137.3 144.42C138.1 144.06 137.56 143.47 138.3 143.42C138.65 144.04 141.77 147.39 141.79 147.66C141.82 148.04 138.72 151.33 138.8 152.9L138.79 152.91Z" fill="#0F3849"/>
<path d="M131.81 429.23C143.26 429.53 151.26 428.97 163.23 430.23C165.49 430.47 169.26 431.78 171.46 432.72L204.88 433.22C184.35 438.21 166.15 432.65 149.02 431.72C147.01 431.61 129.23 431.58 136.55 432.72C139.09 433.11 143.82 432.45 147.02 432.72C162.79 434.03 178.81 438.17 194.65 437.21C194.94 438.66 193.99 439.2 192.9 439.7C187.45 442.21 143.93 443.36 136.04 442.69C127.48 441.97 122 439.88 116.84 432.71C117.33 432.76 127.68 436.82 125.07 434.21C120.25 433.65 114.68 429.79 110.11 429.22C102.54 428.27 115.58 431.08 116.34 432.71C111.88 432.24 101.92 433.19 97.3896 434.71C96.6896 434.36 96.0996 434.08 95.3896 433.71C98.0396 431.89 105.86 428.08 99.8796 429.72V429.22C101.26 429.22 105.95 428.21 107.11 428.22C115.34 428.29 123.56 429 131.8 429.22L131.81 429.23Z" fill="#88C6C0"/>
<path d="M273.46 429.23C273.37 429.86 273.6 430.65 273.46 431.23C273.43 431.35 271.17 431.65 273.71 432.23C287.46 435.36 335.53 434.06 354.01 435.22L367.23 432.98C355.58 433.29 343.94 432.41 332.31 431.73L333.31 430.23C341.08 431.27 348.96 430.53 356.75 430.73C360.24 430.82 363.74 430.7 367.22 430.73C389.88 430.96 405.91 430.74 371.96 433.22C362.21 435.17 346.93 438.73 337.54 439.21C328.54 439.67 316.87 437.49 309.11 438.71C291.39 441.5 289.9 454.58 261.23 434.72C248.3 432.94 253.21 431.26 261.73 434.22C272.38 437.93 276.95 448.24 294.15 442.7C306.57 438.7 296.33 440.14 291.16 439.21C278.17 436.88 265.09 430.5 251.51 430.48C258.77 429.42 266.18 429.86 273.46 429.23Z" fill="#235B59"/>
<path d="M386.19 422.75C390.61 423.07 394.83 423.89 399.16 424.75C410.5 427 401.91 425.14 399.41 425.75C398.9 425.87 398.51 427.91 394.17 427.75C382.53 424.5 369.47 426.58 387.19 429.75C380.59 429.89 373.83 430.27 367.24 430.75C363.75 430.72 360.25 430.84 356.77 430.75C353.18 427.92 338.32 427.64 330.08 427.26C328.66 427.19 326.7 426.87 326.34 428.26C313.89 426.22 312.1 425.56 298.91 426.26C298.76 425.04 304.16 424.98 306.39 424.76C318.31 423.61 375.47 421.99 386.2 422.76L386.19 422.75Z" fill="#9FDDD4"/>
<path d="M205.13 431.23C213.04 431.48 220.91 431.77 228.82 431.73C217.43 432.78 206.02 436.52 194.65 437.22C178.81 438.18 162.78 434.04 147.02 432.73C143.81 432.46 139.09 433.12 136.55 432.73C129.23 431.59 147.01 431.62 149.02 431.73C166.16 432.66 184.35 438.21 204.88 433.23L171.46 432.73C169.26 431.79 165.49 430.47 163.23 430.24L164.73 427.25C181.83 429.39 185.54 430.61 205.13 431.24V431.23Z" fill="#1B4349"/>
<path d="M181.68 423.25C186.86 428.68 215.98 428.82 205.12 431.23C185.53 430.6 181.82 429.38 164.72 427.24C154.34 425.94 145.27 425.82 141.03 425.24C140.76 425.2 140.91 424.16 136.29 423.74C138.64 423.62 140.94 423.58 143.27 423.24C156.05 421.76 168.91 423.31 181.68 423.24V423.25Z" fill="#88C6C0"/>
<path d="M326.33 428.24C326.69 428.3 327.32 429.43 333.31 430.24L332.31 431.74C320.3 431.04 308.47 429.54 296.4 429.74C294.83 428.52 293.46 430.47 293.91 426.75C295.6 426.63 297.18 426.34 298.9 426.25C312.09 425.55 313.89 426.2 326.33 428.25V428.24Z" fill="#46A895"/>
<path d="M293.91 426.74C293.47 430.46 294.84 428.51 296.4 429.73C288.71 429.86 281.14 431.13 273.46 431.23C273.6 430.65 273.37 429.86 273.46 429.23C280.27 428.64 287.07 427.23 293.91 426.74Z" fill="#337F79"/>
<path d="M394.17 427.74C405.88 431.01 395.34 429.56 387.19 429.74C369.47 426.58 382.53 424.5 394.17 427.74Z" fill="#235B59"/>
<path d="M97.3899 434.72C101.92 433.2 111.88 432.25 116.34 432.72C116.5 432.74 116.67 432.7 116.84 432.72C122 439.89 127.49 441.98 136.04 442.7C143.93 443.36 187.45 442.22 192.9 439.71C193.99 439.21 194.94 438.67 194.65 437.22C206.02 436.53 217.43 432.78 228.82 431.73C220.9 431.77 213.04 431.48 205.13 431.23C215.99 428.82 186.87 428.68 181.69 423.25C223.23 423.03 264.93 422.36 306.39 424.75C304.16 424.96 298.76 425.03 298.91 426.25C297.2 426.34 295.61 426.63 293.92 426.75C287.08 427.25 280.28 428.65 273.47 429.24C266.2 429.87 258.78 429.43 251.52 430.49C265.1 430.51 278.19 436.89 291.17 439.22C296.35 440.15 306.58 438.71 294.16 442.71C276.95 448.25 272.39 437.94 261.74 434.23C253.22 431.27 248.32 432.95 261.24 434.73C289.92 454.59 291.4 441.51 309.12 438.72C316.88 437.5 328.55 439.68 337.55 439.22C346.94 438.74 362.21 435.18 371.97 433.23C405.93 430.75 389.89 430.96 367.23 430.74C373.82 430.26 380.59 429.89 387.18 429.74C395.33 429.56 405.87 431.01 394.16 427.74C398.5 427.91 398.89 425.87 399.4 425.74C401.9 425.13 410.49 426.99 399.15 424.74C408.02 410.54 411.57 407.78 411.62 390.32C414.62 390.8 411.72 386.97 414.36 385.33C417.37 384.9 424.83 386.9 420.1 384.08C420.79 383.05 421.55 383.4 421.6 383.33C422.43 389.9 422.69 385.59 424.09 387.07C428.43 391.63 426.18 403.53 424.09 409.02C421.44 416 409.26 431.23 422.59 415.5C433.38 397.08 425.54 391.13 422.09 381.83C422.01 381.62 422.66 380.9 421.09 377.84C443.82 386.68 449.43 408 438.05 421.48C425.91 435.86 404.36 434.5 387.42 437.69L358.49 445.67C342.19 446.27 326.45 448 310.61 449.66C310.22 449.7 310.5 450.62 310.11 450.66C307.83 450.9 305.42 450.46 303.13 450.66C302.74 450.69 303.02 451.62 302.63 451.66C296.33 452.19 288.67 451.26 282.18 451.66C275.58 449.84 268.74 448.84 262.23 446.67C250.92 442.91 247.22 437.45 233.3 438.69C184.62 449.97 143.98 457.77 97.3799 434.7L97.3899 434.72Z" fill="#9FDDD4"/>
<path d="M421.6 383.35C421.75 383.09 420.41 382.47 422.1 381.85C425.55 391.15 433.39 397.1 422.6 415.52C409.27 431.25 421.45 416.01 424.1 409.04C426.19 403.55 428.44 391.66 424.1 387.09C422.69 385.61 422.44 389.92 421.61 383.35H421.6Z" fill="#243435"/>
<path d="M428.83 389.33C439.14 402.65 429.71 417.83 418.85 427.24C428.64 415.33 436.9 405.05 428.83 389.33Z" fill="#28413C"/>
<path d="M241.289 434.72C243.759 434.54 246.289 434.85 248.769 434.72V435.72L224.579 439.46C224.279 438.26 239.839 434.83 241.289 434.72Z" fill="#4B8C82"/>
<path d="M311.12 439.21C330.73 439.42 326.69 441.22 309.12 440.71V439.71L311.12 439.21Z" fill="#337F79"/>
<path d="M116.84 432.73C116.68 432.71 116.51 432.75 116.34 432.73C115.58 431.1 102.54 428.29 110.11 429.24C114.69 429.81 120.25 433.67 125.07 434.23C127.68 436.85 117.33 432.79 116.84 432.73Z" fill="#326D6B"/>
<path d="M418.61 274.61C418.64 272.87 417.48 270.36 418.61 268.62C422.99 267.6 427.38 265.32 430.58 262.14C430.63 262.11 430.79 262.21 431.58 261.64C432.38 261.06 432.52 260.69 432.58 260.64C443.36 256.06 447.36 240.47 441.06 229.96C434.49 222.29 441.63 231.69 442.56 235.95C444.91 246.72 441.18 252.37 433.58 259.14C438.14 246.77 434.23 234.86 427.35 224.22C430.52 232.37 429.15 242.29 426.1 250.41C425.09 253.09 421.22 258.17 422.11 259.14C421.2 260.39 420.24 262.55 418.62 262.88C418.82 249.45 418.61 236.08 417.12 222.73C418 222.1 419.96 218.94 423.85 218.24C432.45 216.71 446.54 222.09 451.53 229.46C458.19 239.29 454.7 252.41 448.04 261.38C440.48 271.56 430.45 273.08 418.61 274.6V274.61Z" fill="#9FDDD4"/>
<path d="M433.57 259.15C435.08 248.29 435.33 240.85 430.33 230.72C429.89 240.54 428.06 250.99 422.1 259.15C421.21 258.18 425.09 253.1 426.09 250.42C429.14 242.3 430.51 232.39 427.34 224.23C434.23 234.86 438.14 246.77 433.57 259.15Z" fill="#28413C"/>
<path d="M432.57 260.64C432.7 260.53 433.4 259.3 433.57 259.14C441.17 252.36 444.9 246.72 442.55 235.95C441.62 231.7 434.49 222.29 441.05 229.96C447.36 240.46 443.35 256.06 432.57 260.64Z" fill="#28413C"/>
<path d="M430.58 262.14C427.38 265.32 422.99 267.6 418.61 268.62C419.72 266.95 428.34 263.66 430.58 262.14Z" fill="#28413C"/>
<path d="M432.57 260.64C432.51 260.68 432.37 261.06 431.57 261.64C431.37 260.25 432.2 260.8 432.57 260.64Z" fill="#28413C"/>
<path d="M136.29 423.75C140.91 424.16 140.76 425.21 141.03 425.25C145.27 425.83 154.34 425.94 164.72 427.25L163.22 430.24C151.25 428.99 143.24 429.54 131.8 429.24C135.49 422.2 128.43 427.22 124.82 424.75C128.65 424.48 132.45 423.95 136.29 423.75Z" fill="#235B59"/>
<path d="M124.82 424.75C128.44 427.22 135.49 422.2 131.8 429.24C123.56 429.03 115.34 428.31 107.11 428.24C105.95 428.23 101.25 429.23 99.8796 429.24C97.6096 429.24 88.4296 428.54 95.1396 426.75C100.59 425.3 111.58 425.72 117.83 425.25C120.15 425.08 122.49 424.92 124.81 424.75H124.82Z" fill="#235B59"/>
<path d="M85.9198 344.94C89.0499 366.11 83.1799 419.45 112.11 424.25C114.82 424.7 118.23 423.32 117.85 425.25C111.59 425.71 100.61 425.29 95.1599 426.75C88.4499 428.54 97.6299 429.25 99.8999 429.24V429.74C98.8299 430.03 94.7499 432.14 93.9099 433.23C86.1099 426.97 67.7899 417.93 62.9899 412.53C50.1599 398.12 51.9798 375.95 59.9998 359.66C66.0698 347.33 71.8799 343.37 85.9399 344.95L85.9198 344.94Z" fill="#9FDDD4"/>
<path d="M95.3896 433.72C94.8896 433.46 94.5296 433.09 93.8896 433.22C94.7196 432.13 98.7996 430.02 99.8796 429.73C105.86 428.09 98.0396 431.9 95.3896 433.72Z" fill="#1B4349"/>
<path d="M83.6698 348.93L84.9198 349.18C85.7298 367.93 72.1898 372.67 71.4498 390.08C74.0998 399.33 70.4998 391.8 70.4498 387.59C70.3098 375.12 80.6598 368.34 82.9198 357.66C78.2298 367.7 61.5098 379.97 67.4598 391.58C69.4398 395.44 78.8998 400.14 76.6898 415.27C77.5498 390.66 55.4298 397.93 70.9498 372.12C74.0898 366.9 79.8198 363.05 83.6698 348.93Z" fill="#1D1D23"/>
<path d="M296.41 429.73C308.48 429.53 320.32 431.02 332.32 431.73C343.94 432.41 355.58 433.28 367.24 432.98L354.02 435.22C335.54 434.06 287.46 435.35 273.72 432.23C271.18 431.65 273.44 431.35 273.47 431.23C281.15 431.13 288.73 429.86 296.41 429.73Z" fill="#9FDDD4"/>
<path d="M356.76 430.73C348.96 430.53 341.08 431.27 333.32 430.23C327.32 429.43 326.7 428.29 326.34 428.23C326.7 426.85 328.67 427.17 330.08 427.23C338.32 427.61 353.17 427.89 356.77 430.72L356.76 430.73Z" fill="#69C9B5"/>
<path d="M395.66 152.91C393.04 189.45 396.27 225.87 396.16 262.39C396.07 293.76 393.59 325.26 394.66 356.66C394.83 361.73 396.63 393.8 398.15 396.06C398.46 396.52 399.17 396.26 399.65 396.31C398.92 410.84 382.96 411.18 378.7 412.27C375.49 413.06 371.7 410.29 373.21 407.03C373.93 405.49 379.14 406.7 381.69 406.28C385.36 405.68 390.03 404.23 391.67 400.54C394.25 394.72 390.36 353.57 390.17 343.68C389.44 304.66 392.04 265.75 391.67 226.71C391.54 212.97 391.08 199.05 390.67 185.31C392.22 180.17 390.27 157.53 391.17 155.13C392.26 152.21 395.8 157.2 394.16 148.4C395.53 148.85 395.47 151.56 395.66 152.89V152.91Z" fill="#E5CF95"/>
<path d="M381.7 406.29C379.15 406.7 373.94 405.49 373.22 407.04C371.71 410.3 375.5 413.07 378.71 412.28C378.44 412.35 380.1 413.21 373.97 413.78L374.97 415.78C369.01 415.31 362.56 417.13 357.26 414.03L358.01 413.28C307.12 413.85 256.26 413.44 205.38 414.28C204.57 417.18 194.38 415.21 187.92 415.78V414.78C192.74 415.04 205.75 414.6 192.41 413.78C187.97 413.51 157.42 413.46 155 413.78C149.16 414.55 155.64 414.84 154 415.78C144.56 415.32 134.89 417.62 127.81 412.29C132.23 412.5 133.02 411.78 133.3 411.79C137.29 411.9 141.25 412.23 145.27 412.29C218.48 413.27 291.77 411.56 364.99 412.29C365.86 411.1 364.54 410.64 364.24 409.8C364.94 409.78 364.45 409.21 365.24 408.8C368.21 407.25 366.21 404.63 368.23 406.8C366.65 407.14 366.72 413.87 370.97 412.29C372.31 411.79 371.09 411.08 370.72 410.29C374.68 409.62 368.38 403.32 381.69 406.3L381.7 406.29Z" fill="#1E1817"/>
<path d="M399.65 396.31C399.17 396.26 398.46 396.52 398.15 396.06C396.63 393.79 394.83 361.72 394.66 356.66C393.59 325.26 396.06 293.76 396.16 262.39C396.27 225.87 393.04 189.45 395.66 152.91C397.76 167.55 396.7 232.8 398.15 254.91C396.54 286.26 395.29 317.78 396.15 349.18C396.49 361.43 399.76 393.96 399.64 396.32L399.65 396.31Z" fill="#5F6260"/>
<path d="M107.86 387.34C111.37 402.87 115.84 408.9 132.3 407.29L133.3 411.78C133.02 411.78 132.24 412.49 127.81 412.28C110.92 411.48 106.43 409.62 102.37 386.84C104.66 388.67 105.12 386.07 107.86 387.34Z" fill="#ECE4BD"/>
<path d="M389.679 140.94C391.919 142.4 393.699 145.88 394.169 148.42C395.809 157.22 392.269 152.23 391.179 155.15C390.289 157.55 392.229 180.19 390.679 185.33C390.509 179.42 390.389 152.91 389.679 150.66C387.769 144.63 378.499 143.63 373.219 143.93C371.649 144.02 370.299 144.55 368.729 144.43C369.569 142.85 370.629 143.02 370.729 142.43C372.459 142.71 374.459 142.49 376.219 142.93C378.209 143.25 376.419 140.29 377.719 137.94C380.799 139.14 386.229 138.67 389.689 140.93L389.679 140.94Z" fill="#EFEBD7"/>
<path d="M255.5 138.44C255.46 138.86 255.69 139.78 255.25 139.94C252.84 140.77 237.25 140.62 252.76 143.43V144.43C242.62 145.4 179.57 143.17 175.95 144.43C175.57 144.56 175.7 145.08 175.7 145.43C167.55 145.35 159.41 145.49 151.26 145.43C150.81 145.47 150.76 144.96 150.26 144.93L151.01 137.95C185.83 138.75 220.68 138.59 255.51 138.45L255.5 138.44Z" fill="#F6F9F9"/>
<path d="M313.86 137.94C314 141.23 302.4 138.81 302.89 142.68C302.9 142.79 304.04 144.38 304.14 144.43C305.43 145.1 306.86 143.18 310.62 143.43C311.01 143.46 310.73 144.41 311.12 144.43C325.03 145.2 339.1 143.44 353.02 144.43C354.29 143.53 353.51 141.9 354.02 141.94C354.61 141.98 354.02 144.23 354.27 144.93C313.21 145.74 272.13 145.52 231.07 145.43C212.62 145.39 194.15 145.61 175.7 145.43C175.7 145.08 175.57 144.57 175.95 144.43C179.58 143.17 242.62 145.4 252.76 144.43V143.43C237.26 140.62 252.84 140.77 255.25 139.94C255.69 139.79 255.46 138.86 255.5 138.44C274.97 138.36 294.39 138.18 313.86 137.94Z" fill="#EFEBD7"/>
<path d="M354.26 138.44C355.48 140.63 356.62 140.34 356.75 140.44C356.96 140.59 358.34 142.3 360.74 143.18C360.82 143.87 357.84 144.79 357.25 144.93C356.78 145.04 354.88 145.46 354.76 145.43C354.23 145.3 354.38 145.28 354.26 144.93C354.02 144.23 354.6 141.98 354.01 141.94C353.5 141.9 354.28 143.54 353.01 144.43C339.09 143.44 325.02 145.2 311.11 144.43C310.73 144.41 311 143.46 310.61 143.43C306.84 143.18 305.42 145.1 304.13 144.43C304.03 144.38 302.9 142.79 302.88 142.68C302.39 138.81 313.99 141.23 313.85 137.94C323.24 137.83 352.24 138.62 354.25 138.44H354.26Z" fill="#EFEBD7"/>
<path d="M115.349 191.81C114.509 205.14 114.109 218.36 113.849 231.71C113.259 262.23 113.439 292.95 113.349 323.49C113.309 338.76 110.599 384.47 117.339 395.56C121.629 402.63 127.079 401.47 131.799 401.79C133.149 401.88 132.739 402.29 132.799 402.29C131.049 405.11 132.159 406.2 135.289 406.78C133.299 406.48 132.569 407.25 132.299 407.28C115.839 408.89 111.369 402.86 107.859 387.33C107.529 385.88 107.539 384.89 107.359 383.84L106.859 325.98C107.309 312.35 109.099 298.76 108.359 285.08C111.029 277.27 107.779 226.6 109.359 223.98C109.699 223.42 111.019 224.25 111.849 222.98C113.959 219.8 113.769 193.69 114.339 192.06C114.479 191.67 115.009 191.81 115.339 191.81H115.349Z" fill="#14262D"/>
<path d="M107.36 383.84C103.45 361 106.15 347.17 106.86 325.98L107.36 383.84Z" fill="#6A8D9B"/>
<path d="M175.7 145.42C194.15 145.6 212.61 145.38 231.07 145.42C236.16 148.73 228.59 148 236.81 150.41V151.41C228.33 151.74 219.85 150.52 211.37 150.91C208.73 151.03 202.04 151.33 202.64 152.41C185.85 152.65 169.05 152.62 152.26 153.41C152.28 153.1 151.27 154.49 150.76 147.92C151.03 146.31 149.67 146.45 151.26 145.43C159.41 145.49 167.56 145.35 175.7 145.43V145.42Z" fill="#1B4349"/>
<path d="M381.7 406.29C368.39 403.31 374.69 409.61 370.73 410.28C370.55 409.91 368.58 407.15 368.24 406.79C366.21 404.62 368.22 407.24 365.25 408.79C366.21 405.78 365.83 402.52 366.25 399.56C366.31 399.14 367.24 399.36 367.25 399.31C370.57 399.21 373.91 399.44 377.23 399.31C378.89 399.24 384.98 399.63 385.71 398.06C386.3 369.09 382.14 340.25 383.71 311.27C374.26 324.71 365.58 334.39 349.54 339.95C344.82 341.59 340.18 343.21 340.81 341.2C341.57 338.76 367.25 330.11 380.21 309.53C380.51 309.05 382.6 306.96 383.7 305.29C383.38 292.55 384.32 279.85 384.7 267.13C388.93 267.09 387.11 270.49 388.44 271.62C392.39 274.97 389.64 267.32 389.69 266.88C389.75 266.34 391.17 266.06 391.19 265.88C391.94 254.27 390.14 238.71 391.69 226.73C392.07 265.76 389.47 304.68 390.19 343.7C390.37 353.59 394.26 394.75 391.69 400.56C390.06 404.25 385.38 405.7 381.71 406.3L381.7 406.29Z" fill="#1D1D23"/>
<path d="M390.68 185.33C391.08 199.07 391.54 212.99 391.68 226.73C390.13 238.72 391.93 254.28 391.18 265.88C391.17 266.06 389.74 266.34 389.68 266.88C389.63 267.32 392.38 274.97 388.43 271.62C387.1 270.5 388.92 267.09 384.69 267.13C385.08 254.02 385.73 160.65 384.69 155.15C384.61 154.75 383.62 152.84 383.19 152.41C380.25 149.39 371.86 151.83 372.22 148.17C375.09 145.91 373.22 145.93 373.22 143.93C378.5 143.63 387.77 144.63 389.68 150.66C390.39 152.91 390.5 179.42 390.68 185.33Z" fill="#243435"/>
<path d="M362.74 406.29C363.22 407.44 363.83 408.64 364.24 409.78C364.54 410.63 365.86 411.08 364.99 412.27C291.77 411.54 218.49 413.25 145.27 412.27L144.77 406.78C217.41 407.13 290.1 405.48 362.74 406.28V406.29Z" fill="#C5BF91"/>
<path d="M367.23 399.31C367.23 399.36 366.29 399.14 366.23 399.56C365.82 402.52 366.19 405.78 365.23 408.79C364.44 409.2 364.93 409.77 364.23 409.79C363.82 408.65 363.21 407.45 362.73 406.3C359.7 398.97 358.97 400.16 358.74 399.82C356.91 397.04 352.57 393.67 356.25 386.1C359.16 380.12 365.49 380.88 367.22 387.1C367.68 388.74 367.46 397.57 367.22 399.32L367.23 399.31Z" fill="#572E1D"/>
<path d="M368.23 406.79C368.57 407.15 370.55 409.91 370.72 410.28C371.09 411.07 372.31 411.78 370.97 412.28C366.72 413.86 366.64 407.14 368.23 406.79Z" fill="#E5CF95"/>
<path d="M373.22 143.93C373.22 145.93 375.09 145.91 372.22 148.17C371.86 151.83 380.25 149.39 383.19 152.41C378.23 151.34 373.1 151.89 368.23 152.91H367.73C367.99 149.19 366.99 147.72 368.73 144.43C370.3 144.55 371.65 144.02 373.22 143.93Z" fill="#1D1D23"/>
<path d="M348.78 130.96L155.25 130.46C186.31 118.39 216.69 104.84 246.78 90.56C280.27 105.4 315.38 116.03 348.78 130.96Z" fill="#F6F9F9"/>
<path d="M310.37 120.49C303.22 119.78 270.86 117.62 267.22 115.5C265.74 114.64 267.5 112.47 264.73 113.01L237.8 114.51C228.43 117.72 218.52 121.34 208.62 122.49C205.29 122.88 179.36 124.8 188.17 120.49C188.17 120.8 188.06 121.44 188.42 121.49C190.1 121.72 215.2 109.13 219.84 108.52C221.08 107.97 220.04 107.54 220.09 107.52C220.3 107.43 222.09 105.79 223.83 105.03C232.48 101.24 241.74 98.69 250.27 94.56C252.88 94.63 291.77 112.45 298.15 115.01C304.55 117.58 312.1 118.15 310.37 120.5V120.49Z" fill="#9FDDD4"/>
<path d="M310.37 120.49C313.08 120.76 318.37 120.13 320.1 121.99C309.98 122.16 300.06 122.7 289.92 121.99C281.66 121.41 271.81 121.07 265.23 115.51C256.31 116.48 247.34 116.71 238.3 116.51C230.09 120.74 221.14 121.53 212.11 122.5C210.97 122.39 209.77 122.58 208.62 122.5C218.52 121.35 228.43 117.73 237.8 114.52L264.73 113.02C267.51 112.49 265.74 114.65 267.22 115.51C270.85 117.62 303.22 119.78 310.37 120.5V120.49Z" fill="#235B59"/>
<path d="M220.09 107.52C220.09 107.52 221.08 107.97 219.84 108.52C215.2 109.13 190.1 121.72 188.42 121.49C188.06 121.44 188.16 120.8 188.17 120.49C198.44 115.47 209.39 111.52 220.09 107.52Z" fill="#6D9997"/>
<path d="M289.92 121.98C289.92 122.31 289.78 122.84 290.17 122.98C291.79 123.55 299.25 123.45 285.18 123.98C276.42 124.31 219.41 123.21 212.11 122.48C221.14 121.51 230.08 120.73 238.3 116.49C247.35 116.69 256.31 116.46 265.23 115.49C271.81 121.06 281.66 121.39 289.92 121.97V121.98Z" fill="#88C6C0"/>
<path d="M240.79 117.49C242.35 116.99 254.4 117.68 257.5 117.74C250.64 119.09 237.2 118.65 240.79 117.49Z" fill="#235B59"/>
<path d="M354.26 144.93C354.38 145.28 354.22 145.3 354.76 145.43C354.95 147.34 354.51 149.54 354.76 151.42C328.99 151.54 303.22 151.26 277.45 151.42C252.52 151.57 227.56 152.06 202.63 152.42C202.03 151.34 208.72 151.04 211.36 150.92C219.84 150.53 228.31 151.75 236.8 151.42V150.42C228.58 148.02 236.16 148.74 231.06 145.43C272.12 145.53 313.2 145.74 354.26 144.93Z" fill="#0F3849"/>
<path d="M139.29 309.53C137.19 324.08 139.68 338.89 138.79 353.42C138.24 362.39 134.79 373.84 135.3 383.6C132.83 384.47 133.43 385.13 133.3 385.35C132.6 386.6 131.01 387.75 130.31 389.59C130.17 391.93 131.02 394.04 131.31 396.32C131.54 398.11 131.2 400.01 131.81 401.81C127.09 401.49 121.64 402.64 117.35 395.58C110.61 384.48 113.32 338.77 113.36 323.51C115.21 323.88 113.82 321.16 114.61 320.52C115.15 320.08 116.26 321.29 116.85 321.02C117.76 320.6 118.44 310.53 126.33 303.56C132.3 299.09 135.7 304.87 138.55 309.05C138.8 309.41 138.72 307.46 139.3 309.55L139.29 309.53Z" fill="#E5CF95"/>
<path d="M133.8 218.25C118.1 229.62 130.05 238.67 142.78 244.44C135.84 244.17 130.09 239.58 125.57 234.71C122.53 234.54 131.13 243.75 134.8 245.18C136.08 249.2 138.34 245.98 138.29 248.17C136.33 247.55 137.15 249.28 137.29 253.16C134.59 258.09 137.45 262.89 136.79 268.37C136.78 268.48 135.5 268.93 135.29 269.87C135.22 270.18 136.09 275.04 134.04 275.61C130.58 276.56 129.48 268.64 125.06 266.13C123.48 265.24 121.17 265.16 120.32 266.13C116.62 270.33 125.98 275.62 124.81 287.33C123.96 295.86 114.07 302.05 116.58 303.54C117.29 303.96 118.02 302.83 118.33 303.29C118.83 304.05 114.1 311.03 116.83 321C116.23 321.28 115.13 320.06 114.59 320.5C113.8 321.14 115.2 323.87 113.34 323.49C113.43 292.95 113.25 262.23 113.84 231.71C118.45 229.94 112.37 217.61 117.08 216.25C117.43 216.15 121.76 216.15 122.07 216.25C128 218.12 119.44 229.94 126.31 223.98C127.56 222.89 129.32 217.95 130.05 217.75C131.12 218.65 132.53 218.48 133.79 218.25H133.8Z" fill="#ECE4BD"/>
<path d="M252.509 78.09C252.429 79.07 252.619 80.11 252.509 81.08C252.069 84.9 250.599 87.2 254.259 89.56C259.149 92.72 336.459 119.74 362.249 132.95C361.769 132.77 360.289 134.33 360.249 134.45C356.369 133.12 353.079 130.24 348.779 130.96C315.379 116.02 280.269 105.4 246.779 90.56C216.689 104.84 186.309 118.4 155.249 130.46L150.259 131.21L149.259 144.93C147.259 144.79 145.259 145.25 143.269 144.93C143.769 135.48 136.889 140.61 136.789 141.19C136.769 141.3 137.979 142.34 138.289 142.94C138.359 143.07 138.219 143.31 138.289 143.44C137.559 143.48 138.089 144.08 137.289 144.44C129.629 142.65 128.829 145 123.819 138.45C123.139 137.57 122.889 135.6 122.819 135.46C124.599 132 124.159 130.69 127.809 128.48C127.939 128.4 128.459 128.55 130.799 127.48C127.269 129.5 131.109 134.86 131.549 134.96C132.929 135.28 154.959 126.72 158.239 125.48C188.129 114.16 217.069 100.49 246.279 87.57C248.089 85.74 246.489 81.64 246.529 80.59C246.539 80.26 246.489 79.92 246.529 79.59C246.789 77.52 246.689 76.79 252.269 77.1C252.679 77.12 252.469 78.09 252.519 78.1L252.509 78.09Z" fill="#572E1D"/>
<path d="M158.239 125.47C157.149 122.91 154.189 123.72 155.749 119.98C173.919 111.6 193.159 105.28 211.359 97.04C211.939 96.78 213.299 95.73 213.599 95.04C224.639 90.41 235.739 85.79 246.519 80.58C246.479 81.64 248.079 85.74 246.269 87.56C217.059 100.48 188.119 114.14 158.229 125.47H158.239Z" fill="#846036"/>
<path d="M155.749 119.99C154.199 123.72 157.159 122.92 158.239 125.48C154.959 126.72 132.929 135.28 131.549 134.96C131.119 134.86 127.269 129.5 130.799 127.48C131.169 127.31 132.269 127.08 132.799 126.98C138.339 127.63 148.599 121.48 155.739 120L155.749 119.99Z" fill="#7D5430"/>
<path d="M213.609 95.05C213.299 95.74 211.949 96.78 211.369 97.05C193.169 105.3 173.919 111.61 155.759 119.99C148.619 121.47 138.349 127.62 132.819 126.97C159.999 116.97 186.919 106.25 213.619 95.05H213.609Z" fill="#572E1D"/>
<path d="M127.82 128.47C124.17 130.68 124.61 131.99 122.83 135.45C122.66 135.11 118.52 135.07 121.33 129.46C121.67 129.41 124.47 127.35 127.81 128.46L127.82 128.47Z" fill="#9A793D"/>
<path d="M325.829 110.51C328.41 111.62 331.08 113.9 333.56 115C338.92 117.37 373.03 131.24 374.46 132.96C376.43 135.32 373.39 135.11 377.2 137.45C377.23 137.47 377 137.68 377.7 137.95C376.41 140.3 378.2 143.25 376.2 142.94C374.24 136.93 367.2 135.51 362.23 132.96C336.44 119.75 259.13 92.73 254.24 89.57C250.58 87.21 252.05 84.91 252.49 81.09C276.45 92.08 301.61 100.14 325.81 110.52L325.829 110.51Z" fill="#846036"/>
<path d="M378.699 127.97L377.199 137.45C373.389 135.11 376.419 135.32 374.459 132.96C373.029 131.24 338.919 117.38 333.559 115C331.079 113.9 328.409 111.62 325.829 110.51C337.049 113.74 352.759 122.07 362.989 124.97C368.159 126.44 373.499 126.87 378.699 127.96V127.97Z" fill="#653E23"/>
<path d="M362.24 132.95C367.21 135.49 374.25 136.92 376.21 142.93C374.45 142.49 372.45 142.71 370.72 142.43C370.59 142.41 371.55 141.69 368.48 140.93L356.76 140.43C356.63 140.34 355.49 140.63 354.27 138.43C354.57 138.4 355.34 136.9 360.01 137.43C361.49 135.37 360.18 134.69 360.26 134.44C360.3 134.32 361.77 132.77 362.26 132.94L362.24 132.95Z" fill="#572E1D"/>
<path d="M143.279 144.93C145.259 145.25 147.269 144.79 149.269 144.93C150.329 145.01 150.219 144.93 150.269 144.93C150.759 144.96 150.819 145.47 151.269 145.43C149.679 146.46 151.039 146.32 150.769 147.92C149.919 153.04 148.289 150.71 147.779 151.66C147.479 152.21 148.449 157.37 144.789 158.39C144.659 158.32 141.679 157.79 141.799 158.39C141.409 157.6 138.819 153.22 138.809 152.9C138.729 151.33 141.829 148.05 141.799 147.66C141.779 147.39 138.659 144.04 138.309 143.42C138.239 143.29 138.379 143.05 138.309 142.92C139.229 140.38 139.899 144.36 143.299 144.92L143.279 144.93Z" fill="#9A793D"/>
<path d="M143.279 144.93C139.879 144.38 139.209 140.39 138.289 142.93C137.989 142.34 136.769 141.3 136.789 141.18C136.899 140.6 143.779 135.47 143.269 144.92L143.279 144.93Z" fill="#E5CF95"/>
<path d="M144.769 158.39C144.989 158.5 144.619 160.19 148.759 160.39C148.089 165.39 153.779 172.13 152.249 178.1C159.569 178.81 166.409 178.59 153.999 179.35C151.729 180.36 151.859 188.66 144.519 187.33C139.609 186.44 139.499 179.02 139.279 175.36C148.139 183.66 140.169 170.69 140.279 166.38C140.439 165.78 139.859 164.9 141.279 162.39C143.209 163.39 143.339 172.2 146.519 171.87C151.659 171.33 143.629 161.96 142.779 160.4C142.429 159.75 142.109 159.07 141.779 158.4C141.659 157.8 144.639 158.33 144.769 158.4V158.39Z" fill="#572E1D"/>
<path d="M152.259 153.41C152.179 154.54 148.819 160.01 148.769 160.39C144.629 160.2 144.999 158.5 144.779 158.39C148.449 157.36 147.469 152.21 147.769 151.66C148.279 150.71 149.909 153.04 150.759 147.92C151.269 154.48 152.279 153.09 152.259 153.41Z" fill="#382117"/>
<path d="M141.279 162.38C141.719 161.61 142.409 161.18 142.779 160.38C143.629 161.94 151.659 171.31 146.519 171.85C143.349 172.18 143.209 163.38 141.279 162.37V162.38Z" fill="#B29350"/>
<path d="M140.279 166.37C140.169 170.68 148.139 183.64 139.279 175.35C139.099 172.35 139.029 169.61 139.279 166.62C139.369 166.19 140.259 166.42 140.279 166.37Z" fill="#D2B275"/>
<path d="M370.72 142.43C370.62 143.02 369.57 142.84 368.72 144.43C366.98 147.72 367.99 149.19 367.72 152.91C367.47 156.48 367.19 160.36 364.23 154.66C364.06 154.34 364.72 150.03 361.24 148.92C359.01 148.21 357.99 152.68 357.25 144.93C357.84 144.8 360.82 143.88 360.74 143.18C358.34 142.3 356.96 140.59 356.75 140.44L368.47 140.94C371.54 141.69 370.58 142.41 370.71 142.44L370.72 142.43Z" fill="#653E23"/>
<path d="M357.26 144.93C358 152.68 359.02 148.21 361.25 148.92C357.67 150.18 365.42 157.27 358.51 151.41C356.13 151.37 357.62 158.06 357.76 161.88C356.52 160.09 355.039 153.46 354.769 151.41C354.519 149.54 354.959 147.34 354.769 145.42C354.889 145.45 356.79 145.03 357.26 144.92V144.93Z" fill="#B29350"/>
<path d="M367.73 152.91H368.23C367.58 159.29 371.15 171.17 364.99 175.36C363.27 176.53 359.47 177.4 357.51 176.86C352.38 175.43 351.89 151.81 357.51 165.89C358.58 165.32 357.84 164.22 357.76 161.9C357.62 158.08 356.13 151.39 358.51 151.43C365.42 157.29 357.67 150.2 361.25 148.94C364.74 150.05 364.08 154.35 364.24 154.68C367.2 160.38 367.48 156.5 367.73 152.93V152.91Z" fill="#572E1D"/>
<path d="M300.4 399.81C319.84 399.45 339.31 400.08 358.76 399.81C358.99 400.15 359.72 398.97 362.75 406.29C290.11 405.49 217.42 407.14 144.78 406.79C144.45 406.79 144.11 406.79 143.78 406.79L143.28 401.8C143.93 401.8 143.74 401.3 143.78 401.3C172.68 401.34 201.68 401.39 230.57 400.8C243.88 400.53 257.15 400.14 270.47 400.3C280.41 401.3 290.46 399.98 300.4 399.8V399.81Z" fill="#1D1D23"/>
<path d="M135.3 406.79C136.78 407.06 141.23 406.76 143.78 406.79C144.11 406.79 144.45 406.79 144.78 406.79L145.28 412.28C141.26 412.23 137.3 411.89 133.31 411.78L132.31 407.29C132.59 407.26 133.32 406.49 135.3 406.79Z" fill="#572E1D"/>
<path d="M143.28 396.31C143.52 398.69 142.78 401.18 143.78 401.3C143.74 401.3 143.93 401.8 143.28 401.8C139.89 401.8 136.06 402.42 132.81 402.3C132.75 402.3 133.17 401.89 131.81 401.8C131.2 400.01 131.54 398.11 131.31 396.31H143.28Z" fill="#572E1D"/>
<path d="M143.28 401.8L143.78 406.79C141.23 406.76 136.78 407.06 135.3 406.79C132.16 406.22 131.06 405.13 132.81 402.3C136.06 402.42 139.89 401.79 143.28 401.8Z" fill="#382117"/>
<path d="M138.289 385.34C138.939 388.17 142.659 390.08 143.279 396.31H131.309C131.019 394.02 130.169 391.91 130.309 389.58C131.009 387.74 132.599 386.59 133.299 385.34C135.489 384.85 136.239 383.81 138.289 385.34Z" fill="#572E1D"/>
<path d="M250.52 351.42C250.39 352.28 250.82 353.76 250.27 354.41C249.51 355.31 230.3 359.81 227.58 360.4C225.25 360.9 222.79 362.08 220.35 362.4C206.18 364.23 163.33 362.14 143.54 364.4C140.53 363.55 140.7 358.27 141.54 357.92C177.89 356.12 214.28 354.77 250.52 351.44V351.42Z" fill="#A4D39C"/>
<path d="M263.98 351.92C249.88 356.1 235.65 358.35 222.08 364.39C222.66 361.88 229.05 362.08 227.57 360.4C230.3 359.82 249.51 355.31 250.26 354.41C250.81 353.76 250.38 352.28 250.51 351.42C257.41 350.79 264.24 349.35 271.21 349.42C270.27 350.23 266.57 351.15 263.98 351.91V351.92Z" fill="#C0DAA7"/>
<path d="M354.761 151.41C355.031 153.47 356.511 160.1 357.751 161.88C357.831 164.2 358.571 165.3 357.501 165.87C351.881 151.79 352.371 175.41 357.501 176.84C359.461 177.39 363.261 176.51 364.981 175.34C371.141 171.16 367.571 159.27 368.221 152.89C373.101 151.87 378.221 151.32 383.181 152.39C383.601 152.82 384.601 154.73 384.681 155.13C385.721 160.63 385.071 254 384.681 267.11C384.301 279.83 383.371 292.53 383.681 305.27C382.581 306.94 380.491 309.03 380.191 309.51C379.011 308.54 382.131 306.37 382.681 304.27C382.941 303.29 381.651 303.6 381.681 303.27C381.761 302.47 383.201 302.69 382.681 299.28C382.621 298.88 381.771 299.19 381.681 298.78C381.351 297.18 382.641 294.67 379.191 293.04C379.411 290.57 378.261 270.03 376.451 270.1C366.971 287.15 344.181 297.71 337.301 307.26C325.441 323.7 336.771 333.73 366.231 311.5L368.231 313.99C363.531 317.2 358.651 320.75 354.761 324.96C353.691 325.07 353.481 325.59 352.761 325.96C324.851 340.26 294.921 347.69 263.981 351.9C266.571 351.13 270.271 350.22 271.211 349.41C264.241 349.33 257.411 350.77 250.511 351.41C214.261 354.75 177.871 356.09 141.531 357.89C140.681 358.24 140.511 363.53 143.531 364.37C163.321 362.12 206.181 364.2 220.341 362.37C222.781 362.06 225.241 360.87 227.571 360.37C229.051 362.05 222.661 361.85 222.081 364.36C214.861 367.58 194.461 380.99 211.111 367.35L211.361 365.85C208.571 367.45 207.591 365.86 207.371 365.85C188.561 364.58 159.531 367.55 139.531 367.35C138.321 367.88 137.891 383.62 138.281 385.31C136.231 383.78 135.481 384.82 133.291 385.31C133.411 385.09 132.811 384.44 135.291 383.56C134.781 373.81 138.241 362.35 138.781 353.38C139.581 342.49 141.911 319.08 139.281 309.49C138.711 307.4 138.781 309.35 138.531 308.99C135.681 304.82 132.281 299.03 126.311 303.5C130.421 296.53 132.871 291.93 132.301 283.55C135.991 279.17 133.761 283.77 137.291 285.05C137.021 289.93 138.411 307.55 139.291 299.51C147.711 299.32 143.121 317.19 143.281 323.7C143.281 324.08 144.261 323.82 144.281 324.2C144.641 334.35 141.721 341.19 154.511 341.41C154.641 341.41 155.141 342.12 155.511 342.41C156.201 340.47 166.621 340.09 167.981 341.41C167.661 339.06 174.511 340.61 181.451 339.91C206.841 337.36 231.761 330.4 257.271 328.44C264.721 327.17 311.251 316.63 314.131 316.97C319.441 317.59 315.371 322.01 306.151 324.45C283.037 329.103 259.927 333.76 236.821 338.42C231.551 339.23 233.851 343.49 236.821 343.91C240.161 344.38 268.741 336.68 275.231 335.43C289.711 332.64 304.411 330.83 318.871 327.95C320.721 329.43 318.611 325.51 319.871 319.72C322.391 308.09 332.391 300.67 343.061 297.03C343.741 296.36 342.321 296.57 342.311 296.53C342.111 295.81 341.241 294.9 341.311 294.29C341.361 293.87 343.191 293.08 342.811 292.05C355.551 289.53 371.671 276.15 375.981 263.62C367.301 274.39 353.361 285.03 339.571 287.56C332.461 288.87 328.311 287.96 324.861 288.06C317.411 283.87 305.491 279.23 308.901 268.36C312.601 256.58 331.841 265.04 324.861 261.13C324.861 260.75 325.011 260.4 324.611 260.13C321.861 258.29 315.761 259.7 324.111 257.14C327.731 260.57 330.431 258.34 328.101 256.64C325.211 254.53 323.471 259.28 326.101 251.15C333.891 248.16 328.341 253.54 332.091 257.14C334.681 251.58 333.921 249.25 341.321 250.16C333.041 252.27 329.211 261.96 335.331 268.62C332.421 272.65 331.581 273.21 334.831 276.1C342.991 283.35 360.701 271.48 367.251 265.63C370.541 262.69 374.021 259.5 376.231 255.65C376.291 255.54 377.401 254.81 377.231 253.41C375.761 252.6 375.811 253.65 375.731 253.66C374.931 253.79 374.841 253.91 374.231 254.16L372.731 253.16C373.031 252.98 376.901 248.52 377.221 247.92C387.781 228.6 356.351 253.24 353.781 249.92C351.161 246.53 377.371 235.23 377.721 232.96C378.591 227.44 374.841 232.47 367.741 237.2V235.2C376.441 233.8 366.831 233.77 362.501 230.71C360.541 229.32 357.251 224.82 356.761 222.48C354.951 213.77 358.611 223.43 359.751 224.97C361.121 226.82 366.291 231.46 368.481 231.7C374.281 232.34 365.241 229.35 362.251 220.98C359.311 212.76 361.741 208.67 361.751 208.01C361.941 197.6 341.021 218.72 362.251 232.95C361.441 234.67 345.611 225.53 349.781 210.01C351.461 203.75 361.101 200.68 353.771 202.28C360.551 196.86 359.991 200.75 360.751 200.78C362.881 200.86 366.671 191.28 359.501 186.81C348.941 180.24 342.361 191.28 334.311 195.79C332.461 194.83 331.271 198.34 328.821 192.8C334.331 189.26 341.711 180.12 340.541 173.35C329.241 204.79 298.311 197.2 271.711 200.28C258.791 202.95 249.341 215.38 223.831 213.75C216.931 213.31 205.091 210.83 219.091 211.75C255.611 214.17 250.621 199.77 269.221 196.79C295.861 192.52 328.501 207.82 339.301 170.85C343.001 173.56 348.961 182.48 347.281 171.6C346.191 164.52 334.811 159.14 328.581 157.88C312.221 154.57 301.821 161.3 304.641 162.87C313.971 152.45 348.031 159.89 345.541 175.34C330.061 154.54 305.861 165.93 291.671 182.32C290.531 182.59 287.411 177.95 268.981 178.33L254.271 177.83L250.531 174.09C250.311 168.47 248.221 174.3 247.541 171.35C251.741 165.65 246.421 161.35 241.061 159.88C238.611 154.89 242.661 156.43 245.301 155.39C245.721 155.23 246.611 153.67 248.791 153.39C250.551 153.16 257.771 155.47 259.761 152.39C264.471 153.71 278.621 153.53 277.471 151.39C303.241 151.23 329.011 151.51 354.781 151.39L354.761 151.41Z" fill="#ECE4BD"/>
<path d="M339.3 170.86C329.46 163.65 317.12 164.91 306.63 170.86C303.33 172.73 300.41 176.07 297.4 178.34C284.02 188.47 289 183.42 285.18 181.33C281.39 179.26 255.82 180.39 249.77 181.83C246.89 180.64 261.83 178.49 268.97 178.34C287.4 177.96 290.52 182.6 291.66 182.33C305.85 165.94 330.05 154.55 345.53 175.35C348.02 159.9 313.96 152.46 304.63 162.88C301.81 161.31 312.21 154.58 328.57 157.89C334.8 159.15 346.18 164.53 347.27 171.61C348.95 182.49 342.99 173.57 339.29 170.86H339.3Z" fill="#31271F"/>
<path d="M138.79 353.42C139.67 338.88 137.19 324.07 139.29 309.53C141.93 319.12 139.59 342.54 138.79 353.42Z" fill="#332A12"/>
<path d="M372.47 157.89C374.01 157.89 372.07 178.85 371.72 180.58C369.35 192.27 369.85 167.91 372.47 157.89Z" fill="#31271F"/>
<path d="M367.73 235.21C353.23 237.54 337.76 215.38 353.76 202.29C361.09 200.7 351.45 203.77 349.77 210.02C345.6 225.54 361.43 234.68 362.24 232.96C341.01 218.73 361.93 197.62 361.74 208.02C361.73 208.68 359.29 212.77 362.24 220.99C365.24 229.36 374.28 232.35 368.47 231.71C366.28 231.47 361.11 226.83 359.74 224.98C358.6 223.43 354.94 213.78 356.75 222.49C357.24 224.83 360.52 229.33 362.49 230.72C366.82 233.78 376.43 233.81 367.73 235.21Z" fill="#F67142"/>
<path d="M366.73 205.78L366.23 205.28C368.56 201.31 373.78 197.47 374.21 199.54C369.7 211.08 377.61 220.86 373.46 229.72C369.69 223.45 366.19 216.66 366.73 209.02C366.75 208.69 369.3 200.7 366.73 205.78Z" fill="#F67142"/>
<path d="M366.731 205.78C360.891 217.32 373.241 230.29 371.971 230.72C364.841 223.64 360.741 214.66 366.231 205.28L366.731 205.78Z" fill="#E55234"/>
<path d="M132.3 283.59C132.87 291.97 130.42 296.57 126.31 303.54C118.43 310.51 117.75 320.58 116.83 321C114.1 311.04 118.82 304.05 118.33 303.29C118.03 302.83 117.29 303.96 116.58 303.54C114.07 302.05 123.96 295.86 124.81 287.33C125.98 275.62 116.62 270.33 120.32 266.13C127.5 266.59 131.84 277.02 132.29 283.59H132.3Z" fill="#14262D"/>
<path d="M122.08 268.13C136.81 279.86 128.21 298.54 118.59 311.03C125.63 294.3 135.04 286.21 122.08 268.13Z" fill="#ECE4BD"/>
<path d="M360.75 200.79C359.99 200.76 360.54 196.87 353.77 202.29C337.77 215.38 353.24 237.54 367.74 235.21V237.21C364.62 239.29 350.29 247.31 349.78 249.93C348.38 257.19 358.43 256.15 362.75 255.67L363.75 256.42C356.25 258.18 349.05 262.06 341.06 261.66C347.53 269.42 364.49 260.86 370.24 254.18C370.85 253.94 372.42 253.38 372.73 253.18L374.23 254.18C367.05 257.13 357.76 267.92 343.31 269.14C342.65 269.2 341.98 269.1 341.31 269.14C332.73 266.05 331.82 257.48 339.07 252.18C342.34 249.79 346.24 250.79 341.31 250.18C333.91 249.28 334.67 251.61 332.08 257.16C328.33 253.57 333.89 248.19 326.09 251.17C323.45 259.3 325.2 254.55 328.09 256.66C330.42 258.36 327.72 260.59 324.1 257.16C315.75 259.73 321.85 258.32 324.6 260.15C325 260.41 324.86 260.76 324.85 261.15C309.28 252.42 290.33 276.28 320.36 289.08C328.45 292.53 333.9 293.83 342.81 292.07C343.2 293.1 341.37 293.89 341.31 294.31C341.23 294.93 342.1 295.83 342.31 296.55C327.89 298.99 313.8 312.32 318.87 327.97C304.4 330.85 289.7 332.66 275.23 335.45C268.74 336.7 240.17 344.4 236.82 343.93C233.85 343.51 231.55 339.26 236.82 338.44C259.933 333.787 283.043 329.13 306.15 324.47C315.37 322.02 319.44 317.61 314.13 316.99C311.25 316.65 264.72 327.19 257.27 328.46C231.76 330.42 206.85 337.38 181.45 339.93C174.51 340.63 167.66 339.07 167.98 341.43C166.62 340.11 156.2 340.49 155.51 342.43C155.14 342.14 154.64 341.43 154.51 341.43C141.72 341.21 144.65 334.37 144.28 324.22C144.27 323.84 143.29 324.1 143.28 323.72C143.12 317.21 147.71 299.34 139.29 299.53C139.85 294.38 139.02 288.96 138.79 283.82C138.79 283.64 140.13 283.07 139.79 281.82C139.47 280.69 137.6 279.61 137.3 285.06C133.77 283.79 136 279.19 132.31 283.56C131.86 276.99 127.52 266.56 120.34 266.1C121.19 265.13 123.5 265.21 125.08 266.1C129.5 268.6 130.6 276.53 134.06 275.58C136.11 275.01 135.24 270.15 135.31 269.84C135.52 268.91 136.79 268.45 136.81 268.34C137.47 262.86 134.61 258.06 137.31 253.13C137.85 267.51 136.5 275.2 136.81 276.32C138.91 283.87 140.5 257.6 138.31 248.14C138.36 245.94 136.1 249.16 134.82 245.15C147.35 250.04 161.33 240.2 169.24 230.93C177.91 220.78 187.17 195.85 205.15 208.98C194.62 209.64 189.36 213.84 182.21 220.7C180.04 222.79 179.01 222.62 178.72 222.94C178.55 223.13 178.88 224.49 178.72 224.69C178.53 224.92 178 224.15 177.97 224.19C173.94 230.01 177.87 231.16 184.7 232.17V232.67C183.22 233.58 180.55 236.99 178.96 237.16C178.31 237.23 163.71 231.44 174.47 237.16C180.65 240.45 186.68 239.61 193.17 238.16C193.77 238.95 193.6 239.61 193.67 239.66C196.02 241.31 206.54 236.74 208.88 234.67C215.36 240.81 235.06 227.11 240.8 219.71C241.95 219.48 248.14 224.24 256.26 217.71C267.37 223.02 283.76 217.78 291.67 208.73C299.68 210.59 314.21 206.84 321.1 202.74C324.89 200.49 329.35 196.01 324.34 198.75C324.48 198.55 326.19 194.55 325.34 194.26C325.52 194.17 327.18 193.83 328.83 192.76C331.28 198.3 332.47 194.79 334.32 195.75C332.87 196.56 330.41 196.92 330.33 197.5C341.55 209.07 354.07 187.53 359.01 188.27C362.94 188.86 362.24 198.15 360.76 200.74L360.75 200.79Z" fill="#ECE4BD"/>
<path d="M138.29 248.17C140.48 257.63 138.89 283.9 136.79 276.35C136.48 275.23 137.83 267.53 137.29 253.16C137.15 249.28 136.33 247.55 138.29 248.17Z" fill="#31271F"/>
<path d="M139.29 299.55C138.41 307.59 137.02 289.96 137.29 285.09C137.6 279.64 139.47 280.71 139.78 281.85C140.13 283.09 138.77 283.66 138.78 283.85C139.01 288.99 139.84 294.41 139.28 299.56L139.29 299.55Z" fill="#1E1817"/>
<path d="M193.65 239.7C196.33 240.81 210.84 232.56 211.11 233.47C211.21 233.81 207.41 236.54 214.85 235.71C222.55 234.85 235.59 224.41 240.79 218.25C250.38 223.13 255.43 215.38 257.75 215.76C268.95 223.19 283.43 215.75 292.17 207.28C299.08 210.25 320.34 204.45 324.34 198.8C329.35 196.06 324.89 200.54 321.1 202.79C314.21 206.89 299.68 210.63 291.67 208.78C283.76 217.83 267.36 223.07 256.26 217.76C248.14 224.29 241.94 219.52 240.8 219.76C235.05 227.16 215.36 240.87 208.88 234.72C206.54 236.79 196.02 241.35 193.67 239.71L193.65 239.7Z" fill="#433018"/>
<path d="M184.68 233.71C183.71 235.84 181.16 236.41 179.94 238.2C181.17 239.52 201.71 236.29 193.16 238.2C186.67 239.65 180.64 240.49 174.46 237.2C163.7 231.48 178.3 237.27 178.95 237.2C180.54 237.03 183.21 233.62 184.69 232.71C184.65 233.08 184.76 233.55 184.69 233.71H184.68Z" fill="#46240B"/>
<path d="M349.03 256.16C352.58 256.18 356.6 256.94 352.52 258.65C343.36 262.51 336.94 256.08 349.03 256.16Z" fill="#31271F"/>
<path d="M333.56 295.56C333.72 295.59 334.58 296.39 334.06 296.56C311.35 302.8 331.74 295.26 333.56 295.56Z" fill="#31271F"/>
<path d="M343.29 269.12L343.79 270.12C341.11 269.74 341.42 269.17 341.3 269.12C341.96 269.08 342.64 269.18 343.3 269.12H343.29Z" fill="#833F1D"/>
<path d="M339.3 170.86C325.63 196.82 321.48 194.13 299.9 194.3C299.89 192.01 293.32 194.77 292.92 191.56C292.8 190.6 295.39 188.28 295.41 188.07C295.51 187.01 291.9 186.12 297.41 178.34C300.41 176.06 303.33 172.73 306.64 170.86C317.13 164.91 329.47 163.65 339.31 170.86H339.3Z" fill="#E5CF95"/>
<path d="M328.83 192.81C327.18 193.87 325.52 194.21 325.34 194.31C304.02 205.1 289.77 199.71 271.72 203.29C257.11 206.18 259.49 213.36 228.57 217.26C228.22 216.43 224.92 216.76 222.09 216.76C221.41 215.13 210.39 214.54 206.38 214.76C202.66 214.97 192.5 216.93 189.67 219.25C189.18 219.66 188.48 219.92 188.67 220.75C186.98 220.97 183.37 221.63 182.19 220.75C189.34 213.89 194.61 209.69 205.13 209.03C187.15 195.9 177.88 220.83 169.22 230.98C161.31 240.25 147.33 250.08 134.8 245.2C131.13 243.77 122.53 234.55 125.57 234.73C130.09 239.6 135.84 244.19 142.78 244.46C130.05 238.69 118.1 229.64 133.8 218.27C134.81 218.08 139.87 216.14 140.28 217.02C118.25 225.82 136.9 242.69 147.01 241.71C149.06 241.51 158.83 235.4 160.98 233.73C170.33 226.43 175.1 215.75 181.43 210.79C197.76 197.98 206.33 208.7 208.86 209.29C209.43 209.42 218.6 209.69 220.58 209.79L219.08 211.79C205.08 210.86 216.92 213.34 223.82 213.79C249.33 215.42 258.79 203 271.7 200.32C298.31 197.23 329.23 204.82 340.53 173.39C341.7 180.17 334.32 189.3 328.81 192.84L328.83 192.81Z" fill="#E55234"/>
<path d="M219.09 211.76L220.59 209.76C251.67 211.37 249.95 201.68 262.24 196.79C274.04 192.1 287.61 194.39 299.9 194.3C321.48 194.13 325.63 196.81 339.3 170.86C328.5 207.83 295.86 192.52 269.22 196.8C250.62 199.78 255.61 214.18 219.09 211.76Z" fill="#C3442E"/>
<path d="M277.45 151.41C278.6 153.55 264.46 153.73 259.74 152.41C257.75 155.49 250.53 153.18 248.77 153.41C246.59 153.69 245.69 155.24 245.28 155.41C242.64 156.45 238.59 154.91 241.04 159.9C239.1 159.37 235.75 158.5 233.81 158.9C224.89 160.75 240.69 160.2 244.28 163.89C251.97 171.77 231.83 174.75 230.81 174.36C230.31 174.17 232.67 170.74 223.33 168.37C193.88 160.92 178.53 193.18 201.88 187.32C207.35 185.95 212.51 181.34 216.34 179.84C226.05 176.05 243.07 177.38 247.51 171.36C248.19 174.31 250.29 168.48 250.5 174.1L254.24 177.84L268.95 178.34C261.8 178.49 246.87 180.64 249.75 181.83C255.81 180.39 281.37 179.26 285.16 181.33C288.98 183.42 284 188.47 297.38 178.34C291.88 186.12 295.49 187 295.38 188.07C295.36 188.28 292.77 190.6 292.89 191.56C293.29 194.77 299.86 192.02 299.87 194.3C287.58 194.4 274.01 192.1 262.21 196.79C249.93 201.68 251.64 211.37 220.56 209.76C218.58 209.66 209.41 209.39 208.84 209.26C206.31 208.67 197.74 197.95 181.41 210.76C175.08 215.72 170.31 226.41 160.96 233.7C158.82 235.37 149.04 241.48 146.99 241.68C136.87 242.66 118.22 225.79 140.26 216.99C139.85 216.11 134.78 218.05 133.78 218.24C132.52 218.48 131.11 218.64 130.04 217.74C129.31 217.95 127.55 222.89 126.3 223.97C119.43 229.93 127.99 218.11 122.06 216.24C121.75 216.14 117.43 216.14 117.07 216.24C112.36 217.6 118.44 229.93 113.83 231.7C114.09 218.35 114.48 205.13 115.33 191.8C116.16 178.71 116.98 165.64 118.82 152.65L138.77 152.9C138.79 153.21 141.37 157.59 141.76 158.39C142.09 159.05 142.4 159.73 142.76 160.39C142.4 161.19 141.7 161.61 141.26 162.39C139.84 164.9 140.42 165.78 140.26 166.38C140.25 166.43 139.36 166.2 139.26 166.63C139.01 169.62 139.08 172.35 139.26 175.36C139.48 179.02 139.58 186.44 144.5 187.33C151.84 188.66 151.71 180.36 153.98 179.35C166.39 178.6 159.56 178.81 152.23 178.1C153.76 172.13 148.07 165.39 148.74 160.39C148.79 160 152.15 154.54 152.23 153.41C169.01 152.62 185.81 152.66 202.61 152.41C227.54 152.05 252.5 151.57 277.43 151.41H277.45Z" fill="#ECE4BD"/>
<path d="M202.38 194.31C205.67 194.12 220.29 194.02 222.33 194.31C241.42 197.02 204.74 198.37 197.89 199.3C185.2 201.02 172.67 205.94 159.98 207.28C142.18 209.16 141.93 204.8 150 202.29C152.53 201.5 198.18 194.56 202.37 194.31H202.38Z" fill="#E55234"/>
<path d="M163.48 181.84C188.61 179.28 188.85 193.29 173.95 195.31C154.42 197.96 164.42 181.71 174.45 187.33C176.15 188.28 176.28 190.26 176.45 190.32C178.51 191.13 184.67 183.94 169.47 183.34C163.6 183.11 146.25 188.42 155.5 183.84C157.3 182.95 161.47 182.05 163.48 181.84Z" fill="#E55234"/>
<path d="M167.47 213.26C173.41 211.06 165.4 226.43 155 233.21C139.21 243.5 133.28 229.95 135.55 228.22C140.74 236.72 145.06 236.01 153.01 231.71C166.34 224.5 166.35 213.67 167.47 213.25V213.26Z" fill="#E55234"/>
<path d="M324.34 198.79C320.33 204.44 299.08 210.24 292.17 207.27C283.44 215.74 268.95 223.18 257.75 215.75C255.43 215.37 250.38 223.13 240.79 218.24C235.59 224.4 222.55 234.84 214.85 235.7C207.41 236.53 211.21 233.79 211.11 233.46C210.84 232.56 196.33 240.81 193.65 239.69C193.59 239.64 193.75 238.99 193.15 238.19C201.7 236.28 181.16 239.51 179.93 238.19C181.15 236.4 183.7 235.83 184.67 233.7C194.53 235.93 202.45 234.27 211.85 231.7C212.47 231.53 215.35 230.64 215.09 229.7C217.96 228.97 224.14 227.52 226.31 225.71C231.37 221.5 224.46 224.76 220.57 225.71C226.73 220.93 220.4 225.25 219.57 218.23C222.54 217.92 225.59 217.61 228.55 217.23C259.46 213.33 257.09 206.16 271.7 203.26C289.74 199.68 304 205.07 325.32 194.28C326.17 194.57 324.46 198.57 324.32 198.77L324.34 198.79Z" fill="#ECE4BD"/>
<path d="M219.59 218.25C220.42 225.28 226.75 220.95 220.59 225.73C212.92 227.61 202.73 229.43 194.9 229.22C192.24 229.15 178.28 228.18 178.69 224.73C178.85 224.53 178.52 223.17 178.69 222.98C178.98 222.66 180.01 222.82 182.18 220.74C183.37 221.62 186.98 220.96 188.66 220.74C198.99 219.37 209.27 219.31 219.58 218.25H219.59Z" fill="#FCD58D"/>
<path d="M222.09 216.75C211.16 216.74 200.49 217.81 189.67 219.24C192.5 216.92 202.66 214.96 206.38 214.75C210.39 214.53 221.41 215.12 222.09 216.75Z" fill="#E5CF95"/>
<path d="M222.09 216.75C224.92 216.75 228.22 216.42 228.57 217.25C225.61 217.62 222.56 217.94 219.59 218.25C209.27 219.32 198.99 219.37 188.67 220.74C188.48 219.91 189.17 219.65 189.67 219.24C200.49 217.81 211.16 216.73 222.09 216.75Z" fill="#C65027"/>
<path d="M241.04 159.89C246.41 161.36 251.73 165.67 247.52 171.36C243.08 177.38 226.06 176.05 216.35 179.84C212.52 181.34 207.36 185.95 201.89 187.32C178.54 193.18 193.89 160.92 223.34 168.37C232.68 170.73 230.32 174.17 230.82 174.36C231.83 174.74 251.98 171.77 244.29 163.89C240.69 160.2 224.89 160.75 233.82 158.9C235.76 158.5 239.11 159.36 241.05 159.9L241.04 159.89Z" fill="#E55234"/>
<path d="M223.331 172.86C239.361 172.24 220.651 175.61 217.341 176.85C215.861 177.41 201.791 185.39 201.131 184.08C206.501 177.77 214.961 173.18 223.331 172.86Z" fill="#FDE3B4"/>
<path d="M215.35 169.37C217.6 169.26 221.79 169.78 223.83 170.87C216.4 170.5 208.68 172.27 202.38 176.36C200.55 177.55 189.85 188.44 197.14 178.11C200.71 173.05 209.36 169.67 215.35 169.38V169.37Z" fill="#FDE3B4"/>
<path d="M215.1 229.72C206.31 231.96 193.55 233.52 184.67 232.21C177.83 231.2 173.91 230.04 177.94 224.23C177.97 224.19 178.5 224.96 178.69 224.73C178.28 228.18 192.24 229.15 194.9 229.22C202.72 229.43 212.91 227.6 220.59 225.73C224.48 224.78 231.39 221.52 226.33 225.73C224.16 227.54 217.98 228.99 215.11 229.72H215.1Z" fill="#C3442E"/>
<path d="M215.1 229.72C215.35 230.66 212.48 231.55 211.86 231.72C202.46 234.29 194.53 235.95 184.68 233.72C184.75 233.56 184.64 233.09 184.68 232.72V232.22C193.55 233.53 206.32 231.97 215.11 229.73L215.1 229.72Z" fill="#F9A65A"/>
<path d="M360.75 200.79C362.23 198.2 362.93 188.91 359 188.32C354.05 187.58 341.54 209.12 330.32 197.55C330.4 196.98 332.86 196.62 334.31 195.8C342.35 191.29 348.94 180.25 359.5 186.82C366.67 191.28 362.87 200.87 360.75 200.79Z" fill="#31271F"/>
<path d="M351.521 186.33C353.671 186.09 357.761 187.17 357.751 187.58C348.471 191.04 343.001 204.69 331.811 198.05C338.901 197.23 345.501 186.99 351.511 186.33H351.521Z" fill="#ECE4BD"/>
<path d="M377.21 399.31C373.9 399.44 370.55 399.21 367.23 399.31C367.47 397.56 367.69 388.73 367.23 387.09C365.5 380.87 359.16 380.11 356.26 386.09C352.58 393.66 356.92 397.03 358.75 399.81C339.31 400.08 319.83 399.45 300.39 399.81C301.54 398.54 308.25 397.62 312.61 396.32C318.71 394.49 347.18 384.39 353.51 381.86C356.67 380.59 378.45 369.37 379.2 370.64C377.78 385.93 380.52 381.71 381.2 383.61C382.52 387.3 378.62 395.57 377.21 399.32V399.31Z" fill="#F67142"/>
<path d="M379.2 293.07C378.35 302.76 373.35 306.15 366.23 311.53C336.77 333.76 325.44 323.73 337.3 307.29C344.18 297.74 366.97 287.18 376.45 270.13C378.26 270.06 379.41 290.6 379.19 293.07H379.2Z" fill="#F67142"/>
<path d="M352.771 325.99C326.041 345.8 305.561 347.77 274.961 354.92C265.641 357.1 255.831 357.97 246.531 360.41C227.571 365.38 204.271 376.99 201.891 376.87C197.611 376.66 208.761 367.14 211.121 367.39C194.481 381.03 214.871 367.61 222.091 364.4C235.661 358.36 249.881 356.11 263.991 351.93C294.941 347.72 324.871 340.29 352.771 325.99Z" fill="#E55234"/>
<path d="M372.72 253.16C372.41 253.35 370.84 253.92 370.23 254.16C369.56 254.42 363.98 255.52 362.75 255.66C358.44 256.15 348.38 257.19 349.78 249.92C350.29 247.3 364.62 239.28 367.74 237.2C374.84 232.47 378.58 227.44 377.72 232.96C377.36 235.23 351.16 246.53 353.78 249.92C356.35 253.24 387.79 228.6 377.22 247.92C376.9 248.51 373.03 252.97 372.73 253.16H372.72Z" fill="#F67142"/>
<path d="M342.79 292.07C333.88 293.83 328.43 292.53 320.34 289.08C320.9 288.72 324.6 288.09 324.83 288.08C328.28 287.98 332.43 288.89 339.54 287.58C353.33 285.05 367.27 274.4 375.95 263.64C371.64 276.17 355.52 289.55 342.78 292.07H342.79Z" fill="#1D1D23"/>
<path d="M324.84 261.14C331.82 265.05 312.58 256.59 308.88 268.37C305.47 279.24 317.39 283.88 324.84 288.07C324.61 288.07 320.92 288.71 320.35 289.07C290.31 276.27 309.27 252.41 324.84 261.14Z" fill="#F67142"/>
<path d="M341.3 269.12C341.43 269.17 341.12 269.73 343.79 270.12C348.35 270.77 354.01 269.41 358.25 267.63V269.13C357.02 269.69 349.75 272.55 349.27 272.62C346.59 272.99 342.39 272.57 339.79 271.62C339.54 271.53 335.48 268.83 335.3 268.63C329.17 261.97 333.01 252.28 341.29 250.17C346.21 250.77 342.32 249.77 339.05 252.17C331.81 257.47 332.71 266.04 341.29 269.13L341.3 269.12Z" fill="#F67142"/>
<path d="M318.85 327.98C313.78 312.32 327.87 299 342.29 296.56C342.3 296.6 343.72 296.39 343.04 297.06C332.37 300.7 322.37 308.13 319.85 319.75C318.59 325.54 320.7 329.46 318.85 327.98Z" fill="#31271F"/>
<path d="M375.71 253.66C371.09 258.57 364.5 265 358.25 267.63C354 269.42 348.34 270.78 343.79 270.12L343.29 269.12C357.75 267.9 367.04 257.11 374.21 254.16C374.82 253.91 374.91 253.79 375.71 253.66Z" fill="#2C2E2A"/>
<path d="M366.731 264.14C368.911 264.09 366.051 265.28 367.231 265.64C360.681 271.49 342.971 283.37 334.811 276.11C336.781 277.19 346.151 278.78 344.291 275.61C345.381 275.58 348.751 273.91 349.281 272.62C349.761 272.55 357.031 269.69 358.261 269.13C361.031 267.86 364.291 265.94 366.741 264.14H366.731Z" fill="#2C2E2A"/>
<path d="M339.8 271.62C338.65 273.5 342.18 275.67 344.29 275.61C346.16 278.78 336.78 277.19 334.81 276.11C331.56 273.22 332.4 272.66 335.31 268.63C335.49 268.83 339.55 271.53 339.8 271.62Z" fill="#31271F"/>
<path d="M376.21 255.66C372.4 257.67 370.13 261.65 366.73 264.14C364.28 265.93 361.02 267.86 358.25 269.13V267.63C364.49 265 371.09 258.58 375.71 253.66C375.78 253.65 375.73 252.61 377.21 253.41C377.39 254.82 376.27 255.55 376.21 255.65V255.66Z" fill="#EEC194"/>
<path d="M376.21 255.66C374 259.51 370.52 262.7 367.23 265.64C366.06 265.28 368.92 264.1 366.73 264.14C370.12 261.65 372.4 257.68 376.21 255.66Z" fill="#31271F"/>
<path d="M270.47 400.3C257.15 400.14 243.88 400.53 230.57 400.8C231.36 398.96 239.49 399.11 244.29 398.31C253.13 396.82 261.83 394.1 270.73 392.82C302.47 384.31 333.44 373.12 364.5 362.39C367.42 361.38 374.58 356.48 375.72 359.15C376.1 360.03 375.05 360.89 374.47 361.39C370.92 364.5 342.98 371.34 353.52 370.37C366.64 369.16 375.82 361.37 376.96 361.89C377.19 362 378.73 366.38 378.71 366.63C378.55 368.25 361.34 375.68 358.51 376.86C330.35 388.53 300.37 394.94 270.47 400.3Z" fill="#F67142"/>
<path d="M274.96 354.92C274.75 355.9 296.01 354.24 285.19 357.91C283.4 358.52 249.51 363.65 247.78 362.9C247.53 362.79 247.68 361.63 246.53 360.41C255.83 357.97 265.64 357.1 274.96 354.92Z" fill="#E5CF95"/>
<path d="M380.2 309.53C367.23 330.11 341.56 338.76 340.8 341.2C340.17 343.21 344.81 341.59 349.53 339.95C365.57 334.39 374.24 324.71 383.7 311.27C382.12 340.25 386.29 369.09 385.7 398.06C384.97 399.63 378.88 399.24 377.22 399.31C378.63 395.55 382.53 387.29 381.21 383.6C380.53 381.7 377.79 385.92 379.21 370.63C378.46 369.36 356.68 380.59 353.52 381.85C347.19 384.38 318.72 394.49 312.62 396.31C308.26 397.61 301.55 398.53 300.4 399.8C290.46 399.98 280.42 401.3 270.47 400.3C300.36 394.93 330.34 388.53 358.51 376.86C361.34 375.69 378.55 368.25 378.71 366.63C378.74 366.38 377.19 362 376.96 361.89C375.82 361.37 366.63 369.16 353.52 370.37C342.97 371.34 370.92 364.5 374.47 361.39C375.05 360.88 376.09 360.03 375.72 359.15C374.58 356.48 367.42 361.38 364.5 362.39C333.44 373.12 302.47 384.31 270.73 392.82C261.84 394.1 253.13 396.82 244.29 398.31C239.5 399.12 231.37 398.96 230.57 400.8C201.68 401.39 172.68 401.34 143.78 401.3C142.78 401.18 143.52 398.69 143.28 396.31C142.66 390.07 138.95 388.17 138.29 385.34C137.9 383.65 138.33 367.91 139.54 367.38C159.54 367.58 188.57 364.62 207.38 365.88C207.6 365.89 208.58 367.48 211.37 365.88L211.12 367.38C208.76 367.13 197.62 376.65 201.89 376.86C204.27 376.98 227.57 365.37 246.53 360.4C247.67 361.62 247.53 362.78 247.78 362.89C249.51 363.65 283.4 358.51 285.19 357.9C296.02 354.23 274.76 355.89 274.96 354.91C305.56 347.76 326.04 345.79 352.77 325.98C353.49 325.61 353.7 325.09 354.77 324.98C364.89 320.16 380.53 305.61 368.24 314.01L366.24 311.52C373.36 306.15 378.36 302.76 379.21 293.06C382.67 294.68 381.38 297.19 381.7 298.8C381.78 299.21 382.64 298.9 382.7 299.3C383.22 302.71 381.78 302.49 381.7 303.29C381.67 303.62 382.96 303.31 382.7 304.29C382.15 306.38 379.03 308.56 380.21 309.53H380.2Z" fill="#E5CF95"/>
<path d="M354.761 324.99C358.651 320.78 363.531 317.23 368.231 314.02C380.521 305.62 364.881 320.17 354.761 324.99Z" fill="#DC6B47"/>
<path d="M368.23 339.45L369.23 340.45C346.47 354.18 300.46 364.86 273.46 367.14C271.82 364.99 320.65 354.72 323.59 353.92C333.4 351.25 359.96 343.09 368.23 339.46V339.45Z" fill="#1E1817"/>
<path d="M283.94 378.86V382.35C272.88 384.12 261.24 384.66 250.27 386.84C236.57 389.56 223.06 397.34 209.62 392.58C226.82 393.95 236.72 386.22 252.27 382.85C262.78 380.57 274.8 380.37 283.94 378.86Z" fill="#1D1D23"/>
<path d="M380.451 339.95C385.661 339.94 376.031 349.96 369.981 353.42C362.351 357.77 351.051 360.37 342.301 361.15C351.091 355.32 361.921 351.12 371.481 345.94C372.811 345.22 379.921 339.96 380.461 339.95H380.451Z" fill="#F67142"/>
<path d="M283.94 382.35V378.86C292.45 377.46 301.3 376.13 309.63 373.87C316.2 372.09 328.52 366.38 329.58 366.39C329.73 366.39 330.12 367.5 332.32 367.64C317.49 375.99 300.56 379.74 283.94 382.35Z" fill="#31271F"/>
<path d="M200.39 380.85C203.31 390.01 215.66 386.61 223.08 388.08C223.6 391.28 187.25 395.06 200.39 380.85Z" fill="#14262D"/>
<path d="M246.28 366.89C250.42 366.33 257 366.84 260.25 369.88C244.75 366.13 234.28 372.1 227.58 386.09C224.31 389.04 230.44 375.8 237.31 370.88C239.36 369.41 243.9 367.21 246.29 366.89H246.28Z" fill="#2E392D"/>
<path d="M324.091 362.9C325.871 367.54 307.021 370.74 306.881 369.13L324.091 362.9Z" fill="#F58675"/>
<path d="M335.56 341.95C339.73 341.88 333.49 344.36 332.07 344.94C311.45 353.37 325.27 342.13 335.56 341.95Z" fill="#E55234"/>
<path d="M339.05 358.91C344.55 358.4 330.95 365.43 330.07 365.39C325.42 365.17 334.19 359.36 339.05 358.91Z" fill="#F46F60"/>
<path d="M300.64 352.42C308.12 352.08 301.15 354.83 292.41 356.66L300.64 352.42Z" fill="#ECE4BD"/>
<path d="M369.23 340.45L368.23 339.45C371.34 338.08 375.27 334.82 378.7 334.21C375.7 336.53 372.47 338.49 369.22 340.44L369.23 340.45Z" fill="#DC6B47"/>
<path d="M370.23 254.16C364.48 260.85 347.52 269.4 341.05 261.64C349.05 262.04 356.25 258.17 363.74 256.4L362.74 255.65C363.97 255.51 369.55 254.41 370.22 254.15L370.23 254.16Z" fill="#FC8C49"/>
<path d="M349.28 272.62C348.75 273.92 345.39 275.58 344.29 275.61C342.19 275.67 338.65 273.5 339.8 271.62C342.39 272.56 346.59 272.99 349.28 272.62Z" fill="#FDE3B4"/>
</svg>
