<svg viewBox="0 0 160 157" fill="none" xmlns="http://www.w3.org/2000/svg">
<path d="M75.055 5.05289C75.9048 -0.627367 84.0952 -0.627365 84.945 5.0529L90.1948 40.1436C90.7816 44.0655 95.4819 45.7763 98.4523 43.1491L125.03 19.6426C129.332 15.8375 135.606 21.1021 132.606 25.9997L114.072 56.2553C112 59.6368 114.501 63.9686 118.465 63.8654L153.935 62.9421C159.676 62.7926 161.098 70.8585 155.652 72.6818L122.006 83.9453C118.246 85.2041 117.377 90.1301 120.48 92.5992L148.245 114.691C152.739 118.267 148.644 125.36 143.3 123.256L110.285 110.257C106.595 108.804 102.764 112.02 103.554 115.906L110.622 150.676C111.766 156.304 104.07 159.105 101.329 154.058L84.3937 122.879C82.501 119.395 77.499 119.395 75.6063 122.879L58.6713 154.058C55.93 159.105 48.2336 156.304 49.3778 150.676L56.4463 115.906C57.2363 112.02 53.4046 108.804 49.7147 110.257L16.7004 123.256C11.3562 125.36 7.26104 118.267 11.7554 114.691L39.5199 92.5992C42.623 90.1301 41.7544 85.2042 37.994 83.9453L4.34801 72.6818C-1.09838 70.8585 0.323852 62.7926 6.06538 62.9421L41.5346 63.8654C45.4988 63.9686 47.9998 59.6368 45.9283 56.2553L27.3941 25.9997C24.3939 21.1021 30.668 15.8375 34.9702 19.6426L61.5477 43.1491C64.5181 45.7763 69.2184 44.0655 69.8052 40.1436L75.055 5.05289Z" fill="#FF5500"/>
</svg>
