<svg width="36" height="36" viewBox="0 0 36 36" fill="none" xmlns="http://www.w3.org/2000/svg">
<path d="M6 0C2.71006 0 0 2.71006 0 6V30C0 33.2899 2.71006 36 6 36H30C33.2899 36 36 33.2899 36 30V6C36 2.71006 33.2899 0 30 0H6ZM6 4H30C31.1301 4 32 4.86994 32 6V30C32 31.1301 31.1301 32 30 32H6C4.86994 32 4 31.1301 4 30V6C4 4.86994 4.86994 4 6 4ZM18 8V22C18 23.1301 17.1301 24 16 24C14.8699 24 14 23.1301 14 22C14 20.8699 14.8699 20 16 20V16C12.7101 16 10 18.7101 10 22C10 25.2899 12.7101 28 16 28C19.2899 28 22 25.2899 22 22V14.4648C23.2323 15.3427 24.5182 16 26 16V12C25.9053 12 24.5253 11.5619 23.5625 10.7227C22.5997 9.88344 22 8.82998 22 8H18Z" fill="#FFEAD9"/>
</svg>
