<svg width="113" height="36" viewBox="0 0 113 36" fill="none" xmlns="http://www.w3.org/2000/svg">
<path d="M17.97 6.66999V9.91C17.97 10.59 17.39 11.17 16.67 11.17H12.06V29.28C12.06 30 11.48 30.58 10.76 30.58H7.16C6.48 30.58 5.89999 30 5.89999 29.28V11.17H1.28999C0.569993 11.17 0 10.59 0 9.91V6.66999C0 5.94999 0.579993 5.37 1.28999 5.37H16.66C17.38 5.37 17.96 5.94999 17.96 6.66999H17.97Z" fill="#FFEAD9"/>
<path d="M30.79 12C31.37 11.89 31.94 12.32 31.94 12.94V17.08C31.94 17.66 31.44 18.09 30.9 18.05C26.65 17.76 26.15 20.5 26.15 23.38V29.28C26.15 30 25.57 30.58 24.89 30.58H21.58C20.9 30.58 20.32 30 20.32 29.28V13.62C20.32 12.9 20.9 12.32 21.58 12.32H24.89C25.57 12.32 26.15 12.9 26.15 13.62V15.1C27.23 13.41 28.99 12.33 30.79 12Z" fill="#FFEAD9"/>
<path d="M52.24 21.9299C52.24 22.6499 51.66 23.2299 50.98 23.2299H38.99C39.6 25.3499 41.37 26.3299 43.6 26.3299C45.04 26.3299 46.16 25.7899 46.84 25.2099C47.16 24.9199 47.6 24.8899 47.96 25.0999L50.52 26.6099C51.02 26.9299 51.13 27.6199 50.77 28.0899C49.19 29.8499 46.67 31.0099 43.61 31.0099C37.42 31.0099 33.35 27.1199 33.35 21.4699C33.35 15.8199 37.52 11.8999 42.74 11.8999C47.96 11.8999 52.35 15.1399 52.24 21.9399V21.9299ZM46.91 19.6999C46.44 17.5399 44.97 16.5699 42.95 16.5699C41.08 16.5699 39.57 17.6899 39.03 19.6999H46.91Z" fill="#FFEAD9"/>
<path d="M62.36 12.3199H64.66C65.38 12.3199 65.96 12.8999 65.96 13.6199V15.8499C65.96 16.5699 65.38 17.1499 64.66 17.1499H62.36V29.2799C62.36 29.9999 61.78 30.5799 61.06 30.5799H57.78C57.1 30.5799 56.52 29.9999 56.52 29.2799V17.1499H55.55C54.83 17.1499 54.25 16.5699 54.25 15.8499V13.6199C54.25 12.8999 54.83 12.3199 55.55 12.3199H56.52C56.52 8.93994 57.64 4.43994 63.43 4.43994C64.11 4.43994 64.65 4.50994 65.12 4.57994C65.59 4.64994 65.95 5.04994 65.95 5.54994V8.38994C65.95 8.92994 65.48 9.35994 64.98 9.32994H64.87C62.93 9.32994 62.35 10.4099 62.35 12.3199H62.36Z" fill="#FFEAD9"/>
<path d="M75.83 12.3199H78.13C78.85 12.3199 79.43 12.8999 79.43 13.6199V15.8499C79.43 16.5699 78.85 17.1499 78.13 17.1499H75.83V29.2799C75.83 29.9999 75.25 30.5799 74.53 30.5799H71.25C70.57 30.5799 69.99 29.9999 69.99 29.2799V17.1499H69.02C68.3 17.1499 67.73 16.5699 67.73 15.8499V13.6199C67.73 12.8999 68.31 12.3199 69.02 12.3199H69.99C69.99 8.93994 71.11 4.43994 76.9 4.43994C77.58 4.43994 78.12 4.50994 78.59 4.57994C79.06 4.64994 79.42 5.04994 79.42 5.54994V8.38994C79.42 8.92994 78.95 9.35994 78.45 9.32994H78.34C76.4 9.32994 75.82 10.4099 75.82 12.3199H75.83Z" fill="#FFEAD9"/>
<path d="M100.476 35.5L98.6513 33.4545C97.5617 32.2344 88 21.2416 88 13.1196C88 6.15789 93.6073 0.5 100.5 0.5C107.393 0.5 113 6.15789 113 13.1196C113 21.5766 103.426 32.2823 102.336 33.4785L100.488 35.5H100.476ZM100.5 5.28469C96.3129 5.28469 92.8972 8.80143 92.8972 13.1196C92.8972 17.4378 97.4148 24.1962 100.512 28.1196C103.597 24.2679 108.091 17.689 108.091 13.1196C108.091 8.80143 104.687 5.28469 100.488 5.28469H100.5Z" fill="#FFEAD9"/>
<path d="M100.5 18.5C97.4735 18.5 95 16.0265 95 13C95 9.97346 97.4735 7.5 100.5 7.5C103.527 7.5 106 9.97346 106 13C106 16.0265 103.527 18.5 100.5 18.5ZM100.5 10.7877C99.2863 10.7877 98.2877 11.7709 98.2877 13C98.2877 14.229 99.271 15.2123 100.5 15.2123C101.729 15.2123 102.712 14.229 102.712 13C102.712 11.7709 101.729 10.7877 100.5 10.7877Z" fill="#FFEAD9"/>
</svg>
