<?xml version="1.0" encoding="UTF-8"?>
<svg id="Layer_2" data-name="Layer 2" xmlns="http://www.w3.org/2000/svg" xmlns:xlink="http://www.w3.org/1999/xlink" viewBox="0 0 285.18 602.17">
  <defs>
    <style>
      .cls-1 {
        fill: none;
      }

      .cls-1, .cls-2, .cls-3, .cls-4, .cls-5 {
        stroke-width: 0px;
      }

      .cls-2 {
        fill: #fab9a6;
      }

      .cls-3 {
        fill: #12263a;
      }

      .cls-4 {
        fill: #feead9;
      }

      .cls-5 {
        fill: #f15822;
      }
    </style>
  </defs>
  <g id="Layer_1-2" data-name="Layer 1">
    <path class="cls-2" d="M232.92,72.13c24.28,41.93,14.08,89.16,4.08,130.74-10.37,43.13-41.32,73.26-88.77,82.73-47.15,9.19-108.34-11.06-133.82-43.96C-10.73,208.72.17,163.1,23.04,111.99,46.21,60.59,81.05,3.99,121.89.25c41.2-3.51,86.75,29.95,111.03,71.88Z"/>
    <path class="cls-1" d="M208.06,110.4c0,47.25-32.88,96.49-79.37,96.49s-86.98-32.6-86.98-79.85S79.39,40.53,125.88,40.53s82.18,22.62,82.18,69.87Z"/>
    <path class="cls-3" d="M83.21,245.88l.32-1.47,4.03-.48h1.22l-.32,1.95h-5.25ZM85.48,245.88l2.11-11.01c.32-1.64.62-3.3.9-4.96.28-1.68.55-3.35.83-4.99h5.18l-2.08,11.01c-.32,1.66-.63,3.33-.93,4.99-.28,1.66-.55,3.32-.83,4.96h-5.18ZM86.83,226.43l.29-1.5h5.12l-.32,1.98h-.93l-4.16-.48ZM88.3,245.88l.32-1.57h2.98c1.15,0,2.21-.27,3.17-.8.96-.55,1.79-1.32,2.5-2.3.73-1,1.28-2.18,1.66-3.52.41-1.34.61-2.82.61-4.42,0-2.18-.45-3.85-1.34-5.02-.9-1.17-2.26-1.76-4.1-1.76h-2.21l.32-1.57h3.01c2.09,0,3.85.38,5.28,1.15,1.43.75,2.5,1.78,3.2,3.1.72,1.3,1.09,2.81,1.09,4.51,0,1.84-.32,3.51-.96,5.02-.64,1.49-1.55,2.77-2.72,3.84-1.15,1.07-2.51,1.89-4.06,2.46-1.56.58-3.25.86-5.09.86h-3.65ZM109.45,246.4c-.58,0-1.13-.15-1.66-.45-.51-.28-.94-.75-1.28-1.41-.32-.66-.48-1.52-.48-2.59s.21-2.19.64-3.3c.43-1.13,1-2.21,1.73-3.23.75-1.02,1.58-1.93,2.5-2.72.94-.79,1.9-1.42,2.88-1.89,1-.47,1.97-.7,2.91-.7.47,0,.92.06,1.34.19.43.13.82.32,1.18.58.38.26.73.57,1.02.93l-2.5,1.6c-.34-.3-.7-.54-1.09-.74-.38-.19-.79-.29-1.22-.29-.23,0-.48.04-.74.13-.23.09-.47.21-.7.38-.23.17-.47.38-.7.64-.49.51-.92,1.18-1.28,2.02-.34.81-.62,1.66-.83,2.56-.19.88-.29,1.68-.29,2.4,0,.9.13,1.56.38,1.98.28.43.68.64,1.22.64.3,0,.62-.08.96-.26.36-.17.74-.42,1.12-.74.38-.34.77-.74,1.15-1.18l.1,1.09h-.13c-.53.75-1.14,1.45-1.82,2.11-.68.66-1.4,1.21-2.14,1.63-.75.41-1.5.61-2.27.61ZM117.55,246.4c-.79,0-1.43-.26-1.92-.77-.47-.53-.72-1.25-.77-2.14v-.26c.02-.09.04-.18.06-.29.02-.11.04-.21.06-.32l-.13-.03,2.21-10.34.22-.03,4.45-2.14.58.42-2.5,11.14c-.04.26-.08.48-.13.67-.04.19-.06.37-.06.54,0,.21.04.37.13.48.09.09.21.13.38.13.26,0,.54-.16.86-.48.34-.32.75-.78,1.22-1.38l.86.58c-.34.66-.8,1.32-1.38,1.98-.55.64-1.18,1.17-1.89,1.6-.7.43-1.46.64-2.27.64ZM130.2,239l-.58-1.63h.35c.51-1.39,1.09-2.62,1.73-3.71s1.33-1.95,2.08-2.59c.75-.64,1.51-.96,2.3-.96.56,0,1.06.15,1.5.45.47.28.79.7.96,1.28-.02.77-.22,1.42-.61,1.95-.38.53-.94.8-1.66.8-.55,0-1.01-.14-1.38-.42-.34-.28-.76-.68-1.25-1.22l-.48-.54,1.25-.22v.19c-.72.73-1.35,1.46-1.89,2.21-.51.73-.95,1.46-1.31,2.21-.36.73-.7,1.46-1.02,2.21ZM124.12,245.76l2.69-12.93,1.5.83-3.68-.74.19-1.02,6.27-1.82.58.48-.99,5.73.16.1-.54,2.72c-.21,1.11-.43,2.23-.64,3.36-.21,1.13-.42,2.27-.61,3.42l-4.45.26-.48-.38ZM139.26,244.22c0-.45.05-.98.16-1.6.13-.62.24-1.14.32-1.57l1.76-8.29.64.83-2.85-.67.19-1.02,6.82-1.82.51.42-2.37,11.01c-.06.3-.12.56-.16.77-.02.21-.03.41-.03.58,0,.21.04.37.13.48.09.09.2.13.35.13.26,0,.54-.15.86-.45.34-.3.75-.76,1.22-1.38l.9.58c-.38.68-.86,1.35-1.44,2.02-.58.64-1.24,1.16-1.98,1.57-.75.41-1.58.61-2.5.61-.77,0-1.39-.19-1.86-.58-.45-.38-.67-.92-.67-1.6ZM145.24,227.45c-.62,0-1.17-.2-1.66-.61-.47-.4-.7-.96-.7-1.66,0-.81.29-1.47.86-1.98.6-.53,1.26-.8,1.98-.8s1.27.21,1.7.64c.43.43.64.96.64,1.6,0,.83-.29,1.51-.86,2.05-.55.51-1.21.77-1.95.77ZM155.05,246.4c-1.15,0-2.21-.21-3.17-.64-.94-.45-1.7-1.12-2.27-2.02-.56-.9-.83-2.05-.83-3.46,0-1.3.22-2.55.67-3.74.45-1.22,1.08-2.3,1.89-3.26.83-.98,1.81-1.75,2.94-2.3,1.15-.58,2.41-.86,3.78-.86,1.15,0,2.2.21,3.14.64.94.43,1.68,1.09,2.24,1.98.55.9.83,2.06.83,3.49,0,1.28-.22,2.53-.67,3.74-.43,1.22-1.06,2.3-1.89,3.26-.81.96-1.78,1.73-2.91,2.3-1.13.58-2.38.86-3.74.86ZM155.3,244.83c.47,0,.91-.2,1.31-.61.43-.4.81-.95,1.15-1.63.34-.7.63-1.49.86-2.37.26-.87.45-1.78.58-2.72.15-.96.22-1.91.22-2.85,0-1.15-.16-1.94-.48-2.37-.3-.43-.69-.64-1.18-.64s-.95.21-1.38.64c-.4.41-.78.96-1.12,1.66-.34.68-.64,1.46-.9,2.34-.24.88-.42,1.78-.54,2.72-.13.92-.19,1.82-.19,2.72,0,1.22.16,2.04.48,2.46.32.43.72.64,1.18.64Z"/>
    <image width="168" height="167" transform="translate(208.3 207.19)" xlink:href="../../../Downloads/Ellipse 6.png"/>
    <path class="cls-5" d="M54.69,400.75c-11.41,43.37-21.25,92.41,7.34,133.74,28.59,41.33,95.47,75.21,141.93,66.21,46.22-8.97,72.01-60.83,79.14-114.67,7.21-53.6-4.01-109.2-38.81-143.59-34.72-34.16-92.8-47.15-128.52-34.65-35.81,12.27-49.34,49.79-61.07,92.96Z"/>
    <path class="cls-4" d="M95.14,550.48l.64-4.86h2.3l.58,5.41-1.82-1.6c.6.3,1.26.54,1.98.74.75.19,1.44.29,2.08.29.73,0,1.37-.12,1.92-.35.58-.26,1.02-.61,1.34-1.06.32-.47.48-1.04.48-1.7,0-.49-.11-.96-.32-1.41-.21-.45-.55-.91-1.02-1.38-.45-.49-1.05-1-1.79-1.54-.98-.7-1.78-1.4-2.4-2.08-.6-.7-1.03-1.42-1.31-2.14-.26-.73-.38-1.47-.38-2.24,0-1.32.31-2.48.93-3.46.64-.98,1.54-1.74,2.69-2.27,1.15-.56,2.49-.83,4-.83.75,0,1.48.07,2.21.22.73.13,1.4.32,2.02.58.64.23,1.19.52,1.66.86l-.7,4.54h-2.27l-.54-4.96,1.63,1.66c-.58-.47-1.14-.79-1.7-.96-.53-.19-1.12-.29-1.76-.29s-1.27.13-1.82.38c-.55.26-1,.62-1.34,1.09-.32.47-.48,1.02-.48,1.66,0,.47.11.92.32,1.34.21.43.54.85.99,1.28.47.43,1.06.9,1.76,1.41.98.66,1.79,1.33,2.43,2.02.66.66,1.15,1.37,1.47,2.11.32.73.48,1.54.48,2.43,0,1.39-.35,2.58-1.06,3.58-.68,1-1.64,1.78-2.88,2.34-1.24.53-2.69.8-4.35.8-.73,0-1.45-.06-2.18-.19-.73-.13-1.41-.31-2.05-.54-.64-.26-1.22-.55-1.73-.9ZM111.95,537.87l.22-1.34,3.62-.48v.22h6.59l-.35,1.73-6.27-.13h-3.81ZM114.32,552.05c-.77,0-1.38-.19-1.82-.58-.45-.38-.67-.94-.67-1.66,0-.47.05-1,.16-1.6.11-.6.21-1.13.32-1.6l2.05-9.54,3.1-5.34h2.72l-3.2,15.42c-.04.3-.09.55-.13.77-.04.21-.06.4-.06.58,0,.21.04.37.13.48.11.08.23.13.38.13s.32-.06.51-.19c.21-.13.45-.33.7-.61.26-.28.54-.62.86-1.02l.9.58c-.38.68-.86,1.35-1.44,2.02-.58.64-1.25,1.16-2.02,1.57-.75.4-1.58.61-2.5.61ZM127.6,552.05c-1.09,0-2.06-.23-2.91-.7-.83-.49-1.48-1.18-1.95-2.08-.47-.9-.7-1.95-.7-3.17,0-1.37.23-2.66.7-3.87.47-1.24,1.13-2.34,1.98-3.3.85-.98,1.86-1.75,3.01-2.3,1.15-.58,2.42-.86,3.81-.86s2.5.31,3.26.93c.79.62,1.18,1.43,1.18,2.43,0,.75-.23,1.46-.7,2.14-.47.68-1.18,1.31-2.14,1.89-.94.58-2.11,1.1-3.52,1.57-1.39.47-3.02.9-4.9,1.28l-.03-1.02c1.94-.49,3.45-1.08,4.51-1.76,1.07-.68,1.81-1.4,2.24-2.14.43-.77.64-1.51.64-2.24,0-.53-.11-.92-.32-1.15-.21-.24-.47-.35-.77-.35-.41,0-.85.2-1.34.61-.49.38-.95.93-1.38,1.63-.43.68-.78,1.48-1.06,2.4-.28.92-.42,1.9-.42,2.94,0,1.24.29,2.16.86,2.78.6.62,1.38.93,2.34.93.58,0,1.11-.09,1.6-.26.51-.19.98-.46,1.41-.8.45-.36.84-.75,1.18-1.15l.8.54c-.34.66-.75,1.3-1.22,1.92-.47.6-1.01,1.13-1.63,1.6-.6.47-1.28.84-2.05,1.12-.75.3-1.58.45-2.5.45ZM133.67,558.89l.22-1.09,3.36-.61h1.95l3.68.61-.22,1.09h-8.99ZM135.46,558.89l4.22-20.45,1.5.86-3.65-.74.16-1.02,6.62-1.82.61.48-.77,3.65-.03.22-2.14,10.53-.22.58c-.17.98-.35,1.91-.54,2.78-.17.9-.33,1.75-.48,2.56-.15.81-.29,1.6-.42,2.37h-4.86ZM142.95,552.05c-.68,0-1.33-.14-1.95-.42-.62-.28-1.15-.68-1.6-1.22l1.73-2.82c.36.62.76,1.14,1.18,1.57.45.4.97.61,1.57.61.34,0,.66-.06.96-.19.32-.13.62-.34.9-.64.3-.3.59-.67.86-1.12.34-.53.64-1.16.9-1.89.28-.75.48-1.51.61-2.3.15-.79.22-1.51.22-2.18,0-.85-.13-1.47-.38-1.86-.26-.41-.67-.61-1.25-.61-.32,0-.66.09-1.02.26-.34.15-.69.38-1.06.7-.36.3-.72.65-1.09,1.06l-.26-.86h.19c.51-.79,1.11-1.51,1.79-2.18.68-.66,1.41-1.2,2.18-1.6.79-.41,1.57-.61,2.34-.61.62,0,1.18.14,1.7.42.51.28.92.74,1.22,1.38.32.62.48,1.47.48,2.56,0,1.15-.2,2.29-.61,3.42-.38,1.13-.92,2.21-1.6,3.23-.68,1.02-1.46,1.93-2.34,2.72-.88.79-1.8,1.42-2.78,1.89-.96.45-1.92.67-2.88.67ZM154.41,551.79l-.48-.38,2.85-13.44c.26-1.11.49-2.23.7-3.36.23-1.15.43-2.29.58-3.42l1.66.93-3.68-.74.16-1.02,6.75-1.82.48.42-2.34,10.82v.38l-.96,4.58c-.19.87-.36,1.68-.51,2.43-.15.75-.29,1.47-.42,2.18-.13.7-.25,1.44-.35,2.21l-4.45.26ZM165.51,552.05c-.77,0-1.38-.19-1.82-.58-.45-.38-.67-.91-.67-1.57,0-.47.06-.97.19-1.5.13-.55.25-1.05.35-1.47l1.15-4.7c.11-.49.19-.94.26-1.34.08-.41.13-.73.13-.96,0-.3-.08-.52-.22-.67-.13-.15-.32-.22-.58-.22-.3,0-.64.07-1.02.22-.38.15-.8.38-1.25.7-.43.32-.89.73-1.38,1.22l-.35-1.18h.26c.81-.9,1.61-1.65,2.4-2.27.79-.64,1.58-1.12,2.37-1.44.79-.34,1.57-.51,2.34-.51.68,0,1.26.22,1.73.67.49.45.74,1.12.74,2.02,0,.45-.03.91-.1,1.38-.06.45-.16.92-.29,1.41l-1.47,5.92c-.06.3-.12.57-.16.8-.04.21-.06.39-.06.54,0,.21.03.37.1.48.09.08.2.13.35.13.26,0,.57-.15.93-.45.36-.3.78-.76,1.25-1.38l.86.58c-.38.68-.88,1.35-1.47,2.02-.6.64-1.28,1.16-2.05,1.57-.77.4-1.6.61-2.5.61ZM176.05,552.05c-.58,0-1.13-.15-1.66-.45-.51-.28-.94-.75-1.28-1.41-.32-.66-.48-1.53-.48-2.59s.21-2.19.64-3.3c.43-1.13,1-2.21,1.73-3.23.75-1.02,1.58-1.93,2.5-2.72.94-.79,1.9-1.42,2.88-1.89,1-.47,1.97-.7,2.91-.7.47,0,.92.06,1.34.19s.82.32,1.18.58c.38.26.72.57,1.02.93l-2.5,1.6c-.34-.3-.7-.54-1.09-.74-.38-.19-.79-.29-1.22-.29-.24,0-.48.04-.74.13-.24.08-.47.21-.7.38-.24.17-.47.38-.7.64-.49.51-.92,1.18-1.28,2.02-.34.81-.62,1.66-.83,2.56-.19.87-.29,1.67-.29,2.4,0,.9.13,1.56.38,1.98.28.43.68.64,1.22.64.3,0,.62-.09.96-.26.36-.17.74-.42,1.12-.74.38-.34.77-.74,1.15-1.18l.1,1.09h-.13c-.53.75-1.14,1.45-1.82,2.11-.68.66-1.4,1.21-2.14,1.63-.75.4-1.5.61-2.27.61ZM184.14,552.05c-.79,0-1.43-.26-1.92-.77-.47-.53-.73-1.25-.77-2.14v-.26c.02-.09.04-.18.06-.29.02-.11.04-.21.06-.32l-.13-.03,2.21-10.34.22-.03,4.45-2.14.58.42-2.5,11.14c-.04.26-.08.48-.13.67s-.06.37-.06.54c0,.21.04.37.13.48.09.08.21.13.38.13.26,0,.54-.16.86-.48.34-.32.75-.78,1.22-1.38l.86.58c-.34.66-.8,1.32-1.38,1.98-.55.64-1.18,1.17-1.89,1.6-.7.43-1.46.64-2.27.64ZM191.17,551.79l-.48-.38,2.72-12.93,1.5.83-3.68-.74.19-1.02,6.62-1.82.61.48-.74,3.78-.1.35-.93,4.42c-.24,1.11-.46,2.23-.67,3.36-.21,1.13-.41,2.27-.58,3.42l-4.48.26ZM202.24,552.05c-.77,0-1.38-.19-1.82-.58-.43-.38-.64-.91-.64-1.57,0-.47.05-.97.16-1.5.13-.55.24-1.05.35-1.47l1.15-4.7c.13-.49.22-.94.29-1.34.08-.41.13-.73.13-.96,0-.3-.07-.52-.22-.67-.15-.15-.34-.22-.58-.22-.3,0-.65.07-1.06.22-.38.15-.79.38-1.22.7-.43.32-.9.73-1.41,1.22l-.29-1.18h.19c.83-.9,1.64-1.65,2.43-2.27.79-.64,1.58-1.12,2.37-1.44.79-.34,1.56-.51,2.3-.51.7,0,1.29.22,1.76.67.47.45.7,1.12.7,2.02,0,.45-.03.91-.1,1.38-.06.45-.16.92-.29,1.41l-1.44,5.92c-.09.3-.15.57-.19.8-.04.21-.06.39-.06.54,0,.21.04.37.13.48.08.08.2.13.35.13.23,0,.53-.15.9-.45.36-.3.78-.76,1.25-1.38l.9.58c-.38.68-.88,1.35-1.47,2.02-.6.64-1.28,1.16-2.05,1.57-.77.4-1.61.61-2.53.61ZM209.82,549.87c0-.45.05-.98.16-1.6.13-.62.23-1.14.32-1.57l1.76-8.29.64.83-2.85-.67.19-1.02,6.82-1.82.51.42-2.37,11.01c-.06.3-.12.55-.16.77-.02.21-.03.4-.03.58,0,.21.04.37.13.48.08.08.2.13.35.13.26,0,.54-.15.86-.45.34-.3.75-.76,1.22-1.38l.9.58c-.38.68-.86,1.35-1.44,2.02-.58.64-1.24,1.16-1.98,1.57-.75.4-1.58.61-2.5.61-.77,0-1.39-.19-1.86-.58-.45-.38-.67-.92-.67-1.6ZM215.81,533.1c-.62,0-1.17-.2-1.66-.61-.47-.41-.7-.96-.7-1.66,0-.81.29-1.47.86-1.98.6-.53,1.26-.8,1.98-.8s1.27.21,1.7.64c.43.43.64.96.64,1.6,0,.83-.29,1.51-.86,2.05-.55.51-1.21.77-1.95.77ZM225,552.05c-1.09,0-2.06-.23-2.91-.7-.83-.49-1.48-1.18-1.95-2.08-.47-.9-.7-1.95-.7-3.17,0-1.37.24-2.66.7-3.87.47-1.24,1.13-2.34,1.98-3.3.85-.98,1.86-1.75,3.01-2.3,1.15-.58,2.42-.86,3.81-.86s2.5.31,3.26.93c.79.62,1.18,1.43,1.18,2.43,0,.75-.23,1.46-.7,2.14-.47.68-1.18,1.31-2.14,1.89-.94.58-2.11,1.1-3.52,1.57-1.39.47-3.02.9-4.9,1.28l-.03-1.02c1.94-.49,3.45-1.08,4.51-1.76,1.07-.68,1.81-1.4,2.24-2.14.43-.77.64-1.51.64-2.24,0-.53-.11-.92-.32-1.15-.21-.24-.47-.35-.77-.35-.4,0-.85.2-1.34.61-.49.38-.95.93-1.38,1.63-.43.68-.78,1.48-1.06,2.4-.28.92-.42,1.9-.42,2.94,0,1.24.29,2.16.86,2.78.6.62,1.38.93,2.34.93.58,0,1.11-.09,1.6-.26.51-.19.98-.46,1.41-.8.45-.36.84-.75,1.18-1.15l.8.54c-.34.66-.75,1.3-1.22,1.92-.47.6-1.01,1.13-1.63,1.6-.6.47-1.28.84-2.05,1.12-.75.3-1.58.45-2.5.45Z"/>
    <image width="515" height="512" transform="translate(67.48 330.4) scale(.36)" xlink:href="../../../Downloads/Ellipse 4.png"/>
  </g>
</svg>