<?xml version="1.0" encoding="UTF-8"?>
<svg id="Layer_2" data-name="Layer 2" xmlns="http://www.w3.org/2000/svg" xmlns:xlink="http://www.w3.org/1999/xlink" viewBox="0 0 307.94 570.79">
  <defs>
    <style>
      .cls-1 {
        fill: #094924;
      }

      .cls-1, .cls-2, .cls-3 {
        stroke-width: 0px;
      }

      .cls-2 {
        fill: #12263a;
      }

      .cls-3 {
        fill: #feead9;
      }
    </style>
  </defs>
  <g id="Layer_1-2" data-name="Layer 1">
    <path class="cls-1" d="M222.19,143.24c-1.7-48.11-9.79-84.83-40.9-110.73C150.54,6.74,96.53-8.15,63.48,4.7,30.29,17.84,17.81,58.79,8.08,104.51-1.77,150.01-8.86,200.29,25.78,235.34c34.64,35.05,111.43,54.52,152.02,34.79,40.84-19.81,45.74-78.91,44.39-126.89Z"/>
    <path class="cls-3" d="M65.19,227.86l.64-4.86h2.3l.58,5.41-1.82-1.6c.6.3,1.26.54,1.98.74.75.19,1.44.29,2.08.29.73,0,1.37-.12,1.92-.35.58-.26,1.02-.61,1.34-1.06.32-.47.48-1.03.48-1.7,0-.49-.11-.96-.32-1.41-.21-.45-.55-.91-1.02-1.38-.45-.49-1.05-1-1.79-1.54-.98-.7-1.78-1.4-2.4-2.08-.6-.7-1.03-1.42-1.31-2.14-.26-.73-.38-1.47-.38-2.24,0-1.32.31-2.47.93-3.46.64-.98,1.54-1.74,2.69-2.27,1.15-.55,2.49-.83,4-.83.75,0,1.48.07,2.21.22.73.13,1.4.32,2.02.58.64.23,1.19.52,1.66.86l-.7,4.54h-2.27l-.54-4.96,1.63,1.66c-.58-.47-1.14-.79-1.7-.96-.53-.19-1.12-.29-1.76-.29s-1.27.13-1.82.38c-.55.26-1,.62-1.34,1.09-.32.47-.48,1.02-.48,1.66,0,.47.11.92.32,1.34.21.43.54.85.99,1.28.47.43,1.06.9,1.76,1.41.98.66,1.79,1.33,2.43,2.02.66.66,1.15,1.37,1.47,2.11.32.73.48,1.54.48,2.43,0,1.39-.35,2.58-1.06,3.58-.68,1-1.64,1.78-2.88,2.34-1.24.53-2.69.8-4.35.8-.73,0-1.45-.06-2.18-.19-.73-.13-1.41-.31-2.05-.54-.64-.26-1.22-.55-1.73-.9ZM87.24,229.42c-1.09,0-2.06-.23-2.91-.7-.83-.49-1.48-1.18-1.95-2.08-.47-.9-.7-1.95-.7-3.17,0-1.37.23-2.66.7-3.87.47-1.24,1.13-2.34,1.98-3.3.85-.98,1.86-1.75,3.01-2.3,1.15-.58,2.42-.86,3.81-.86s2.5.31,3.26.93c.79.62,1.18,1.43,1.18,2.43,0,.75-.23,1.46-.7,2.14-.47.68-1.18,1.31-2.14,1.89-.94.58-2.11,1.1-3.52,1.57-1.39.47-3.02.9-4.9,1.28l-.03-1.02c1.94-.49,3.45-1.08,4.51-1.76,1.07-.68,1.81-1.4,2.24-2.14.43-.77.64-1.51.64-2.24,0-.53-.11-.92-.32-1.15-.21-.23-.47-.35-.77-.35-.41,0-.85.2-1.34.61-.49.38-.95.93-1.38,1.63-.43.68-.78,1.48-1.06,2.4-.28.92-.42,1.9-.42,2.94,0,1.24.29,2.17.86,2.78.6.62,1.38.93,2.34.93.58,0,1.11-.09,1.6-.26.51-.19.98-.46,1.41-.8.45-.36.84-.75,1.18-1.15l.8.54c-.34.66-.75,1.3-1.22,1.92-.47.6-1.01,1.13-1.63,1.6-.6.47-1.28.84-2.05,1.12-.75.3-1.58.45-2.5.45ZM99.11,229.42c-.77,0-1.38-.19-1.82-.58-.45-.38-.67-.92-.67-1.6,0-.47.05-1.01.16-1.63.13-.64.28-1.38.45-2.21l1.73-8.06c.21-1.11.44-2.23.67-3.36.23-1.15.44-2.29.61-3.42l1.6.93-3.65-.74.19-1.02,6.78-1.82.51.42-3.87,18.21c-.06.3-.12.55-.16.77-.04.21-.06.41-.06.58,0,.21.04.37.13.48.11.09.23.13.38.13.23,0,.52-.15.86-.45.34-.3.75-.76,1.22-1.38l.86.58c-.38.68-.86,1.35-1.44,2.02-.55.64-1.22,1.16-1.98,1.57-.75.41-1.58.61-2.5.61ZM106.53,229.17l-.48-.38,2.72-12.93,1.5.83-3.68-.74.19-1.02,6.62-1.82.61.48-.83,4,.1-.03-1.02,4.58c-.23,1.11-.46,2.23-.67,3.36-.21,1.13-.41,2.27-.58,3.42l-4.48.26ZM115.23,229.17l-.48-.38,1.95-9.28c.09-.47.17-.9.26-1.28.09-.41.13-.73.13-.96,0-.28-.07-.49-.22-.64-.15-.15-.34-.22-.58-.22-.3,0-.64.07-1.02.22-.38.15-.8.38-1.25.7-.43.3-.89.69-1.38,1.18l-.35-1.18h.22c.81-.9,1.61-1.65,2.4-2.27.79-.62,1.58-1.09,2.37-1.41.79-.34,1.56-.51,2.3-.51s1.32.22,1.79.67c.47.45.7,1.12.7,2.02,0,.36-.02.66-.06.9-.04.23-.11.51-.19.83l.06.03-.93,4.54c-.23,1.11-.46,2.23-.67,3.36-.21,1.13-.42,2.27-.61,3.42l-4.45.26ZM126.11,229.42c-.77,0-1.38-.19-1.82-.58-.43-.38-.64-.91-.64-1.57,0-.47.06-.97.19-1.5.13-.55.23-1.05.32-1.47l1.15-4.7c.13-.49.22-.94.29-1.34.09-.41.13-.73.13-.96,0-.3-.07-.52-.22-.67-.15-.15-.34-.22-.58-.22-.3,0-.64.07-1.02.22-.38.15-.79.38-1.22.7-.43.32-.89.73-1.38,1.22l-.32-1.18h.22c.81-.9,1.61-1.65,2.4-2.27.79-.64,1.57-1.12,2.34-1.44.79-.34,1.57-.51,2.34-.51.68,0,1.26.22,1.73.67.49.45.74,1.12.74,2.02,0,.45-.04.91-.13,1.38-.06.45-.15.92-.26,1.41l-1.47,5.92c-.06.3-.13.57-.19.8-.04.21-.06.39-.06.54,0,.21.04.37.13.48.09.09.2.13.35.13.26,0,.55-.15.9-.45.36-.3.78-.76,1.25-1.38l.9.58c-.38.68-.87,1.35-1.47,2.02-.6.64-1.28,1.16-2.05,1.57-.77.41-1.61.61-2.53.61ZM136.66,229.42c-.58,0-1.13-.15-1.66-.45-.51-.28-.94-.75-1.28-1.41-.32-.66-.48-1.53-.48-2.59s.21-2.19.64-3.3c.43-1.13,1-2.21,1.73-3.23.75-1.02,1.58-1.93,2.5-2.72.94-.79,1.9-1.42,2.88-1.89,1-.47,1.97-.7,2.91-.7.47,0,.92.06,1.34.19.43.13.82.32,1.18.58.38.26.73.57,1.02.93l-2.5,1.6c-.34-.3-.7-.54-1.09-.74-.38-.19-.79-.29-1.22-.29-.23,0-.48.04-.74.13-.23.09-.47.21-.7.38-.23.17-.47.38-.7.64-.49.51-.92,1.18-1.28,2.02-.34.81-.62,1.66-.83,2.56-.19.87-.29,1.67-.29,2.4,0,.9.13,1.56.38,1.98.28.43.68.64,1.22.64.3,0,.62-.09.96-.26.36-.17.74-.42,1.12-.74.38-.34.77-.74,1.15-1.18l.1,1.09h-.13c-.53.75-1.14,1.45-1.82,2.11-.68.66-1.4,1.21-2.14,1.63-.75.41-1.5.61-2.27.61ZM144.75,229.42c-.79,0-1.43-.26-1.92-.77-.47-.53-.73-1.25-.77-2.14v-.26c.02-.09.04-.18.06-.29.02-.11.04-.21.06-.32l-.13-.03,2.21-10.34.22-.03,4.45-2.14.58.42-2.5,11.14c-.04.26-.09.48-.13.67s-.06.37-.06.54c0,.21.04.37.13.48.09.09.21.13.38.13.26,0,.54-.16.86-.48.34-.32.75-.78,1.22-1.38l.86.58c-.34.66-.8,1.32-1.38,1.98-.55.64-1.18,1.17-1.89,1.6-.7.43-1.46.64-2.27.64Z"/>
    <image width="832" height="833" transform="translate(-80.14 174.94) scale(.2)" xlink:href="../../../Downloads/Pic1.png"/>
    <path class="cls-2" d="M223.3,291.38c49.58,6.23,76.95,59.85,83.22,96.9,6.13,37.24-8.71,57.72-23.48,90.65s-28.88,78.31-61.18,89.12c-32.44,11.01-82.98-12.26-117.66-51.63-35.04-39.26-54.22-94.6-28.05-142.66,25.94-48.15,97.47-88.91,147.14-82.39Z"/>
    <path class="cls-3" d="M138.71,526.64l.26-1.47,3.07-.45h.9l3.52.45-.29,1.47h-7.46ZM141.17,526.64l3.9-20.58h1.7l-1.89,10.11-1.95,10.46h-1.76ZM154.83,507.19l.29-1.5h7.49l-.29,1.5-2.85.42h-.9l-3.74-.42ZM157.11,520.79l-1.82,2.05,1.25-6.66,1.95-10.5h1.73l-3.94,20.99h-2.56l-8.48-17.38-.16-.29-.77-1.6-1.92-.22.29-1.5h6.43l7.42,15.1h.58ZM164.52,527.15c-.58,0-1.13-.15-1.66-.45-.51-.28-.94-.75-1.28-1.41-.32-.66-.48-1.53-.48-2.59s.21-2.19.64-3.3c.43-1.13,1-2.21,1.73-3.23.75-1.02,1.58-1.93,2.5-2.72.94-.79,1.9-1.42,2.88-1.89,1-.47,1.97-.7,2.91-.7.47,0,.92.06,1.34.19.43.13.82.32,1.18.58.38.26.73.57,1.02.93l-2.5,1.6c-.34-.3-.7-.54-1.09-.74-.38-.19-.79-.29-1.22-.29-.23,0-.48.04-.74.13-.23.09-.47.21-.7.38-.23.17-.47.38-.7.64-.49.51-.92,1.18-1.28,2.02-.34.81-.62,1.66-.83,2.56-.19.87-.29,1.67-.29,2.4,0,.9.13,1.56.38,1.98.28.43.68.64,1.22.64.3,0,.62-.09.96-.26.36-.17.74-.42,1.12-.74.38-.34.77-.74,1.15-1.18l.1,1.09h-.13c-.53.75-1.14,1.45-1.82,2.11-.68.66-1.4,1.21-2.14,1.63-.75.41-1.5.61-2.27.61ZM172.61,527.15c-.79,0-1.43-.26-1.92-.77-.47-.53-.73-1.25-.77-2.14v-.26c.02-.09.04-.18.06-.29.02-.11.04-.21.06-.32l-.13-.03,2.21-10.34.22-.03,4.45-2.14.58.42-2.5,11.14c-.04.26-.09.48-.13.67-.04.19-.06.37-.06.54,0,.21.04.37.13.48.09.09.21.13.38.13.26,0,.54-.16.86-.48.34-.32.75-.78,1.22-1.38l.86.58c-.34.66-.8,1.32-1.38,1.98-.55.64-1.18,1.17-1.89,1.6-.7.43-1.46.64-2.27.64ZM182.61,527.15c-.6,0-1.16-.15-1.7-.45-.51-.3-.93-.77-1.25-1.41-.32-.66-.48-1.54-.48-2.62s.21-2.19.64-3.3c.43-1.13,1-2.2,1.73-3.2.73-1.02,1.55-1.93,2.46-2.72.94-.79,1.9-1.42,2.88-1.89,1-.47,1.98-.7,2.94-.7.45,0,.87.06,1.28.19.43.11.83.28,1.22.51.38.23.73.53,1.02.9l-2.5,1.73c-.34-.32-.68-.58-1.02-.77-.34-.19-.77-.29-1.28-.29-.23,0-.48.04-.74.13-.23.09-.47.19-.7.32-.21.13-.39.28-.54.45-.38.38-.74.87-1.06,1.47-.3.6-.57,1.24-.8,1.92-.21.68-.38,1.37-.51,2.05-.11.66-.16,1.25-.16,1.76,0,.92.13,1.59.38,2.02.28.43.68.64,1.22.64.32,0,.65-.07.99-.22.36-.17.73-.42,1.09-.74.38-.34.76-.74,1.12-1.18l.32,1.06h-.32c-.51.77-1.11,1.48-1.79,2.14-.68.66-1.41,1.19-2.18,1.6-.75.41-1.5.61-2.27.61ZM190.51,527.15c-.79,0-1.41-.25-1.86-.74-.43-.51-.64-1.14-.64-1.89,0-.23.01-.48.03-.74.04-.28.09-.58.13-.9l-.03-.06,2.11-10.02.32-.61,1.22-6.08,1.25,1.09-3.58-.74.16-1.02,6.78-1.82.51.42-3.9,18.21c-.06.34-.12.61-.16.8-.02.19-.03.37-.03.54,0,.21.04.37.13.48.09.09.2.13.35.13.21,0,.5-.15.86-.45.36-.3.78-.76,1.25-1.38l.9.58c-.38.73-.87,1.41-1.47,2.05-.6.64-1.27,1.16-2.02,1.57-.73.38-1.49.58-2.3.58ZM197.85,524.98c0-.45.05-.98.16-1.6.13-.62.23-1.14.32-1.57l1.76-8.29.64.83-2.85-.67.19-1.02,6.82-1.82.51.42-2.37,11.01c-.06.3-.12.55-.16.77-.02.21-.03.41-.03.58,0,.21.04.37.13.48.09.09.2.13.35.13.26,0,.54-.15.86-.45.34-.3.75-.76,1.22-1.38l.9.58c-.38.68-.86,1.35-1.44,2.02-.58.64-1.24,1.16-1.98,1.57-.75.41-1.58.61-2.5.61-.77,0-1.39-.19-1.86-.58-.45-.38-.67-.92-.67-1.6ZM203.84,508.21c-.62,0-1.17-.2-1.66-.61-.47-.41-.7-.96-.7-1.66,0-.81.29-1.47.86-1.98.6-.53,1.26-.8,1.98-.8s1.27.21,1.7.64c.43.43.64.96.64,1.6,0,.83-.29,1.51-.86,2.05-.55.51-1.21.77-1.95.77ZM207.85,526.9l-.48-.38,2.72-12.93,1.5.83-3.68-.74.19-1.02,6.62-1.82.61.48-.74,3.78-.1.35-.93,4.42c-.23,1.11-.46,2.23-.67,3.36-.21,1.13-.41,2.27-.58,3.42l-4.48.26ZM218.92,527.15c-.77,0-1.38-.19-1.82-.58-.43-.38-.64-.91-.64-1.57,0-.47.05-.97.16-1.5.13-.55.25-1.05.35-1.47l1.15-4.7c.13-.49.22-.94.29-1.34.09-.41.13-.73.13-.96,0-.3-.07-.52-.22-.67-.15-.15-.34-.22-.58-.22-.3,0-.65.07-1.06.22-.38.15-.79.38-1.22.7-.43.32-.9.73-1.41,1.22l-.29-1.18h.19c.83-.9,1.64-1.65,2.43-2.27.79-.64,1.58-1.12,2.37-1.44.79-.34,1.56-.51,2.3-.51.7,0,1.29.22,1.76.67.47.45.7,1.12.7,2.02,0,.45-.03.91-.1,1.38-.06.45-.16.92-.29,1.41l-1.44,5.92c-.09.3-.15.57-.19.8-.04.21-.06.39-.06.54,0,.21.04.37.13.48.09.09.2.13.35.13.23,0,.53-.15.9-.45.36-.3.78-.76,1.25-1.38l.9.58c-.38.68-.87,1.35-1.47,2.02-.6.64-1.28,1.16-2.05,1.57-.77.41-1.61.61-2.53.61ZM231.66,527.15c-1.09,0-2.06-.23-2.91-.7-.83-.49-1.48-1.18-1.95-2.08-.47-.9-.7-1.95-.7-3.17,0-1.37.23-2.66.7-3.87.47-1.24,1.13-2.34,1.98-3.3.85-.98,1.86-1.75,3.01-2.3,1.15-.58,2.42-.86,3.81-.86s2.5.31,3.26.93c.79.62,1.18,1.43,1.18,2.43,0,.75-.24,1.46-.7,2.14-.47.68-1.18,1.31-2.14,1.89-.94.58-2.11,1.1-3.52,1.57-1.39.47-3.02.9-4.9,1.28l-.03-1.02c1.94-.49,3.45-1.08,4.51-1.76,1.07-.68,1.81-1.4,2.24-2.14.43-.77.64-1.51.64-2.24,0-.53-.11-.92-.32-1.15-.21-.23-.47-.35-.77-.35-.41,0-.85.2-1.34.61-.49.38-.95.93-1.38,1.63-.43.68-.78,1.48-1.06,2.4-.28.92-.42,1.9-.42,2.94,0,1.24.29,2.17.86,2.78.6.62,1.38.93,2.34.93.58,0,1.11-.09,1.6-.26.51-.19.98-.46,1.41-.8.45-.36.84-.75,1.18-1.15l.8.54c-.34.66-.75,1.3-1.22,1.92-.47.6-1.01,1.13-1.63,1.6-.6.47-1.28.84-2.05,1.12-.75.3-1.58.45-2.5.45Z"/>
    <image width="833" height="833" transform="translate(-74.74 181.94) scale(.2)" xlink:href="../../../Downloads/Ellipse 22.png"/>
  </g>
</svg>